<svg version="1.1" xmlns="http://www.w3.org/2000/svg" xmlns:xlink="http://www.w3.org/1999/xlink" width="28.70272" height="45.4179" viewBox="0,0,28.70272,45.4179"><g transform="translate(-224.86375,-148.44704)"><g data-paper-data="{&quot;isPaintingLayer&quot;:true}" fill-rule="nonzero" stroke-linecap="butt" stroke-linejoin="miter" stroke-miterlimit="10" stroke-dasharray="" stroke-dashoffset="0" style="mix-blend-mode: normal"><path d="M243.83049,188.51011c0,-0.75405 1.65555,-1.36533 3.69777,-1.36533c2.04222,0 4.83555,1.63528 4.83555,2.38933c0,0.20997 -0.26388,0.50174 -0.63293,0.80309c-0.80419,0.65664 -2.10775,1.35869 -2.26839,1.35869c-2.04222,0 -5.632,-2.43172 -5.632,-3.18578z" data-paper-data="{&quot;index&quot;:null}" fill="#ff8200" stroke="#000000" stroke-width="0.5"/><path d="M231.11753,193.61493c-0.23437,0 -2.90133,-1.49426 -2.90133,-2.16178c0,-0.75406 2.79333,-2.38934 4.83555,-2.38934c2.04223,0 3.69778,0.61129 3.69778,1.36534c0,0.75406 -3.58978,3.18578 -5.632,3.18578z" fill="#ff8200" stroke="#000000" stroke-width="0.5"/><path d="M229.00134,177.9063c1.22421,-19.03159 4.92889,-23.555 10.86174,-23.555c5.93285,0 9.36903,4.31055 10.62301,23.055c0.16961,1.04273 3.89029,13.19393 -10.5078,13.45477c-13.48531,0.2443 -11.05299,-11.77247 -10.97694,-12.95477z" fill="#000000" stroke="#000000" stroke-width="1"/><path d="M241.40509,188.23715c-3.63281,0 -6.57778,-4.43665 -6.57778,-11.16831c0,-6.73166 3.03571,-10.48801 6.66851,-10.48801c3.6328,0 6.48705,3.75635 6.48705,10.48801c0,6.73166 -2.94498,11.16831 -6.57778,11.16831z" fill="#ffffff" stroke="#000000" stroke-width="0"/><path d="M225.55385,178.95769c-0.59031,-0.32739 0.24008,-2.95285 1.85472,-5.86412c1.61464,-2.91127 4.17469,-5.42391 4.76499,-5.09651c0.59031,0.32739 -1.01267,3.37083 -2.62731,6.28211c-1.61463,2.91128 -3.4021,5.00593 -3.99241,4.67853z" data-paper-data="{&quot;index&quot;:null}" fill="#000000" stroke="#000000" stroke-width="1"/><g><path d="M240.6998,149.58941c1.63223,-0.88713 3.86638,0.78491 5.20846,2.06238c0.98784,1.01141 1.05625,2.73156 1.05987,4.09395c0.00486,1.42585 -0.25554,2.915 -1.0326,4.15309c-0.59654,0.94928 -1.69702,1.84938 -2.78294,1.84938c-1.08583,0 -2.07005,-0.70741 -2.78285,-1.84938c-0.71288,-1.14267 -1.18707,-2.9255 -1.15371,-4.4609c0.04361,-1.97004 -0.2326,-4.91522 1.48376,-5.84852z" fill="#ffffff" stroke="#000000" stroke-width="1.25"/><path d="M244.10593,156.50248c0.37577,0 0.71694,0.17636 0.96313,0.46042c0.24689,0.28467 0.39952,0.67713 0.39952,1.11064c0,0.4335 -0.15263,0.82596 -0.39952,1.11072c-0.24619,0.28406 -0.58736,0.46042 -0.96313,0.46042c-0.37577,0 -0.71694,-0.17636 -0.96322,-0.46042c-0.24689,-0.28476 -0.39952,-0.67722 -0.39952,-1.11072c0,-0.4335 0.15262,-0.82596 0.39952,-1.11064c0.24628,-0.28406 0.58745,-0.46042 0.96322,-0.46042z" fill="#000000" stroke="none" stroke-width="0.72647"/><path d="M234.24185,150.62544c1.60636,-1.23704 4.22654,-2.14182 5.89646,-1.09271c1.62428,1.10296 1.21902,3.83725 1.21832,5.73924c-0.00062,1.60637 -0.46678,3.45645 -1.22159,4.64662c-0.75472,1.18955 -1.79677,1.92635 -2.9466,1.92635c-1.14974,0 -2.19178,-0.7368 -2.94659,-1.92635c-0.75472,-1.19017 -1.22159,-2.88631 -1.22159,-4.64662c0,-1.76022 -0.0308,-3.6571 1.22159,-4.64653z" fill="#ffffff" stroke="#000000" stroke-width="1.25"/><path d="M237.92692,156.45834c0.37577,0 0.71694,0.17637 0.96313,0.46043c0.24689,0.28467 0.39952,0.67713 0.39952,1.11064c0,0.4335 -0.15262,0.82595 -0.39952,1.11072c-0.24619,0.28406 -0.58736,0.46043 -0.96313,0.46043c-0.37577,0 -0.71694,-0.17637 -0.96322,-0.46043c-0.24689,-0.28476 -0.39952,-0.67722 -0.39952,-1.11072c0,-0.4335 0.15263,-0.82596 0.39952,-1.11064c0.24628,-0.28406 0.58745,-0.46043 0.96322,-0.46043z" fill="#000000" stroke="none" stroke-width="0.72647"/></g><g stroke="none"><path d="M247.28822,163.77428c0,0.69064 -3.38796,1.17695 -5.48019,1.17695c-2.09224,0 -2.46425,0.10217 -2.46425,-0.58847c0,-0.69064 0.37201,-1.91255 2.46425,-1.91255c2.09224,0 5.48019,0.63344 5.48019,1.32408z" fill="#ff8200" stroke-width="NaN"/><path d="M241.68168,163.57661l0.06835,0.00221c0.16865,0.02345 0.33729,0.0469 0.50594,0.07036c0.37288,0.04593 0.76942,0.07979 1.17763,0.10145c1.22189,0.06483 2.54832,0.02039 3.65785,-0.13649c0,0 0.44214,-0.06651 0.4742,0.15195c0.03206,0.21846 -0.41007,0.28497 -0.41007,0.28497c-1.52758,0.20922 -3.42379,0.22033 -4.95981,0.03558c-0.16996,-0.02363 -0.33992,-0.04725 -0.50988,-0.07088l-0.00421,0.00222c0,0 -0.22674,0 -0.22674,-0.22067c0,-0.22068 0.22674,-0.22068 0.22674,-0.22068z" data-paper-data="{&quot;index&quot;:null}" fill="#000000" stroke-width="0.5"/></g><path d="M249.54293,174.44343c-1.14917,-3.12442 -2.26655,-6.37766 -1.63303,-6.61066c0.63352,-0.23302 2.77804,2.64244 3.92721,5.76685c1.14917,3.12442 1.56718,5.84616 0.93366,6.07916c-0.63352,0.23302 -2.07869,-2.11094 -3.22785,-5.23536z" data-paper-data="{&quot;index&quot;:null}" fill="#000000" stroke="#000000" stroke-width="1"/></g></g></svg>