<svg version="1.1" xmlns="http://www.w3.org/2000/svg" xmlns:xlink="http://www.w3.org/1999/xlink" width="23.61013" height="23.23557" viewBox="0,0,23.61013,23.23557"><g transform="translate(-228.37825,-162.56499)"><g data-paper-data="{&quot;isPaintingLayer&quot;:true}" fill-rule="nonzero" stroke-linejoin="miter" stroke-miterlimit="10" stroke-dasharray="" stroke-dashoffset="0" style="mix-blend-mode: normal"><path d="M248.01531,168.6437c2.005,1.7428 3.2466,4.1488 3.2466,6.8048c0,2.6559 -1.2416,5.062 -3.2466,6.8048c-2.0058,1.742 -4.7758,2.8208 -7.832,2.8208c-3.0563,0 -5.8263,-1.0788 -7.8321,-2.8208c-2.005,-1.7428 -3.2465,-4.1489 -3.2465,-6.8048c0,-2.656 1.2415,-5.062 3.2465,-6.8048c2.0058,-1.7421 4.7758,-2.8209 7.8321,-2.8209c3.0562,0 5.8262,1.0788 7.832,2.8209z" data-paper-data="{&quot;index&quot;:null}" fill="#ff9400" stroke="#000000" stroke-width="1.45293" stroke-linecap="butt"/><path d="M238.28861,170.1644c0.0378,1.7394 -0.4994,3.7591 -1.307,5.0536c-0.8075,1.2937 -1.9225,2.0951 -3.1526,2.0951c-1.2302,0 -2.4769,-1.0197 -3.1527,-2.0951c-0.8803,-1.4026 -1.1753,-3.0896 -1.1698,-4.7049c0.0041,-1.5434 0.0816,-3.4921 1.2007,-4.6379c1.5204,-1.4472 4.0514,-3.3414 5.9005,-2.3364c1.9444,1.0573 1.6315,4.3938 1.6809,6.6256z" data-paper-data="{&quot;index&quot;:null}" fill="#ffffff" stroke="#000000" stroke-width="1.38359" stroke-linecap="butt"/><path d="M233.84021,171.892c0.2797,0.3225 0.4526,0.7671 0.4526,1.2582c0,0.4911 -0.1729,0.9357 -0.4526,1.2583c-0.279,0.3218 -0.6655,0.5216 -1.0912,0.5216c-0.4257,0 -0.8122,-0.1998 -1.0911,-0.5216c-0.2797,-0.3226 -0.4526,-0.7672 -0.4526,-1.2583c0,-0.4911 0.1729,-0.9357 0.4526,-1.2582c0.2789,-0.3218 0.6654,-0.5216 1.0911,-0.5216c0.4257,0 0.8122,0.1998 1.0912,0.5216z" data-paper-data="{&quot;index&quot;:null}" fill="#000000" stroke="none" stroke-width="0.72647" stroke-linecap="butt"/><path d="M245.30761,169.9764c0,1.9942 -0.5289,3.9157 -1.3839,5.264c-0.8551,1.3476 -2.0356,2.1823 -3.3381,2.1823c-1.3026,0 -2.4831,-0.8347 -3.3381,-2.1823c-0.8551,-1.3483 -1.3832,-3.4442 -1.3839,-5.264c-0.0008,-2.1547 -0.4599,-5.2523 1.3802,-6.5018c1.8918,-1.1885 4.8601,-0.1635 6.6799,1.2379c1.4188,1.1209 1.3839,3.2698 1.3839,5.2639z" data-paper-data="{&quot;index&quot;:null}" fill="#ffffff" stroke="#000000" stroke-width="1.45293" stroke-linecap="butt"/><path d="M240.84021,171.842c0.2797,0.3225 0.4526,0.7671 0.4526,1.2582c0,0.4911 -0.1729,0.9357 -0.4526,1.2583c-0.279,0.3218 -0.6655,0.5216 -1.0912,0.5216c-0.4257,0 -0.8122,-0.1998 -1.0911,-0.5216c-0.2797,-0.3226 -0.4526,-0.7672 -0.4526,-1.2583c0,-0.4911 0.1729,-0.9357 0.4526,-1.2582c0.2789,-0.3218 0.6654,-0.5216 1.0911,-0.5216c0.4257,0 0.8122,0.1998 1.0912,0.5216z" data-paper-data="{&quot;index&quot;:null}" fill="#000000" stroke="none" stroke-width="0.72647" stroke-linecap="butt"/><path d="M241.29871,179.9427c-1.6723,1.1304 -1.6665,1.2437 -2.6516,1.4529c-0.5049,0.1025 -1.4529,-0.5448 -1.4529,-0.5448" data-paper-data="{&quot;index&quot;:null}" fill="none" stroke="#000000" stroke-width="1.45293" stroke-linecap="round"/></g></g></svg>