<svg version="1.1" xmlns="http://www.w3.org/2000/svg" xmlns:xlink="http://www.w3.org/1999/xlink" width="494.73884" height="337.87522" viewBox="0,0,494.73884,337.87522"><defs><linearGradient x1="240.43904" y1="212.40818" x2="240.43904" y2="307.4082" gradientUnits="userSpaceOnUse" id="color-1"><stop offset="0" stop-color="#29cdff"/><stop offset="1" stop-color="#295eff"/></linearGradient><linearGradient x1="365.66991" y1="150.01473" x2="365.66991" y2="307.56695" gradientUnits="userSpaceOnUse" id="color-2"><stop offset="0" stop-color="#27f6bc"/><stop offset="1" stop-color="#23dba6"/></linearGradient><linearGradient x1="117.27356" y1="70.34725" x2="117.27356" y2="312.40822" gradientUnits="userSpaceOnUse" id="color-3"><stop offset="0" stop-color="#24e2ac"/><stop offset="1" stop-color="#1fc395"/></linearGradient><linearGradient x1="75.99446" y1="208.04229" x2="75.99446" y2="245.02222" gradientUnits="userSpaceOnUse" id="color-4"><stop offset="0" stop-color="#4cbd35"/><stop offset="1" stop-color="#449933"/></linearGradient><linearGradient x1="144.3167" y1="107.28621" x2="144.3167" y2="137.73823" gradientUnits="userSpaceOnUse" id="color-5"><stop offset="0" stop-color="#4cbd35"/><stop offset="1" stop-color="#449933"/></linearGradient><linearGradient x1="397.94196" y1="225.28619" x2="397.94196" y2="245.85164" gradientUnits="userSpaceOnUse" id="color-6"><stop offset="0" stop-color="#4cbd35"/><stop offset="1" stop-color="#449933"/></linearGradient><linearGradient x1="321.92172" y1="270.0899" x2="320.06223" y2="315.93374" gradientUnits="userSpaceOnUse" id="color-7"><stop offset="0" stop-color="#3ccf7b"/><stop offset="1" stop-color="#209268"/></linearGradient><linearGradient x1="118.10098" y1="249.97023" x2="118.10098" y2="294.78706" gradientUnits="userSpaceOnUse" id="color-8"><stop offset="0" stop-color="#3ccf7b"/><stop offset="1" stop-color="#209268"/></linearGradient><linearGradient x1="227.67268" y1="271.89579" x2="227.67268" y2="452.67761" gradientUnits="userSpaceOnUse" id="color-9"><stop offset="0" stop-color="#000000" stop-opacity="0"/><stop offset="1" stop-color="#000000"/></linearGradient></defs><g transform="translate(13.44678,-29.72859)"><g data-paper-data="{&quot;isPaintingLayer&quot;:true}" fill-rule="nonzero" stroke="none" stroke-width="0" stroke-linecap="butt" stroke-linejoin="miter" stroke-miterlimit="10" stroke-dasharray="" stroke-dashoffset="0" style="mix-blend-mode: normal"><g><path d="M0.08657,307.4082v-95h480.70492v95z" data-paper-data="{&quot;origPos&quot;:null}" fill="url(#color-1)"/><path d="M275.46502,307.56695c0,0 40.41946,-157.55219 90.2049,-157.55219c49.78544,0 90.2049,157.55219 90.2049,157.55219z" data-paper-data="{&quot;origPos&quot;:null,&quot;origRot&quot;:0}" fill="url(#color-2)"/><path d="M0.02552,312.40822c0,0 52.53709,-242.06097 117.24805,-242.06097c64.71096,0 117.24805,242.06097 117.24805,242.06097z" data-paper-data="{&quot;origPos&quot;:null,&quot;origRot&quot;:0}" fill="url(#color-3)"/><g data-paper-data="{&quot;origPos&quot;:null}"><path d="M72.52353,260.40815v-26.18293h6.17054v26.18293z" data-paper-data="{&quot;origPos&quot;:null}" fill="#818f45"/><path d="M91.80645,234.61026c0,11.27063 -7.07928,10.39616 -15.812,10.39616c-8.73272,0 -15.812,0.87447 -15.812,-10.39616c0,-11.27063 7.07928,-26.56797 15.812,-26.56797c8.73272,0 15.812,15.29734 15.812,26.56797z" data-paper-data="{&quot;origPos&quot;:null}" fill="url(#color-4)"/></g><g data-paper-data="{&quot;origPos&quot;:null}"><path d="M141.45848,150.40816v-21.56097h5.08128v21.56097z" data-paper-data="{&quot;origPos&quot;:null}" fill="#818f45"/><path d="M157.33748,129.16426c0,9.28108 -5.82959,8.56097 -13.02078,8.56097c-7.19118,0 -13.02078,0.7201 -13.02078,-8.56097c0,-9.28108 5.82959,-21.87805 13.02078,-21.87805c7.19118,0 13.02078,12.59697 13.02078,21.87805z" data-paper-data="{&quot;origPos&quot;:null}" fill="url(#color-5)"/></g><g data-paper-data="{&quot;origPos&quot;:null}"><path d="M396.01169,254.40815v-14.56097h3.43159v14.56097z" data-paper-data="{&quot;origPos&quot;:null}" fill="#818f45"/><path d="M406.73541,240.0613c0,6.26788 -3.93695,5.78156 -8.79344,5.78156c-4.85649,0 -8.79344,0.48632 -8.79344,-5.78156c0,-6.26788 3.93695,-14.77511 8.79344,-14.77511c4.85649,0 8.79344,8.50723 8.79344,14.77511z" data-paper-data="{&quot;origPos&quot;:null}" fill="url(#color-6)"/></g></g><path d="M305.38025,308.86939c0,0 -15.91012,-17.9101 -3.14444,-27.26956c8.04219,-5.89632 23.43333,0.07968 23.43333,0.07968c0,0 10.76141,-14.23579 25.35361,-11.82299c14.5922,2.41281 12.96351,17.42095 12.96351,17.42095c0,0 14.23727,-7.14466 22.70476,-2.85432c9.79474,4.96283 -5.29074,23.62879 -5.29074,23.62879z" data-paper-data="{&quot;index&quot;:null,&quot;origRot&quot;:0}" fill="url(#color-7)"/><path d="M60.95311,287.90717c0,0 -18.39539,-17.98213 -8.37328,-22.97853c8.66405,-4.31934 23.65269,3.60994 23.65269,3.60994c0,0 -2.02739,-15.80381 12.70099,-18.37528c14.72839,-2.57146 24.93894,11.19796 24.93894,11.19796c0,0 5.56302,-11.29276 17.41626,-10.61723c11.85324,0.67553 12.87256,12.84062 12.87256,12.84062c0,0 4.63386,-12.45611 17.10801,-11.08434c9.23641,1.01572 6.78973,11.46597 6.78973,11.46597c0,0 8.92584,-4.44769 16.49298,-2.35453c4.59944,1.27227 -1.68382,20.68959 -1.68382,20.68959z" fill="url(#color-8)"/><path d="M-1.00921,360.57438l-1.24376,-55.64005c0,0 80.51546,-28.37032 137.89579,-28.37032c63.7625,0 112.0144,11.8234 174.91151,22.9038c71.86343,12.65996 169.07939,-0.75226 169.07939,-0.75226l1.65834,61.85884z" fill="#3ac860"/><path d="M-13.44678,367.60381v-95.70802h482.2389v95.70802z" fill="url(#color-9)"/><path d="M237.97875,32.06002c-0.06726,0 -0.12178,-0.05452 -0.12178,-0.12178c0,-0.06726 0.05452,-0.12178 0.12178,-0.12178c0.06726,0 0.12178,0.05452 0.12178,0.12178c0,0.06726 -0.05452,0.12178 -0.12178,0.12178z" fill="none"/><path d="M234.98731,31.67129c0,-1.07293 1.11354,-1.9427 2.48716,-1.9427c1.37362,0 2.48716,0.86978 2.48716,1.9427c0,1.07293 -1.11354,1.9427 -2.48716,1.9427c-1.37362,0 -2.48716,-0.86978 -2.48716,-1.9427z" fill="none"/></g></g></svg>