<svg version="1.1" xmlns="http://www.w3.org/2000/svg" xmlns:xlink="http://www.w3.org/1999/xlink" width="28.17789" height="38.15598" viewBox="0,0,28.17789,38.15598"><g transform="translate(-226.33849,-155.0042)"><g data-paper-data="{&quot;isPaintingLayer&quot;:true}" fill-rule="nonzero" stroke-linecap="butt" stroke-linejoin="miter" stroke-miterlimit="10" stroke-dasharray="" stroke-dashoffset="0" style="mix-blend-mode: normal"><path d="M251.61016,177.66766c1.80842,2.79503 2.81501,5.3581 2.24828,5.72479c-0.56673,0.36668 -2.49218,-1.60187 -4.3006,-4.3969c-1.80842,-2.79503 -3.89178,-6.01156 -3.32504,-6.37824c0.56673,-0.36668 3.56894,2.25534 5.37737,5.05036z" fill="#000000" stroke="#000000" stroke-width="1"/><path d="M243.6162,189.7244c0,-0.75405 1.65555,-1.36533 3.69777,-1.36533c2.04222,0 4.83555,1.63528 4.83555,2.38933c0,0.20997 -0.26388,0.50174 -0.63293,0.80309c-0.80419,0.65664 -2.10775,1.35869 -2.26839,1.35869c-2.04222,0 -5.632,-2.43172 -5.632,-3.18578z" data-paper-data="{&quot;index&quot;:null}" fill="#ff8200" stroke="#000000" stroke-width="0.5"/><path d="M230.5461,191.97208c-0.23437,0 -2.90133,-1.49426 -2.90133,-2.16178c0,-0.75406 2.79333,-2.38934 4.83555,-2.38934c2.04223,0 3.69778,0.61129 3.69778,1.36534c0,0.75406 -3.58978,3.18578 -5.632,3.18578z" fill="#ff8200" stroke="#000000" stroke-width="0.5"/><path d="M229.00134,180.4158c1.22421,-14.84169 4.92889,-18.36925 10.86174,-18.36925c5.93285,0 9.36903,3.75148 10.62301,18.36925c1.1911,13.88486 -22.73872,15.20257 -21.48474,0z" fill="#000000" stroke="#000000" stroke-width="1"/><path d="M241.46064,188.79907c-3.03757,0 -5.5,-3.27574 -5.5,-8.24597c0,-4.97023 2.5383,-7.74368 5.57586,-7.74368c3.03756,0 5.42414,2.77345 5.42414,7.74368c0,4.97023 -2.46244,8.24597 -5.5,8.24597z" fill="#ffffff" stroke="#000000" stroke-width="0"/><path d="M227.13955,184.54509c-0.63488,-0.22928 -0.23289,-2.95342 0.89788,-6.08455c1.13077,-3.13113 3.25833,-6.01915 3.89322,-5.78986c0.63488,0.22928 -0.46333,3.48903 -1.5941,6.62016c-1.13076,3.13113 -2.56211,5.48354 -3.19699,5.25426z" data-paper-data="{&quot;index&quot;:null}" fill="#000000" stroke="#000000" stroke-width="1"/><g><path d="M240.69027,156.14657c1.63223,-0.88713 3.86638,0.78491 5.20846,2.06238c0.98784,1.01141 1.05625,2.73156 1.05987,4.09395c0.00486,1.42585 -0.25554,2.915 -1.0326,4.15309c-0.59654,0.94928 -1.69702,1.84938 -2.78294,1.84938c-1.08583,0 -2.07005,-0.70741 -2.78285,-1.84938c-0.71288,-1.14267 -1.18707,-2.9255 -1.15371,-4.4609c0.04361,-1.97004 -0.2326,-4.91522 1.48376,-5.84852z" fill="#ffffff" stroke="#000000" stroke-width="1.25"/><path d="M244.0964,163.05964c0.37577,0 0.71694,0.17636 0.96313,0.46042c0.24689,0.28467 0.39952,0.67713 0.39952,1.11064c0,0.4335 -0.15263,0.82596 -0.39952,1.11072c-0.24619,0.28406 -0.58736,0.46042 -0.96313,0.46042c-0.37577,0 -0.71694,-0.17636 -0.96322,-0.46042c-0.24689,-0.28476 -0.39952,-0.67722 -0.39952,-1.11072c0,-0.4335 0.15262,-0.82596 0.39952,-1.11064c0.24628,-0.28406 0.58745,-0.46042 0.96322,-0.46042z" fill="#000000" stroke="none" stroke-width="0.72647"/><path d="M234.23232,157.18261c1.60636,-1.23704 4.22654,-2.14182 5.89646,-1.09271c1.62428,1.10296 1.21902,3.83725 1.21832,5.73924c-0.00062,1.60637 -0.46678,3.45645 -1.22159,4.64662c-0.75472,1.18955 -1.79677,1.92635 -2.9466,1.92635c-1.14974,0 -2.19178,-0.7368 -2.94659,-1.92635c-0.75472,-1.19017 -1.22159,-2.88631 -1.22159,-4.64662c0,-1.76022 -0.0308,-3.6571 1.22159,-4.64653z" fill="#ffffff" stroke="#000000" stroke-width="1.25"/><path d="M237.91739,163.0155c0.37577,0 0.71694,0.17637 0.96313,0.46043c0.24689,0.28467 0.39952,0.67713 0.39952,1.11064c0,0.4335 -0.15262,0.82595 -0.39952,1.11072c-0.24619,0.28406 -0.58736,0.46043 -0.96313,0.46043c-0.37577,0 -0.71694,-0.17637 -0.96322,-0.46043c-0.24689,-0.28476 -0.39952,-0.67722 -0.39952,-1.11072c0,-0.4335 0.15263,-0.82596 0.39952,-1.11064c0.24628,-0.28406 0.58745,-0.46043 0.96322,-0.46043z" fill="#000000" stroke="none" stroke-width="0.72647"/></g><g stroke="none"><path d="M247.08822,170.00286c0,0.69064 -3.38796,1.17695 -5.48019,1.17695c-2.09224,0 -2.46425,0.10217 -2.46425,-0.58847c0,-0.69064 0.37201,-1.91255 2.46425,-1.91255c2.09224,0 5.48019,0.63344 5.48019,1.32408z" fill="#ff8200" stroke-width="NaN"/><path d="M241.48168,169.8052l0.06835,0.00221c0.16865,0.02345 0.33729,0.0469 0.50594,0.07036c0.37288,0.04593 0.76942,0.07979 1.17763,0.10145c1.22189,0.06483 2.54832,0.02039 3.65785,-0.13649c0,0 0.44214,-0.06651 0.4742,0.15195c0.03206,0.21846 -0.41007,0.28497 -0.41007,0.28497c-1.52758,0.20922 -3.42379,0.22033 -4.95981,0.03558c-0.16996,-0.02363 -0.33992,-0.04725 -0.50988,-0.07088l-0.00421,0.00222c0,0 -0.22674,0 -0.22674,-0.22067c0,-0.22068 0.22674,-0.22068 0.22674,-0.22068z" data-paper-data="{&quot;index&quot;:null}" fill="#000000" stroke-width="0.5"/></g></g></g></svg>