<svg viewBox="0,0,481,111.12717" height="111.12717" width="481" xmlns:xlink="http://www.w3.org/1999/xlink" xmlns="http://www.w3.org/2000/svg" version="1.1"><defs><linearGradient id="color-1" gradientUnits="userSpaceOnUse" y2="318.02173" x2="319.53947" y1="274.91202" x1="321.39008"><stop stop-color="#3acab7" offset="0"></stop><stop stop-color="#24a367" offset="1"></stop></linearGradient><linearGradient id="color-2" gradientUnits="userSpaceOnUse" y2="298.13624" x2="118.54186" y1="255.99228" x1="118.54186"><stop stop-color="#3acab7" offset="0"></stop><stop stop-color="#24a367" offset="1"></stop></linearGradient><linearGradient id="color-3" gradientUnits="userSpaceOnUse" y2="360.00001" x2="240" y1="281.00001" x1="240"><stop stop-color="#ffffff" offset="0"></stop><stop stop-color="#bce1e3" offset="1"></stop></linearGradient><linearGradient id="color-4" gradientUnits="userSpaceOnUse" y2="447.00007" x2="238.96897" y1="277.00007" x1="238.96897"><stop stop-opacity="0" stop-color="#5c6471" offset="0"></stop><stop stop-color="#5c6471" offset="1"></stop></linearGradient></defs><g transform="translate(1,-255.8729)"><g style="mix-blend-mode: normal" stroke-dashoffset="0" stroke-dasharray="" stroke-miterlimit="10" stroke-linejoin="miter" stroke-linecap="butt" stroke-width="0" stroke="none" fill-rule="nonzero" data-paper-data="{&quot;isPaintingLayer&quot;:true}"><path fill="url(#color-1)" data-paper-data="{&quot;origPos&quot;:null,&quot;index&quot;:null,&quot;origRot&quot;:0}" d="M304.92755,311.37871c0,0 -15.83421,-16.84194 -3.12944,-25.64321c8.00382,-5.54467 23.32152,0.07493 23.32152,0.07493c0,0 10.71006,-13.38677 25.23264,-11.11787c14.52258,2.26891 12.90166,16.38197 12.90166,16.38197c0,0 14.16933,-6.71855 22.59642,-2.68409c9.74801,4.66685 -5.26549,22.21957 -5.26549,22.21957z"></path><path fill="url(#color-2)" data-paper-data="{&quot;origPos&quot;:null}" d="M61.66667,291.66668c0,0 -18.30762,-16.90968 -8.33333,-21.60809c8.62271,-4.06174 23.53983,3.39464 23.53983,3.39464c0,0 -2.01772,-14.86127 12.64039,-17.27938c14.65811,-2.4181 24.81995,10.53011 24.81995,10.53011c0,0 5.53647,-10.61926 17.33316,-9.98402c11.79669,0.63524 12.81114,12.07481 12.81114,12.07481c0,0 4.61175,-11.71323 17.02638,-10.42327c9.19234,0.95514 6.75733,10.78214 6.75733,10.78214c0,0 8.88325,-4.18243 16.41428,-2.2141c4.57749,1.19639 -1.67579,19.45566 -1.67579,19.45566z"></path><path fill="url(#color-3)" data-paper-data="{&quot;origPos&quot;:null}" d="M0,360.00001v-57c0,0 78.89346,-22 136,-22c63.45826,0 111.47993,11.11825 174.07693,21.53781c71.52054,11.90492 169.92307,0.46219 169.92307,0.46219v57z"></path><path fill="url(#color-4)" d="M-1,367.00007v-90h479.93793v90z"></path></g></g></svg>