<svg version="1.1" xmlns="http://www.w3.org/2000/svg" xmlns:xlink="http://www.w3.org/1999/xlink" width="362.40401" height="362.00106" viewBox="0,0,362.40401,362.00106"><defs><radialGradient cx="240.00001" cy="180.00005" r="180.5" gradientUnits="userSpaceOnUse" id="color-1"><stop offset="0" stop-color="#2a437d"/><stop offset="1" stop-color="#61d4dd"/></radialGradient><radialGradient cx="240.00002" cy="180.00005" r="180.5" gradientUnits="userSpaceOnUse" id="color-2"><stop offset="0" stop-color="#2a437d"/><stop offset="1" stop-color="#2a437d" stop-opacity="0"/></radialGradient><radialGradient cx="240.00002" cy="180.00005" r="180.5" gradientUnits="userSpaceOnUse" id="color-3"><stop offset="0" stop-color="#2a437d"/><stop offset="1" stop-color="#2a437d" stop-opacity="0"/></radialGradient><radialGradient cx="240.00003" cy="180.00004" r="180.5" gradientUnits="userSpaceOnUse" id="color-4"><stop offset="0" stop-color="#2a437d"/><stop offset="1" stop-color="#2a437d" stop-opacity="0"/></radialGradient><radialGradient cx="240.00003" cy="180.00005" r="180.5" gradientUnits="userSpaceOnUse" id="color-5"><stop offset="0" stop-color="#2a437d"/><stop offset="1" stop-color="#2a437d" stop-opacity="0"/></radialGradient><radialGradient cx="240.00001" cy="180" r="180.5" gradientUnits="userSpaceOnUse" id="color-6"><stop offset="0" stop-color="#2a437d"/><stop offset="1" stop-color="#2a437d" stop-opacity="0"/></radialGradient><radialGradient cx="241.69798" cy="8.02978" r="36.26008" gradientUnits="userSpaceOnUse" id="color-7"><stop offset="0" stop-color="#d0edff"/><stop offset="1" stop-color="#d0edff" stop-opacity="0"/></radialGradient><radialGradient cx="135.34715" cy="46.33663" r="36.26008" gradientUnits="userSpaceOnUse" id="color-8"><stop offset="0" stop-color="#d0edff"/><stop offset="1" stop-color="#d0edff" stop-opacity="0"/></radialGradient><radialGradient cx="308.23107" cy="30.35306" r="29.15309" gradientUnits="userSpaceOnUse" id="color-9"><stop offset="0" stop-color="#d0edff"/><stop offset="1" stop-color="#d0edff" stop-opacity="0"/></radialGradient><radialGradient cx="400.04761" cy="236.50772" r="36.26007" gradientUnits="userSpaceOnUse" id="color-10"><stop offset="0" stop-color="#d0edff"/><stop offset="1" stop-color="#d0edff" stop-opacity="0"/></radialGradient><radialGradient cx="398.19291" cy="125.76175" r="36.26008" gradientUnits="userSpaceOnUse" id="color-11"><stop offset="0" stop-color="#d0edff"/><stop offset="1" stop-color="#d0edff" stop-opacity="0"/></radialGradient><radialGradient cx="333.78174" cy="322.19659" r="29.1531" gradientUnits="userSpaceOnUse" id="color-12"><stop offset="0" stop-color="#d0edff"/><stop offset="1" stop-color="#d0edff" stop-opacity="0"/></radialGradient><radialGradient cx="76.38467" cy="130.18428" r="29.1531" gradientUnits="userSpaceOnUse" id="color-13"><stop offset="0" stop-color="#d0edff"/><stop offset="1" stop-color="#d0edff" stop-opacity="0"/></radialGradient><radialGradient cx="143.94448" cy="322.76811" r="36.26007" gradientUnits="userSpaceOnUse" id="color-14"><stop offset="0" stop-color="#d0edff"/><stop offset="1" stop-color="#d0edff" stop-opacity="0"/></radialGradient><radialGradient cx="74.5366" cy="229.04038" r="36.26008" gradientUnits="userSpaceOnUse" id="color-15"><stop offset="0" stop-color="#d0edff"/><stop offset="1" stop-color="#d0edff" stop-opacity="0"/></radialGradient><radialGradient cx="225.47822" cy="346.70991" r="29.15309" gradientUnits="userSpaceOnUse" id="color-16"><stop offset="0" stop-color="#d0edff"/><stop offset="1" stop-color="#d0edff" stop-opacity="0"/></radialGradient><radialGradient cx="192.11285" cy="34.5581" r="36.26008" gradientUnits="userSpaceOnUse" id="color-17"><stop offset="0" stop-color="#d0edff"/><stop offset="1" stop-color="#d0edff" stop-opacity="0"/></radialGradient><radialGradient cx="364.99359" cy="68.15994" r="29.1531" gradientUnits="userSpaceOnUse" id="color-18"><stop offset="0" stop-color="#d0edff"/><stop offset="1" stop-color="#d0edff" stop-opacity="0"/></radialGradient><radialGradient cx="361.09152" cy="274.7392" r="36.26007" gradientUnits="userSpaceOnUse" id="color-19"><stop offset="0" stop-color="#d0edff"/><stop offset="1" stop-color="#d0edff" stop-opacity="0"/></radialGradient><radialGradient cx="283.31579" cy="324.83136" r="29.1531" gradientUnits="userSpaceOnUse" id="color-20"><stop offset="0" stop-color="#d0edff"/><stop offset="1" stop-color="#d0edff" stop-opacity="0"/></radialGradient><radialGradient cx="114.94354" cy="96.89018" r="29.15309" gradientUnits="userSpaceOnUse" id="color-21"><stop offset="0" stop-color="#d0edff"/><stop offset="1" stop-color="#d0edff" stop-opacity="0"/></radialGradient><radialGradient cx="117.54408" cy="273.31699" r="36.26007" gradientUnits="userSpaceOnUse" id="color-22"><stop offset="0" stop-color="#d0edff"/><stop offset="1" stop-color="#d0edff" stop-opacity="0"/></radialGradient><radialGradient cx="388.19286" cy="181.08115" r="36.26008" gradientUnits="userSpaceOnUse" id="color-23"><stop offset="0" stop-color="#d0edff"/><stop offset="1" stop-color="#d0edff" stop-opacity="0"/></radialGradient><radialGradient cx="84.43132" cy="178.47174" r="36.26008" gradientUnits="userSpaceOnUse" id="color-24"><stop offset="0" stop-color="#d0edff"/><stop offset="1" stop-color="#d0edff" stop-opacity="0"/></radialGradient><radialGradient cx="190.48407" cy="322.68147" r="29.15309" gradientUnits="userSpaceOnUse" id="color-25"><stop offset="0" stop-color="#d0edff"/><stop offset="1" stop-color="#d0edff" stop-opacity="0"/></radialGradient><radialGradient cx="329.5051" cy="65.63827" r="29.15309" gradientUnits="userSpaceOnUse" id="color-26"><stop offset="0" stop-color="#d0edff"/><stop offset="1" stop-color="#d0edff" stop-opacity="0"/></radialGradient></defs><g transform="translate(-58.596,1.00101)"><g data-paper-data="{&quot;isPaintingLayer&quot;:true}" fill-rule="nonzero" stroke-linecap="butt" stroke-linejoin="miter" stroke-miterlimit="10" stroke-dasharray="" stroke-dashoffset="0" style="mix-blend-mode: normal"><path d="M59.096,179.99899c0,-99.6874 80.8126,-180.5 180.5,-180.5c99.6874,0 180.5,80.8126 180.5,180.5c0,99.6874 -80.8126,180.5 -180.5,180.5c-99.6874,0 -180.5,-80.8126 -180.5,-180.5z" fill="none" stroke="#c0e7f0" stroke-width="1"/><path d="M59.50001,180.00005c0,-99.6874 80.8126,-180.5 180.5,-180.5c99.6874,0 180.5,80.8126 180.5,180.5c0,99.6874 -80.8126,180.5 -180.5,180.5c-99.6874,0 -180.5,-80.8126 -180.5,-180.5z" fill="url(#color-1)" stroke="#c0e7f0" stroke-width="1"/><path d="M59.50001,180.00005c0,-99.6874 80.8126,-180.5 180.5,-180.5c99.6874,0 180.5,80.8126 180.5,180.5c0,99.6874 -80.8126,180.5 -180.5,180.5c-99.6874,0 -180.5,-80.8126 -180.5,-180.5z" fill="url(#color-2)" stroke="#c0e7f0" stroke-width="0"/><path d="M59.50001,180.00005c0,-99.6874 80.8126,-180.5 180.5,-180.5c99.6874,0 180.5,80.8126 180.5,180.5c0,99.6874 -80.8126,180.5 -180.5,180.5c-99.6874,0 -180.5,-80.8126 -180.5,-180.5z" fill="url(#color-3)" stroke="#c0e7f0" stroke-width="0"/><path d="M59.50002,180.00004c0,-99.6874 80.8126,-180.5 180.5,-180.5c99.6874,0 180.5,80.8126 180.5,180.5c0,99.6874 -80.8126,180.5 -180.5,180.5c-99.6874,0 -180.5,-80.8126 -180.5,-180.5z" fill="url(#color-4)" stroke="#c0e7f0" stroke-width="0"/><path d="M59.50002,180.00005c0,-99.6874 80.8126,-180.5 180.5,-180.5c99.6874,0 180.5,80.8126 180.5,180.5c0,99.6874 -80.8126,180.5 -180.5,180.5c-99.6874,0 -180.5,-80.8126 -180.5,-180.5z" fill="url(#color-5)" stroke="#c0e7f0" stroke-width="0"/><path d="M59.5,180c0,-99.6874 80.8126,-180.5 180.5,-180.5c99.6874,0 180.5,80.8126 180.5,180.5c0,99.6874 -80.8126,180.5 -180.5,180.5c-99.6874,0 -180.5,-80.8126 -180.5,-180.5z" fill="url(#color-6)" stroke="#c0e7f0" stroke-width="0"/><path d="M241.23992,3.41043c8.53874,0 16.27616,0.69014 21.87884,1.80525c5.60298,1.1148 9.07088,2.65459 9.07088,4.3539c0,1.69931 -3.46791,3.2391 -9.07088,4.3539c-5.60267,1.11511 -13.3401,1.80525 -21.87884,1.80525c-8.53874,0 -16.27616,-0.69014 -21.87884,-1.80525c-5.60297,-1.11481 -9.07089,-2.65459 -9.07089,-4.3539c0,-1.69931 3.46791,-3.23909 9.07089,-4.3539c5.60267,-1.11511 13.3401,-1.80525 21.87884,-1.80525z" fill="url(#color-7)" stroke="none" stroke-width="1"/><path d="M135.1213,40.70029c6.7907,-5.17654 13.36252,-9.31843 18.49423,-11.82817c5.13178,-2.51017 8.82323,-3.38799 9.85342,-2.03657c1.03019,1.35142 -0.79429,4.67838 -4.57439,8.96172c-3.77967,4.28339 -9.51471,9.52298 -16.3054,14.69953c-6.79069,5.17654 -13.36252,9.31843 -18.49423,11.82818c-5.13178,2.51017 -8.82322,3.38799 -9.85341,2.03657c-1.0302,-1.35143 0.79429,-4.67837 4.57439,-8.96171c3.77967,-4.28339 9.5147,-9.523 16.3054,-14.69954z" data-paper-data="{&quot;origRot&quot;:0}" fill="url(#color-8)" stroke="none" stroke-width="1"/><path d="M311.08673,24.89376c7.66318,3.7664 14.30279,7.79872 18.83908,11.27081c4.5367,3.47196 6.96983,6.38352 6.22027,7.90859c-0.74956,1.52506 -4.54106,1.37728 -10.06124,-0.09369c-5.52004,-1.47055 -12.7685,-4.26413 -20.43166,-8.03053c-7.66318,-3.7664 -14.30279,-7.79872 -18.83907,-11.27081c-4.5367,-3.47196 -6.96984,-6.38353 -6.22027,-7.90859c0.74956,-1.52506 4.54106,-1.37728 10.06124,0.09369c5.52004,1.47056 12.7685,4.26413 20.43166,8.03054z" data-paper-data="{&quot;origRot&quot;:0}" fill="url(#color-9)" stroke="none" stroke-width="1"/><path d="M404.57218,237.5453c-2.7205,8.09376 -5.83985,15.20808 -8.68189,20.1635c-2.84184,4.9558 -5.40628,7.75241 -7.01704,7.211c-1.61075,-0.5414 -1.9654,-4.31919 -1.23698,-9.98535c0.72805,-5.66599 2.53906,-13.22008 5.25955,-21.31383c2.7205,-8.09376 5.83985,-15.20809 8.68189,-20.16351c2.84184,-4.9558 5.40629,-7.7524 7.01704,-7.211c1.61075,0.5414 1.96539,4.31919 1.23697,9.98535c-0.72805,5.66599 -2.53905,13.22008 -5.25955,21.31383z" data-paper-data="{&quot;origRot&quot;:0}" fill="url(#color-10)" stroke="none" stroke-width="1"/><path d="M403.63399,127.2496c2.8826,8.03745 4.84507,15.55362 5.68684,21.20382c0.84216,5.65039 0.5635,9.43453 -1.03605,10.0082c-1.59955,0.57368 -4.21967,-2.17083 -7.16054,-7.06852c-2.94106,-4.8973 -6.20276,-11.94749 -9.08537,-19.98495c-2.8826,-8.03745 -4.84506,-15.55363 -5.68683,-21.20383c-0.84216,-5.65039 -0.5635,-9.43453 1.03604,-10.0082c1.59955,-0.57367 4.21967,2.17083 7.16055,7.06852c2.94106,4.8973 6.20276,11.9475 9.08536,19.98496z" data-paper-data="{&quot;origRot&quot;:0}" fill="url(#color-11)" stroke="none" stroke-width="1"/><path d="M337.15463,327.3524c-7.02587,4.85255 -13.78461,8.68185 -19.02832,10.94829c-5.2438,2.26686 -8.97233,2.97071 -9.93805,1.57247c-0.96571,-1.39824 1.01269,-4.63601 4.98942,-8.73745c3.97629,-4.10152 9.95063,-9.06655 16.9765,-13.91908c7.02587,-4.85255 13.78461,-8.68185 19.02832,-10.94828c5.2438,-2.26686 8.97234,-2.97071 9.93805,-1.57247c0.96571,1.39824 -1.0127,4.63601 -4.98943,8.73745c-3.97629,4.10152 -9.95063,9.06654 -16.97649,13.91908z" data-paper-data="{&quot;origRot&quot;:0}" fill="url(#color-12)" stroke="none" stroke-width="1"/><path d="M78.31979,108.11288c2.64641,-5.06287 5.09984,-7.95735 6.73048,-7.47917c1.63065,0.47818 2.13234,4.23926 1.62545,9.92953c-0.50652,5.69006 -2.02156,13.30903 -4.42434,21.50273c-2.40277,8.19369 -5.24231,15.42426 -7.88894,20.48675c-2.64641,5.06287 -5.09983,7.95734 -6.73048,7.47916c-1.63065,-0.47818 -2.13234,-4.23925 -1.62545,-9.92952c0.50652,-5.69006 2.02156,-13.30903 4.42434,-21.50273c2.40277,-8.19369 5.24231,-15.42426 7.88893,-20.48675z" data-paper-data="{&quot;origRot&quot;:0,&quot;index&quot;:null}" fill="url(#color-13)" stroke="none" stroke-width="1"/><path d="M124.1681,312.00942c-3.89755,-4.17675 -5.81368,-7.45177 -4.8214,-8.83128c0.99228,-1.3795 4.70667,-0.60448 9.90616,1.76226c5.19942,2.36632 11.88368,6.32418 18.81545,11.31022c6.93177,4.98604 12.81006,10.06441 16.70717,14.24123c3.89755,4.17675 5.81367,7.45178 4.82139,8.83128c-0.99228,1.3795 -4.70667,0.60447 -9.90615,-1.76227c-5.19942,-2.36632 -11.88368,-6.32419 -18.81545,-11.31022c-6.93177,-4.98604 -12.81005,-10.06442 -16.70717,-14.24123z" data-paper-data="{&quot;origRot&quot;:0,&quot;index&quot;:null}" fill="url(#color-14)" stroke="none" stroke-width="1"/><path d="M65.43544,212.52997c-0.89641,-5.64204 -0.65412,-9.42868 0.93984,-10.01769c1.59396,-0.58901 4.24033,2.13019 7.22812,6.9994c2.98797,4.86882 6.31727,11.88736 9.27695,19.89675c2.95969,8.00939 4.99427,15.50636 5.89028,21.14821c0.89641,5.64204 0.65413,9.42868 -0.93984,10.01769c-1.59396,0.58901 -4.24034,-2.13019 -7.22813,-6.9994c-2.98797,-4.86882 -6.31727,-11.88735 -9.27695,-19.89674c-2.95969,-8.00939 -4.99427,-15.50637 -5.89028,-21.14822z" data-paper-data="{&quot;origRot&quot;:0,&quot;index&quot;:null}" fill="url(#color-15)" stroke="none" stroke-width="1"/><path d="M203.40924,348.67261c-5.44829,-1.71823 -8.72793,-3.62644 -8.54291,-5.31565c0.18501,-1.68921 3.79998,-2.84225 9.49103,-3.34037c5.69077,-0.49846 13.45734,-0.34205 21.94531,0.58765c8.48797,0.9297 16.10425,2.45819 21.55221,4.17669c5.44829,1.71823 8.72791,3.62644 8.5429,5.31565c-0.18502,1.68921 -3.79996,2.84225 -9.49101,3.34039c-5.69077,0.49846 -13.45735,0.34204 -21.94532,-0.58767c-8.48797,-0.9297 -16.10425,-2.45818 -21.5522,-4.17669z" data-paper-data="{&quot;origRot&quot;:0,&quot;index&quot;:null}" fill="url(#color-16)" stroke="none" stroke-width="1"/><path d="M193.54757,29.10279c8.00897,-2.96082 15.50565,-4.99646 21.14737,-5.89327c5.64191,-0.8972 9.42858,-0.65545 10.01782,0.93843c0.58924,1.59388 -2.12959,4.24063 -6.99838,7.22911c-4.86839,2.98866 -11.88646,6.31894 -19.89543,9.27976c-8.00897,2.96082 -15.50565,4.99646 -21.14738,5.89327c-5.64191,0.8972 -9.42858,0.65545 -10.01782,-0.93843c-0.58924,-1.59388 2.12959,-4.24064 6.99838,-7.22912c4.86839,-2.98866 11.88647,-6.31894 19.89544,-9.27977z" data-paper-data="{&quot;origRot&quot;:0}" fill="url(#color-17)" stroke="none" stroke-width="1"/><path d="M369.48462,63.94216c5.99999,6.07538 10.94587,12.06556 14.08933,16.83547c3.14389,4.76991 4.48515,8.31933 3.27607,9.5134c-1.20908,1.19407 -4.74146,-0.19139 -9.47174,-3.39462c-4.73028,-3.20278 -10.65825,-8.22309 -16.65822,-14.29846c-5.99999,-6.07538 -10.94587,-12.06556 -14.08932,-16.83547c-3.14389,-4.76991 -4.48516,-8.31934 -3.27608,-9.5134c1.20908,-1.19407 4.74147,0.1914 9.47174,3.39462c4.73028,3.20278 10.65824,8.22309 16.65821,14.29846z" data-paper-data="{&quot;origRot&quot;:0}" fill="url(#color-18)" stroke="none" stroke-width="1"/><path d="M365.15277,276.98743c-4.85245,7.02593 -9.81739,13.00032 -13.91887,16.97667c-4.10139,3.97677 -7.33914,5.95524 -8.73738,4.98954c-1.39824,-0.9657 -0.69446,-4.69424 1.57234,-9.93807c2.26638,-5.24375 6.09559,-12.00254 10.94804,-19.02847c4.85245,-7.02593 9.81739,-13.00033 13.91887,-16.97667c4.10139,-3.97677 7.33915,-5.95523 8.73739,-4.98953c1.39824,0.9657 0.69445,4.69423 -1.57235,9.93806c-2.26638,5.24375 -6.09559,12.00254 -10.94804,19.02848z" data-paper-data="{&quot;origRot&quot;:0}" fill="url(#color-19)" stroke="none" stroke-width="1"/><path d="M285.11018,330.72536c-8.10354,2.69127 -15.66411,4.475 -21.33268,5.18259c-5.66877,0.70797 -9.44524,0.33969 -9.98084,-1.27301c-0.53559,-1.6127 2.27024,-4.16702 7.23628,-6.99096c4.96565,-2.82413 12.0912,-5.9178 20.19472,-8.60906c8.10354,-2.69127 15.66411,-4.475 21.33268,-5.18257c5.66877,-0.70797 9.44525,-0.33969 9.98084,1.27301c0.53559,1.6127 -2.27025,4.16702 -7.23629,6.99096c-4.96565,2.82413 -12.09119,5.9178 -20.1947,8.60904z" data-paper-data="{&quot;origRot&quot;:0}" fill="url(#color-20)" stroke="none" stroke-width="1"/><path d="M123.29567,76.36862c4.02061,-4.05842 7.21793,-6.10157 8.63531,-5.16418c1.41737,0.93739 0.78868,4.67934 -1.37224,9.96768c-2.1605,5.28825 -5.85308,12.12264 -10.56331,19.24469c-4.71022,7.12206 -9.55407,13.19506 -13.57478,17.25305c-4.02061,4.05842 -7.21793,6.10156 -8.63532,5.16417c-1.41738,-0.93739 -0.78869,-4.67933 1.37224,-9.96767c2.1605,-5.28825 5.85308,-12.12264 10.56331,-19.2447c4.71022,-7.12206 9.55407,-13.19506 13.57478,-17.25304z" data-paper-data="{&quot;origRot&quot;:0,&quot;index&quot;:null}" fill="url(#color-21)" stroke="none" stroke-width="1"/><path d="M100.87922,258.17967c-2.79717,-4.98116 -3.88294,-8.61687 -2.59212,-9.72205c1.29083,-1.10518 4.7159,0.52768 9.20673,4.05877c4.49087,3.53066 10.04728,8.95931 15.60061,15.4455c5.55332,6.48618 10.06126,12.81253 12.85801,17.79365c2.79717,4.98116 3.88294,8.61688 2.59211,9.72206c-1.29083,1.10518 -4.71589,-0.52769 -9.20672,-4.05878c-4.49087,-3.53066 -10.04728,-8.95931 -15.6006,-15.44549c-5.55332,-6.48618 -10.06126,-12.81253 -12.85801,-17.79366z" data-paper-data="{&quot;origRot&quot;:0,&quot;index&quot;:null}" fill="url(#color-22)" stroke="none" stroke-width="1"/><path d="M392.90264,184.18551c0.24341,8.53527 -0.2259,16.28922 -1.18085,21.9214c-0.95464,5.63248 -2.39494,9.14287 -4.09356,9.19131c-1.69862,0.04844 -3.33663,-3.37417 -4.6107,-8.94309c-1.27437,-5.5686 -2.18478,-13.28321 -2.42819,-21.81848c-0.24341,-8.53527 0.2259,-16.28923 1.18084,-21.92141c0.95464,-5.63248 2.39494,-9.14287 4.09355,-9.19131c1.69862,-0.04844 3.33664,3.37417 4.61071,8.9431c1.27437,5.5686 2.18478,13.28322 2.42819,21.81849z" data-paper-data="{&quot;origRot&quot;:0}" fill="url(#color-23)" stroke="none" stroke-width="1"/><path d="M80.75812,159.98031c0.85449,-5.64854 2.23226,-9.18395 3.92976,-9.26253c1.69749,-0.07858 3.396,3.31441 4.76872,8.85983c1.37301,5.54511 2.42024,13.24234 2.81512,21.77194c0.39488,8.5296 0.0633,16.29067 -0.79151,21.93891c-0.85449,5.64854 -2.23226,9.18395 -3.92975,9.26253c-1.69749,0.07858 -3.39601,-3.3144 -4.76873,-8.85983c-1.37301,-5.54511 -2.42025,-13.24233 -2.81512,-21.77194c-0.39488,-8.5296 -0.0633,-16.29067 0.79152,-21.93891z" data-paper-data="{&quot;origRot&quot;:0,&quot;index&quot;:null}" fill="url(#color-24)" stroke="none" stroke-width="1"/><path d="M168.43652,320.49109c-5.03191,-2.70482 -7.89781,-5.19158 -7.4008,-6.81657c0.49701,-1.625 4.26365,-2.08315 9.94768,-1.51043c5.68382,0.57233 13.28475,2.17543 21.45009,4.67286c8.16534,2.49743 15.36257,5.42045 20.3941,8.12547c5.03191,2.70482 7.8978,5.19157 7.40078,6.81658c-0.49701,1.625 -4.26363,2.08315 -9.94766,1.51045c-5.68382,-0.57233 -13.28476,-2.17543 -21.4501,-4.67287c-8.16534,-2.49743 -15.36257,-5.42044 -20.39409,-8.12547z" data-paper-data="{&quot;origRot&quot;:0,&quot;index&quot;:null}" fill="url(#color-25)" stroke="none" stroke-width="1"/><path d="M309.19338,56.78807c-3.95915,-4.11841 -5.9237,-7.36462 -4.95202,-8.75871c0.97168,-1.39409 4.69718,-0.67431 9.93124,1.61497c5.23398,2.28885 11.97627,6.14702 18.98133,11.02956c7.00505,4.88254 12.95809,9.87308 16.91682,13.99157c3.95915,4.11841 5.92368,7.36461 4.952,8.75871c-0.97168,1.39409 -4.69716,0.67432 -9.93123,-1.61495c-5.23398,-2.28885 -11.97629,-6.14702 -18.98133,-11.02957c-7.00505,-4.88254 -12.95809,-9.87307 -16.9168,-13.99156z" data-paper-data="{&quot;origRot&quot;:0,&quot;index&quot;:null}" fill="url(#color-26)" stroke="none" stroke-width="1"/></g></g></svg>