<svg version="1.1" xmlns="http://www.w3.org/2000/svg" xmlns:xlink="http://www.w3.org/1999/xlink" width="21.82142" height="24.125" viewBox="0,0,21.82142,24.125"><g transform="translate(-229.0893,-167.9375)"><g data-paper-data="{&quot;isPaintingLayer&quot;:true}" fill-rule="nonzero" stroke-linecap="butt" stroke-miterlimit="10" stroke-dasharray="" stroke-dashoffset="0" style="mix-blend-mode: normal"><path d="M249.91072,180.17173c0,7.5872 -4.40476,10.89077 -9.91071,10.89077c-5.50595,0 -9.91071,-3.30357 -9.91071,-10.89077c0,-6.72827 6.60714,-8.93066 9.91071,-6.72828c3.30357,-2.20238 9.91071,0.00001 9.91071,6.72828z" fill="#ffff24" stroke="#000000" stroke-width="2" stroke-linejoin="round"/><path d="M241.6518,167.9375c0,1.37649 -1.65179,5.50595 -1.65179,5.50595" fill="none" stroke="#000000" stroke-width="2" stroke-linejoin="round"/><path d="M232.29167,177.84821c0,-1.82451 1.47906,-3.30357 3.30357,-3.30357c1.82451,0 3.30357,1.47906 3.30357,3.30357c0,1.82451 -1.47906,3.30357 -3.30357,3.30357c-1.82451,0 -3.30357,-1.47906 -3.30357,-3.30357z" fill="#ffffff" stroke="none" stroke-width="1" stroke-linejoin="miter"/></g></g></svg>