<svg version="1.1" xmlns="http://www.w3.org/2000/svg" xmlns:xlink="http://www.w3.org/1999/xlink" width="24.63637" height="21.27273" viewBox="0,0,24.63637,21.27273"><g transform="translate(-227.54545,-139.40909)"><g data-paper-data="{&quot;isPaintingLayer&quot;:true}" fill="none" fill-rule="nonzero" stroke="#000000" stroke-width="1" stroke-linecap="round" stroke-linejoin="miter" stroke-miterlimit="10" stroke-dasharray="" stroke-dashoffset="0" style="mix-blend-mode: normal"><path d="M232.13638,140.09091l1.81818,0.09091"/><path d="M237.50002,140.36363h-1.18182"/><path d="M240.22728,139.90909h1.45455"/><path d="M243.95456,140.18182h1.27273"/><path d="M247.86366,140.09091l0.09091,1.36364"/><path d="M247.86366,145.54546l0.09091,-1.27273"/><path d="M247.77275,148.27273v1"/><path d="M247.95456,153.45455v-1.36364"/><path d="M249.40909,155.81818l-1.27273,0.09091"/><path d="M251.59092,157.63637l0.09091,-1.45455"/><path d="M251.40909,159.90909l-1.18182,-0.09091"/><path d="M247.77275,159.63636h-1.54545"/><path d="M242.59093,160.09091l1.18182,-0.09091"/><path d="M239.40909,159.90909h-1.09091"/><path d="M235.59093,160h-1.09091"/><path d="M231.59093,160.18182h-1.09091"/><path d="M228.13638,158.81818l-0.09091,1.36364"/><path d="M228.04545,156.36363l1.36364,-0.09091"/><path d="M231.59093,156v-1.27273"/><path d="M231.68182,150.72728v1.54545"/><path d="M231.59093,148.09091v-1.72727"/><path d="M231.50002,144.18182v-1.54545"/></g></g></svg>