<svg version="1.1" xmlns="http://www.w3.org/2000/svg" xmlns:xlink="http://www.w3.org/1999/xlink" width="100.04848" height="59.12905" viewBox="0,0,100.04848,59.12905"><defs><radialGradient cx="252.86927" cy="192.81507" r="12.47112" gradientUnits="userSpaceOnUse" id="color-1"><stop offset="0" stop-color="#990000"/><stop offset="1" stop-color="#660000"/></radialGradient><radialGradient cx="243.97688" cy="186.93819" r="10.72662" gradientUnits="userSpaceOnUse" id="color-2"><stop offset="0" stop-color="#990000"/><stop offset="1" stop-color="#660000"/></radialGradient><radialGradient cx="235.04036" cy="185.17638" r="7.64382" gradientUnits="userSpaceOnUse" id="color-3"><stop offset="0" stop-color="#990000"/><stop offset="1" stop-color="#660000"/></radialGradient><radialGradient cx="228.94448" cy="185.35974" r="7.23591" gradientUnits="userSpaceOnUse" id="color-4"><stop offset="0" stop-color="#990000"/><stop offset="1" stop-color="#660000"/></radialGradient></defs><g transform="translate(-195.00884,-155.43548)"><g data-paper-data="{&quot;isPaintingLayer&quot;:true}" fill-rule="nonzero" stroke-linejoin="miter" stroke-miterlimit="10" stroke-dasharray="" stroke-dashoffset="0" style="mix-blend-mode: normal"><path d="M290.86884,170.98275c3.3,2.19 4.55,6.82 3.33,7.38c-1.13,0.52 -3.11,-5.51 -8.37,2.43c-6.61,9.97 -15.71,11.3 -19.36,8c-3.66,-3.3 -2.26,-10.8 2.29,-15.84c4.55,-5.03 13.8,-7.5 22.11,-1.97z" data-paper-data="{&quot;index&quot;:null}" fill="#ff9400" stroke="#000000" stroke-width="0.8" stroke-linecap="butt"/><path d="M243.40884,206.82275c7.12,-0.33 4.28,-0.18 6.99,2.83c2.75,3.07 -2.2,3.92 -6.13,3.92c-3.94,0 -11.51,-0.58 -8.13,-2.92c5.27,-3.65 3.32,-3.64 7.27,-3.83z" data-paper-data="{&quot;index&quot;:null}" fill="#ff9400" stroke="#000000" stroke-width="0.8" stroke-linecap="butt"/><path d="M245.25884,207.90275c-4.78831,0 -8.67,-3.91751 -8.67,-8.75c0,-4.83249 3.88169,-8.75 8.67,-8.75c4.78831,0 8.67,3.91751 8.67,8.75c0,4.83249 -3.88169,8.75 -8.67,8.75z" data-paper-data="{&quot;index&quot;:null}" fill="#ff9400" stroke="#000000" stroke-width="0.8" stroke-linecap="butt"/><path d="M250.47884,169.19275c8.74,-5.37 20.98,-0.6 24.91,9.08c3.93,9.68 -0.59,20.66 -10.1,24.52c-9.51,3.86 -20.41,-0.85 -24.34,-10.53c-3.93,-9.68 4.37,-19.91 9.53,-23.07z" data-paper-data="{&quot;index&quot;:null}" fill="#ff9400" stroke="#000000" stroke-width="0.8" stroke-linecap="butt"/><path d="M239.21884,173.75275c9.77,-4.19 16.39,1.27 18.87,7.38c2.48,6.11 -2.14,13.75 -9.88,14.74c-6.41,0.82 -12.85,-0.54 -15.33,-6.65c-2.48,-6.11 0.41,-12.92 6.34,-15.47z" data-paper-data="{&quot;index&quot;:null}" fill="#ff9400" stroke="#000000" stroke-width="0.8" stroke-linecap="butt"/><path d="M238.71537,190.21543c-5.35742,2.17593 -11.34646,-0.11281 -13.37691,-5.11204c-2.03045,-4.99923 0.66659,-10.81584 6.024,-12.99177c5.35742,-2.17593 11.34646,0.11281 13.37691,5.11204c2.03045,4.99923 -0.66659,10.81584 -6.024,12.99177z" data-paper-data="{&quot;index&quot;:null}" fill="#ff9400" stroke="#000000" stroke-width="0.8" stroke-linecap="butt"/><path d="M244.16884,184.01275c2.9,6.47 7.32,4.9 11.15,5.46c5.95,0.86 10.68,7.85 12.73,11.9c-0.87,0.54 -1.78,1.03 -2.76,1.42c-9.51,3.86 -20.4,-0.85 -24.34,-10.53c-1.29,-3.18 -1.26,-6.41 -0.46,-9.43c0.97,0.71 1.99,1.28 3.68,1.18z" data-paper-data="{&quot;index&quot;:null}" fill="url(#color-1)" stroke="#000000" stroke-width="0.8" stroke-linecap="round"/><path d="M232.87884,189.22275c-1.21,-2.98 -1.14,-6.12 -0.06,-8.86c7.15,-0.66 6.77,3.92 11.35,3.65c2.9,6.47 7.32,4.9 11.15,5.46c0.66,0.1 1.3,0.29 1.93,0.52c-1.77,3.01 -4.96,5.37 -9.03,5.89c-6.42,0.81 -12.86,-0.55 -15.34,-6.66z" data-paper-data="{&quot;index&quot;:null}" fill="url(#color-2)" stroke="#000000" stroke-width="0.8" stroke-linecap="round"/><path d="M225.33884,185.10275c-0.23,-0.56 -0.39,-1.13 -0.5,-1.71c1.62,-1.3 3.7,-2.33 6.25,-2.79c8.97,-1.62 8.16,3.7 13.08,3.41c0.11,0.26 0.24,0.48 0.35,0.71c-1.08,2.37 -3.11,4.4 -5.81,5.49c-5.35,2.18 -11.34,-0.11 -13.37,-5.11z" data-paper-data="{&quot;index&quot;:null}" fill="url(#color-3)" stroke="#000000" stroke-width="0.8" stroke-linecap="round"/><path d="M220.58884,189.89275c0.89,-3.69 4.29,-8.17 10.5,-9.3c2.93,-0.53 4.82,-0.31 6.2,0.2c-1.03,3.69 -3.83,6.96 -7.85,8.6c-2.97,1.21 -6.09,1.31 -8.85,0.5z" data-paper-data="{&quot;index&quot;:null}" fill="url(#color-4)" stroke="#000000" stroke-width="0.8" stroke-linecap="round"/><path d="M270.72883,200.32275c7.13,-0.33 7.13,4.44 7.13,9.92c0,4.13 -3.2,3.92 -7.13,3.92c-3.94,0 -9.61,-1.83 -7.13,-3.92c5.25,-4.42 3.19,-9.73 7.13,-9.92z" data-paper-data="{&quot;index&quot;:null}" fill="#ff9400" stroke="#000000" stroke-width="0.8" stroke-linecap="butt"/><path d="M265.42884,208.57275c-4.78831,0 -8.67,-4.28911 -8.67,-9.58c0,-5.29089 3.88169,-9.58 8.67,-9.58c4.78831,0 8.67,4.28911 8.67,9.58c0,5.29089 -3.88169,9.58 -8.67,9.58z" data-paper-data="{&quot;index&quot;:null}" fill="#ff9400" stroke="#000000" stroke-width="0.8" stroke-linecap="butt"/><path d="M256.00884,190.06275c0.06,-0.59 0.18,-1.15 0.34,-1.65c-0.56,-0.28 -1.14,-0.65 -1.69,-1.13c-0.15,-0.13 -0.28,-0.27 -0.42,-0.4c-1.52,1.44 -3.46,1.86 -4.35,0.94c-0.9,-0.93 -0.38,-2.88 1.15,-4.36c1.37,-1.32 3.09,-1.81 4.08,-1.22c0.83,0.26 1.74,0.76 2.59,1.49c0.91,0.79 1.58,1.68 1.95,2.51c0.69,0.81 1.11,2.48 1.77,4.24c1.02,2.75 -1.28,-0.51 -3.55,4.37c-0.55,1.18 -2.13,-2.27 -1.87,-4.79z" data-paper-data="{&quot;index&quot;:null}" fill="#ff9400" stroke="#000000" stroke-width="0.8" stroke-linecap="butt"/><path d="M263.63884,193.54275c-0.14,0.28 -1.58,0.09 -3.6,-0.23c-0.42,-0.07 -0.17,-0.71 0.13,-1.34c0.31,-0.63 0.57,-1.27 0.97,-0.96c1.51,1.19 2.61,2.31 2.5,2.53z" data-paper-data="{&quot;index&quot;:null}" fill="#ffffff" stroke="#000000" stroke-width="0.8" stroke-linecap="round"/><path d="M260.78884,196.77275c-0.25,0.2 -1.54,-0.51 -3.33,-1.56c-0.37,-0.22 0.14,-0.68 0.71,-1.12c0.56,-0.44 1.1,-0.9 1.34,-0.47c0.91,1.62 1.47,3.01 1.28,3.15z" data-paper-data="{&quot;index&quot;:null}" fill="#ffffff" stroke="#000000" stroke-width="0.8" stroke-linecap="round"/><path d="M197.56884,171.73275c-0.36,-0.16 -0.28,-1.67 -0.1,-3.78c0.03,-0.43 0.84,-0.14 1.65,0.21c0.81,0.36 1.62,0.67 1.28,1.07c-1.31,1.53 -2.56,2.63 -2.83,2.5z" data-paper-data="{&quot;index&quot;:null}" fill="#ffffff" stroke="#000000" stroke-width="0.8" stroke-linecap="round"/><path d="M201.52884,172.80275c-0.37,-0.14 -0.37,-1.65 -0.29,-3.77c0.01,-0.43 0.83,-0.18 1.66,0.13c0.83,0.31 1.66,0.58 1.33,1c-1.23,1.59 -2.43,2.75 -2.7,2.64z" data-paper-data="{&quot;index&quot;:null}" fill="#ffffff" stroke="#000000" stroke-width="0.8" stroke-linecap="round"/><path d="M205.11884,174.51275c-0.37,-0.14 -0.38,-1.65 -0.32,-3.77c0.01,-0.43 0.83,-0.19 1.66,0.11c0.83,0.3 1.66,0.57 1.34,0.99c-1.21,1.6 -2.4,2.77 -2.68,2.67z" data-paper-data="{&quot;index&quot;:null}" fill="#ffffff" stroke="#000000" stroke-width="0.8" stroke-linecap="round"/><path d="M212.48884,176.14275c-0.38,-0.1 -0.53,-1.6 -0.67,-3.72c-0.02,-0.43 0.82,-0.27 1.67,-0.04c0.86,0.22 1.71,0.41 1.43,0.86c-1.06,1.71 -2.13,2.98 -2.43,2.9z" data-paper-data="{&quot;index&quot;:null}" fill="#ffffff" stroke="#000000" stroke-width="0.8" stroke-linecap="round"/><path d="M216.26884,176.80275c-0.38,-0.1 -0.53,-1.6 -0.67,-3.72c-0.02,-0.43 0.82,-0.27 1.67,-0.04c0.86,0.22 1.71,0.41 1.43,0.86c-1.06,1.71 -2.13,2.98 -2.43,2.9z" data-paper-data="{&quot;index&quot;:null}" fill="#ffffff" stroke="#000000" stroke-width="0.8" stroke-linecap="round"/><path d="M221.92884,177.64275c-0.38,-0.08 -0.61,-1.57 -0.87,-3.68c-0.05,-0.44 0.8,-0.32 1.66,-0.14c0.86,0.18 1.73,0.32 1.47,0.78c-0.96,1.76 -1.96,3.09 -2.26,3.04z" data-paper-data="{&quot;index&quot;:null}" fill="#ffffff" stroke="#000000" stroke-width="0.8" stroke-linecap="round"/><path d="M202.09575,163.70441c-1.36862,-0.89405 -1.37626,-3.30554 -0.01706,-5.38622c1.3592,-2.08068 3.57054,-3.04263 4.93916,-2.14858c1.36862,0.89405 1.37626,3.30554 0.01706,5.38622c-1.3592,2.08068 -3.57054,3.04263 -4.93916,2.14858z" data-paper-data="{&quot;index&quot;:null}" fill="#ff9400" stroke="#000000" stroke-width="0.8" stroke-linecap="butt"/><path d="M219.59884,176.10275c-5.42,-2.48 -7.94,-1.79 -11.39,-2.6c-4.9,-2.22 -12.6,-4.06 -12.8,-6.37c-0.07,-0.85 -0.25,-2.31 0.58,-3.37c4.47,-5.64 11.44,-9.37 19.17,-3.71c0.71,0.35 1.42,0.83 2.1,1.45c0.96,0.88 2.03,0.97 3.23,0.76c1.29,-0.26 2.75,-0.81 4.43,-1.07c1.16,-0.21 2.43,-0.29 3.83,-0.05c3.32,0.58 6.73,3 6.55,7c-0.18,3.89 5.04,4.81 4.02,11.31c-1.44,9.2 0.69,14.09 -11.12,19.59c-12.25,5.71 -25.79,7.56 -29.19,-0.94c-0.89,-2.23 -2.38,-3.43 -1.79,-5.11c0.22,-0.63 0.33,-1.12 0.38,-1.52l0.89,-0.12c0,0 1.72,0.07 2.28,-0.45c0.35,-0.34 2.9,-3.32 11.58,-3.06c3.14,-1.63 4.61,-3.8 10.34,-5.45c6.55,-3.12 7.48,-5.29 7.98,-6.86l-0.26,-0.98c-0.66,1.42 -2.31,3.86 -10.81,1.55z" data-paper-data="{&quot;index&quot;:null}" fill="#ff9400" stroke="#000000" stroke-width="0.8" stroke-linecap="butt"/><path d="M214.87966,166.7273c-1.61515,-0.2529 -2.6128,-2.44845 -2.22833,-4.90391c0.38447,-2.45546 2.00548,-4.24099 3.62063,-3.98809c1.61515,0.2529 2.6128,2.44845 2.22833,4.90391c-0.38447,2.45546 -2.00548,4.24099 -3.62063,3.98809z" data-paper-data="{&quot;index&quot;:null}" fill="#ff9400" stroke="#000000" stroke-width="0.8" stroke-linecap="butt"/><path d="M215.16062,164.72182c-0.78029,-0.1221 -1.24396,-1.3004 -1.03562,-2.6318c0.20833,-1.3314 1.00977,-2.31174 1.79006,-2.18964c0.78029,0.1221 1.24396,1.3004 1.03562,2.6318c-0.20833,1.3314 -1.00977,2.31174 -1.79006,2.18964z" data-paper-data="{&quot;index&quot;:null}" fill="#000000" stroke="none" stroke-width="1" stroke-linecap="butt"/><path d="M226.81884,163.22275c-0.28,1.06 -1.09,2.15 -2.01,2.74c-0.92,0.59 -2.01,0.79 -3.07,0.49c-1.06,-0.3 -1.95,-1.23 -2.34,-2.05c-0.51,-1.07 -0.47,-2.16 -0.18,-3.14c0.28,-0.94 0.95,-3.06 2.11,-3.48c1.56,-0.5 3.28,0.87 4.69,1.94c1.49,1.12 1.16,2.14 0.8,3.5z" data-paper-data="{&quot;index&quot;:null}" fill="#ffffff" stroke="#000000" stroke-width="0.8" stroke-linecap="butt"/><path d="M223.01884,162.03275c0.13,0.45 0.12,1.02 -0.04,1.59c-0.16,0.57 -0.46,1.05 -0.81,1.36c-0.34,0.31 -0.74,0.45 -1.11,0.34c-0.37,-0.1 -0.63,-0.43 -0.76,-0.88c-0.13,-0.44 -0.13,-1 0.04,-1.58c0.16,-0.57 0.46,-1.05 0.81,-1.36c0.35,-0.3 0.74,-0.44 1.11,-0.34c0.36,0.11 0.63,0.44 0.76,0.87z" data-paper-data="{&quot;index&quot;:null}" fill="#000000" stroke="none" stroke-width="1" stroke-linecap="butt"/><path d="M232.88884,164.84275c-0.35,1.21 -1.14,2.25 -2.11,2.85c-0.97,0.61 -2.13,0.82 -3.25,0.5c-1.12,-0.32 -1.98,-1.12 -2.48,-2.15c-0.5,-1.03 -0.59,-2.43 -0.27,-3.53c0.38,-1.31 0,-2.37 1.8,-2.67c1.83,-0.25 4.98,-0.79 6.3,0.51c1.03,1.03 0.36,3.29 0.01,4.49z" data-paper-data="{&quot;index&quot;:null}" fill="#ffffff" stroke="#000000" stroke-width="0.8" stroke-linecap="butt"/><path d="M229.03884,163.72275c0.13,0.45 0.13,1.01 -0.04,1.59c-0.16,0.57 -0.46,1.05 -0.81,1.36c-0.35,0.31 -0.74,0.45 -1.11,0.34c-0.36,-0.11 -0.63,-0.44 -0.76,-0.88c-0.13,-0.45 -0.12,-1.02 0.04,-1.59c0.16,-0.57 0.46,-1.05 0.81,-1.36c0.35,-0.31 0.74,-0.45 1.11,-0.34c0.37,0.11 0.63,0.44 0.76,0.88z" data-paper-data="{&quot;index&quot;:null}" fill="#000000" stroke="none" stroke-width="1" stroke-linecap="butt"/><path d="M211.12884,182.35275c0.47,-0.26 2.03,1.05 4.16,2.98c0.43,0.39 -0.54,1.02 -1.58,1.61c-1.04,0.59 -2.05,1.21 -2.2,0.51c-0.57,-2.65 -0.73,-4.9 -0.38,-5.1z" data-paper-data="{&quot;index&quot;:null}" fill="#ffffff" stroke="#000000" stroke-width="0.8" stroke-linecap="round"/><path d="M206.72884,184.68274c0.39,-0.07 1.15,1.24 2.17,3.1c0.2,0.38 -0.63,0.59 -1.5,0.74c-0.86,0.16 -1.71,0.35 -1.65,-0.18c0.25,-1.99 0.69,-3.6 0.98,-3.66z" data-paper-data="{&quot;index&quot;:null}" fill="#ffffff" stroke="#000000" stroke-width="0.8" stroke-linecap="round"/><path d="M198.92884,187.07275c0.38,-0.11 1.29,1.1 2.51,2.83c0.25,0.36 -0.55,0.66 -1.4,0.91c-0.85,0.26 -1.67,0.54 -1.67,0.01c0.02,-2.01 0.27,-3.65 0.56,-3.75z" data-paper-data="{&quot;index&quot;:null}" fill="#ffffff" stroke="#000000" stroke-width="0.8" stroke-linecap="round"/><path d="M220.41884,180.40274c0.28,-0.12 0.16,0.48 1.29,1.73c0.23,0.25 -0.38,0.57 -1.02,0.85c-0.65,0.28 -1.27,0.59 -1.32,0.17c-0.18,-1.59 0.82,-2.65 1.05,-2.75z" data-paper-data="{&quot;index&quot;:null}" fill="#ffffff" stroke="#000000" stroke-width="0.8" stroke-linecap="round"/><path d="M223.89884,175.58275c0.39,-0.35 2.2,0.58 4.69,1.98c0.5,0.28 -0.3,1.11 -1.18,1.91c-0.88,0.8 -1.72,1.63 -2.02,0.98c-1.14,-2.45 -1.79,-4.6 -1.49,-4.87z" data-paper-data="{&quot;index&quot;:null}" fill="#ffffff" stroke="#000000" stroke-width="0.8" stroke-linecap="round"/></g></g></svg>