<svg version="1.1" xmlns="http://www.w3.org/2000/svg" xmlns:xlink="http://www.w3.org/1999/xlink" width="113" height="110.35681" viewBox="0,0,113,110.35681"><g transform="translate(-183.5,-126.1466)"><g data-paper-data="{&quot;isPaintingLayer&quot;:true}" fill-rule="nonzero" stroke-linecap="butt" stroke-linejoin="miter" stroke-miterlimit="10" stroke-dasharray="" stroke-dashoffset="0" style="mix-blend-mode: normal"><g><path d="M255.58277,136.17869c18.01723,6.40678 30.91723,23.60926 30.91723,43.82472c0,25.68124 -20.81876,46.5 -46.5,46.5c-25.68124,0 -46.5,-20.81876 -46.5,-46.5c0,-8.12315 2.08292,-15.75982 5.7438,-22.40503c0.27086,-0.49167 0.55037,-0.97792 0.83831,-1.45853" fill="none" stroke="#ffffff" stroke-width="20"/><path d="M194,155.8966c0,-3.45178 2.79822,-6.25 6.25,-6.25c3.45178,0 6.25,2.79822 6.25,6.25c0,3.45178 -2.79822,6.25 -6.25,6.25c-3.45178,0 -6.25,-2.79822 -6.25,-6.25z" fill="#ff6666" stroke="#ffffff" stroke-width="7.5"/><path d="M249.25,136.1466c0,-3.45178 2.79822,-6.25 6.25,-6.25c3.45178,0 6.25,2.79822 6.25,6.25c0,3.45178 -2.79822,6.25 -6.25,6.25c-3.45178,0 -6.25,-2.79822 -6.25,-6.25z" fill="#ff6666" stroke="#ffffff" stroke-width="7.5"/><path d="M255.58277,136.17869c18.01723,6.40678 30.91723,23.60926 30.91723,43.82472c0,25.68124 -20.81876,46.5 -46.5,46.5c-25.68124,0 -46.5,-20.81876 -46.5,-46.5c0,-8.12315 2.08292,-15.75982 5.7438,-22.40503c0.27086,-0.49167 0.55037,-0.97792 0.83831,-1.45853" fill="none" stroke="#10c5ff" stroke-width="12.5"/><path d="M194,155.8966c0,-3.45178 2.79822,-6.25 6.25,-6.25c3.45178,0 6.25,2.79822 6.25,6.25c0,3.45178 -2.79822,6.25 -6.25,6.25c-3.45178,0 -6.25,-2.79822 -6.25,-6.25z" fill="#ff6666" stroke="none" stroke-width="0.5"/><path d="M249.25,136.1466c0,-3.45178 2.79822,-6.25 6.25,-6.25c3.45178,0 6.25,2.79822 6.25,6.25c0,3.45178 -2.79822,6.25 -6.25,6.25c-3.45178,0 -6.25,-2.79822 -6.25,-6.25z" fill="#ff6666" stroke="none" stroke-width="0.5"/><path d="M255.58277,136.17869c18.01723,6.40678 30.91723,23.60926 30.91723,43.82472c0,25.68124 -20.81876,46.5 -46.5,46.5c-25.68124,0 -46.5,-20.81876 -46.5,-46.5c0,-8.12315 2.08292,-15.75982 5.7438,-22.40503c0.27086,-0.49167 0.55037,-0.97792 0.83831,-1.45853" fill="none" stroke="#10c5ff" stroke-width="2"/><path d="M194,155.8966c0,-3.45178 2.79822,-6.25 6.25,-6.25c3.45178,0 6.25,2.79822 6.25,6.25c0,3.45178 -2.79822,6.25 -6.25,6.25c-3.45178,0 -6.25,-2.79822 -6.25,-6.25z" fill="#10c5ff" stroke="none" stroke-width="2"/><path d="M249.25,136.1466c0,-3.45178 2.79822,-6.25 6.25,-6.25c3.45178,0 6.25,2.79822 6.25,6.25c0,3.45178 -2.79822,6.25 -6.25,6.25c-3.45178,0 -6.25,-2.79822 -6.25,-6.25z" fill="#10c5ff" stroke="none" stroke-width="2"/></g></g></g></svg>