<svg version="1.1" xmlns="http://www.w3.org/2000/svg" xmlns:xlink="http://www.w3.org/1999/xlink" width="123.36026" height="126.76906" viewBox="0,0,123.36026,126.76906"><defs><radialGradient cx="240" cy="180" r="62.14589" gradientUnits="userSpaceOnUse" id="color-1"><stop offset="0" stop-color="#00bfff" stop-opacity="0.1451"/><stop offset="1" stop-color="#1f87ff" stop-opacity="0.10588"/></radialGradient></defs><g transform="translate(-178.31987,-116.61547)"><g data-paper-data="{&quot;isPaintingLayer&quot;:true}" fill-rule="nonzero" stroke-linecap="butt" stroke-linejoin="miter" stroke-miterlimit="10" stroke-dasharray="" stroke-dashoffset="0" style="mix-blend-mode: normal"><path d="M246.23252,118.16742c33.194,3.35357 57.31266,33.75557 53.87054,67.90475c-3.44213,34.14919 -33.14157,59.11397 -66.33558,55.76041c-33.194,-3.35357 -57.31266,-33.75557 -53.87054,-67.90475c3.44213,-34.14919 33.14157,-59.11397 66.33558,-55.76041z" fill="url(#color-1)" stroke-opacity="0.53333" stroke="#005fff" stroke-width="2.5"/><path d="M203.93558,145.10788c3.24599,0.32794 5.3788,5.54001 4.76379,11.64149c-0.61501,6.10148 -3.74496,10.78185 -6.99093,10.45391c-3.24599,-0.32794 -5.3788,-5.54001 -4.76379,-11.64149c0.61501,-6.10148 3.74496,-10.78185 6.99093,-10.45391z" fill="#ffffff" stroke-opacity="0.53333" stroke="#005fff" stroke-width="0"/><path d="M183.20801,117.92754v0v0z" fill="#ffffff" stroke="none" stroke-width="0"/></g></g></svg>