<svg version="1.1" xmlns="http://www.w3.org/2000/svg" xmlns:xlink="http://www.w3.org/1999/xlink" width="26.09037" height="32.58333" viewBox="0,0,26.09037,32.58333"><g transform="translate(-226.16597,-137.67053)"><g data-paper-data="{&quot;isPaintingLayer&quot;:true}" fill-rule="nonzero" stroke-linecap="butt" stroke-linejoin="miter" stroke-miterlimit="10" stroke-dasharray="" stroke-dashoffset="0" style="mix-blend-mode: normal"><path d="M228.43847,165.02868c-2.1625,-8.21464 -3.56078,-14.47039 6.52702,-18.79692c9.90059,-2.43512 11.59414,3.92226 14.3378,11.38187c-0.70727,1.77103 -17.91878,8.75796 -20.86482,7.41505z" fill="#fff427" stroke="#716210" stroke-width="1.45293"/><g><path d="M226.97506,158.12534c-0.91678,-7.70426 2.149,-10.46859 7.85587,-12.09042c5.70687,-1.62183 9.54155,-0.57337 12.81053,6.34225c0.57284,1.21187 2.6379,6.56582 1.7455,7.71476c-1.5781,2.03175 -5.8577,0.75456 -9.8739,2.23654c-3.61174,1.33274 -6.91482,5.61418 -9.48017,4.30292c-1.71282,-0.87549 -2.87388,-6.96021 -3.05783,-8.50606z" fill="#000000" stroke="#000000" stroke-width="1"/><path d="M234.01548,138.9202c1.32755,-1.29953 3.93367,-0.30192 5.57385,0.56001c1.2267,0.70284 1.76273,2.33877 2.13864,3.64828c0.39445,1.37021 0.55104,2.87383 0.14203,4.27718c-0.31432,1.0762 -1.12682,2.24285 -2.17138,2.5397c-1.04447,0.29683 -2.18458,-0.11459 -3.18241,-1.01821c-0.99809,-0.90427 -1.94158,-2.48956 -2.32921,-3.9756c-0.49659,-1.90693 -1.56739,-4.66442 -0.17154,-6.03136z" fill="#ffffff" stroke="#000000" stroke-width="1.25"/><path d="M239.18166,144.63885c0.36146,-0.10272 0.73784,-0.02634 1.05231,0.1796c0.3153,0.20633 0.5694,0.54212 0.68791,0.95913c0.1185,0.41699 0.07898,0.83622 -0.08067,1.17762c-0.15916,0.34054 -0.43912,0.60345 -0.80058,0.70617c-0.36146,0.10272 -0.73785,0.02634 -1.0524,-0.17957c-0.31533,-0.20642 -0.56943,-0.5422 -0.68793,-0.95919c-0.1185,-0.41699 -0.07898,-0.83622 0.08069,-1.17755c0.15924,-0.34056 0.43921,-0.60348 0.80067,-0.7062z" fill="#000000" stroke="none" stroke-width="0.72647"/><path d="M227.35806,141.7964c1.20701,-1.62904 3.46053,-3.28433 5.35363,-2.73168c1.86392,0.61693 2.22155,3.35786 2.74082,5.18759c0.43853,1.54536 0.49587,3.45239 0.09516,4.80357c-0.40079,1.35055 -1.20174,2.34415 -2.30777,2.65848c-1.10594,0.3143 -2.30971,-0.10959 -3.36095,-1.04749c-1.05132,-0.93852 -1.96408,-2.44243 -2.44528,-4.13569c-0.48118,-1.69317 -1.00982,-3.44068 -0.07561,-4.73478z" fill="#ffffff" stroke="#000000" stroke-width="1.25"/><path d="M233.22594,146.28551c0.36146,-0.10272 0.73784,-0.02633 1.05231,0.17961c0.3153,0.20633 0.56941,0.54212 0.68792,0.95912c0.1185,0.41699 0.07897,0.83621 -0.08068,1.17763c-0.15916,0.34054 -0.43912,0.60346 -0.80057,0.70618c-0.36146,0.10272 -0.73785,0.02633 -1.0524,-0.17959c-0.31533,-0.20642 -0.56943,-0.5422 -0.68794,-0.95919c-0.1185,-0.41699 -0.07897,-0.83622 0.0807,-1.17755c0.15924,-0.34056 0.43921,-0.60348 0.80066,-0.7062z" fill="#000000" stroke="none" stroke-width="0.72647"/><path d="M243.91256,149.93496c0.18879,0.66433 -2.93717,2.05827 -4.94971,2.63021c-2.01255,0.57194 -2.34246,0.77192 -2.53125,0.10759c-0.18879,-0.66433 -0.16499,-1.94139 1.84756,-2.51334c2.01255,-0.57194 5.44462,-0.88878 5.63341,-0.22445z" fill="#ff8200" stroke="none" stroke-width="NaN"/><path d="M238.46554,151.27746l0.06635,-0.01656c0.16863,-0.02355 0.33726,-0.04709 0.5059,-0.07062c0.37124,-0.05775 0.76192,-0.13358 1.16051,-0.22434c1.19307,-0.27166 2.45683,-0.67701 3.48121,-1.13122c0,0 0.40711,-0.18484 0.49767,0.01654c0.09056,0.20138 -0.31655,0.38621 -0.31655,0.38621c-1.4122,0.61883 -3.23314,1.14789 -4.76116,1.39007c-0.16995,0.02373 -0.33989,0.04747 -0.50984,0.0712l-0.00344,0.00329c0,0 -0.2181,0.06198 -0.27842,-0.15028c-0.06033,-0.21228 0.15778,-0.27426 0.15778,-0.27426z" data-paper-data="{&quot;index&quot;:null}" fill="#000000" stroke="none" stroke-width="0.5"/><path d="M240.88435,162.12906c-2.92187,0.83037 -4.97886,-2.0403 -5.58039,-3.96578c-0.80145,-2.56541 0.83246,-3.96706 3.75432,-4.79743c2.92186,-0.83036 4.90025,-0.52499 5.7017,2.16541c0.57591,1.93329 -0.95377,5.76743 -3.87563,6.59779z" fill="#ffffff" stroke="#000000" stroke-width="0"/></g><path d="M229.33041,169.52739c-0.968,-0.06952 -2.2242,-3.62341 -0.70899,-4.75425c1.96183,-1.38071 0.10087,-0.64173 6.14,-3.42288c4.14852,-1.91048 5.99465,-2.56046 8.97234,-3.09958c3.33775,-0.60431 4.0495,-0.56141 6.16205,-0.34719c0.89703,0.09096 2.57575,5.06371 0.95802,4.44579c-1.53507,-0.58635 -5.49183,-0.28304 -11.09201,2.00802c-6.41096,2.62275 -9.22307,5.25686 -10.43141,5.17009z" fill="#76b8f5" stroke="#504400" stroke-width="1.45293"/></g></g></svg>