<svg version="1.1" xmlns="http://www.w3.org/2000/svg" xmlns:xlink="http://www.w3.org/1999/xlink" width="30.0537" height="35.45635" viewBox="0,0,30.0537,35.45635"><defs><radialGradient cx="239.16209" cy="187.08357" r="15.5128" gradientUnits="userSpaceOnUse" id="color-1"><stop offset="0" stop-color="#990000"/><stop offset="1" stop-color="#660000"/></radialGradient></defs><g transform="translate(-225.05529,-161.6971)"><g data-paper-data="{&quot;isPaintingLayer&quot;:true}" fill-rule="nonzero" stroke-linejoin="miter" stroke-miterlimit="10" stroke-dasharray="" stroke-dashoffset="0" style="mix-blend-mode: normal"><path d="M225.55529,177.49587l3,-1.85h11.85l3.15,1.85v15.85h-18z" fill="#0280ff" stroke="#000000" stroke-width="1" stroke-linecap="round"/><path d="M240.60989,179.28187c3.4072,0 6.4946,1.628 8.7307,4.2585c2.2353,2.6298 3.9803,6.6668 3.6193,10.2708c-0.3001,1.9513 -2.9931,2.0247 -4.7221,2.1794c-5.0017,0.7788 -10.1923,0.7432 -15.2557,0c-1.7356,-0.016 -4.5049,-0.3182 -4.7221,-2.1794c-0.3545,-3.5989 1.3345,-7.5829 3.6193,-10.2708c2.1743,-2.5579 5.3235,-4.2585 8.7306,-4.2585z" fill="url(#color-1)" stroke="#000000" stroke-width="1.45293" stroke-linecap="round"/><path d="M230.40529,180.64587l6.75,10.2" fill="none" stroke="#0280ff" stroke-width="2" stroke-linecap="round"/><path d="M233.65529,185.49587l15,0.2" fill="none" stroke="#0280ff" stroke-width="2" stroke-linecap="round"/><path d="M249.65529,182.64587l-2.25,7.35" fill="none" stroke="#0280ff" stroke-width="2" stroke-linecap="round"/><path d="M241.58859,165.29367c3.0563,0 5.8263,1.0788 7.8321,2.8209c2.005,1.7428 3.2465,4.1488 3.2465,6.8048c0,2.6559 -1.2415,5.062 -3.2465,6.8048c-2.0058,1.742 -4.7758,2.8208 -7.8321,2.8208c-3.0562,0 -5.8262,-1.0788 -7.832,-2.8208c-2.005,-1.7428 -3.2466,-4.1489 -3.2466,-6.8048c0,-2.656 1.2416,-5.062 3.2466,-6.8048c2.0058,-1.7421 4.7758,-2.8209 7.832,-2.8209z" fill="#ff0000" stroke="#000000" stroke-width="1.45293" stroke-linecap="butt"/><path d="M245.16419,163.00967c1.8491,-1.005 4.3801,0.8892 5.9005,2.3364c1.1191,1.1458 1.1966,3.0945 1.2007,4.6379c0.0055,1.6153 -0.2895,3.3023 -1.1698,4.7049c-0.6758,1.0754 -1.9225,2.0951 -3.1527,2.0951c-1.2301,0 -2.3451,-0.8014 -3.1526,-2.0951c-0.8076,-1.2945 -1.3448,-3.3142 -1.307,-5.0536c0.0494,-2.2318 -0.2635,-5.5683 1.6809,-6.6256z" fill="#ffffff" stroke="#000000" stroke-width="1.38359" stroke-linecap="butt"/><path d="M249.02289,170.84127c0.4257,0 0.8122,0.1998 1.0911,0.5216c0.2797,0.3225 0.4526,0.7671 0.4526,1.2582c0,0.4911 -0.1729,0.9357 -0.4526,1.2583c-0.2789,0.3218 -0.6654,0.5216 -1.0911,0.5216c-0.4257,0 -0.8122,-0.1998 -1.0912,-0.5216c-0.2797,-0.3226 -0.4526,-0.7672 -0.4526,-1.2583c0,-0.4911 0.1729,-0.9357 0.4526,-1.2582c0.279,-0.3218 0.6655,-0.5216 1.0912,-0.5216z" fill="#000000" stroke="none" stroke-width="0.72647" stroke-linecap="butt"/><path d="M237.84819,164.18337c1.8198,-1.4014 4.7881,-2.4264 6.6799,-1.2379c1.8401,1.2495 1.381,4.3471 1.3802,6.5018c-0.0007,1.8198 -0.5288,3.9157 -1.3839,5.264c-0.855,1.3476 -2.0355,2.1823 -3.3381,2.1823c-1.3025,0 -2.483,-0.8347 -3.3381,-2.1823c-0.855,-1.3483 -1.3839,-3.2698 -1.3839,-5.264c0,-1.9941 -0.0349,-4.143 1.3839,-5.2639z" fill="#ffffff" stroke="#000000" stroke-width="1.45293" stroke-linecap="butt"/><path d="M242.02289,170.79127c0.4257,0 0.8122,0.1998 1.0911,0.5216c0.2797,0.3225 0.4526,0.7671 0.4526,1.2582c0,0.4911 -0.1729,0.9357 -0.4526,1.2583c-0.2789,0.3218 -0.6654,0.5216 -1.0911,0.5216c-0.4257,0 -0.8122,-0.1998 -1.0912,-0.5216c-0.2797,-0.3226 -0.4526,-0.7672 -0.4526,-1.2583c0,-0.4911 0.1729,-0.9357 0.4526,-1.2582c0.279,-0.3218 0.6655,-0.5216 1.0912,-0.5216z" fill="#000000" stroke="none" stroke-width="0.72647" stroke-linecap="butt"/><path d="M236.30189,190.74497c1.7431,0 3.3228,0.6436 4.4668,1.6836c1.1437,1.0397 2.0365,2.6357 1.8517,4.0606c-0.1535,0.7714 -1.5313,0.8004 -2.4159,0.8616c-2.559,0.3079 -5.2147,0.2938 -7.8053,0c-0.8879,-0.0063 -2.3048,-0.1258 -2.4159,-0.8616c-0.1814,-1.4229 0.6828,-2.9979 1.8517,-4.0606c1.1125,-1.0112 2.7237,-1.6836 4.4669,-1.6836z" fill="#ff0000" stroke="#000000" stroke-width="1.32856" stroke-linecap="round"/><path d="M248.10189,190.59497c1.7431,0 3.3228,0.6436 4.4668,1.6836c1.1437,1.0397 2.0365,2.6357 1.8517,4.0606c-0.1535,0.7714 -1.5313,0.8004 -2.4159,0.8616c-2.559,0.3079 -5.2147,0.2938 -7.8053,0c-0.8879,-0.0063 -2.3048,-0.1258 -2.4159,-0.8616c-0.1814,-1.4229 0.6828,-2.9979 1.8517,-4.0606c1.1125,-1.0112 2.7237,-1.6836 4.4669,-1.6836z" fill="#ff0000" stroke="#000000" stroke-width="1.32856" stroke-linecap="round"/><path d="M242.77752,180.07541c-0.62759,0 -1.13636,-0.26456 -1.13636,-0.59091c0,-0.32635 0.50876,-0.59091 1.13636,-0.59091c0.62759,0 1.13636,0.26456 1.13636,0.59091c0,0.32635 -0.50876,0.59091 -1.13636,0.59091z" fill="none" stroke="#000000" stroke-width="1.45293" stroke-linecap="butt"/></g></g></svg>