<svg version="1.1" xmlns="http://www.w3.org/2000/svg" xmlns:xlink="http://www.w3.org/1999/xlink" width="51.5853" height="49.52554" viewBox="0,0,51.5853,49.52554"><g transform="translate(-225.2155,-155.23723)"><g data-paper-data="{&quot;isPaintingLayer&quot;:true}" fill="none" fill-rule="nonzero" stroke="none" stroke-width="none" stroke-linecap="none" stroke-linejoin="miter" stroke-miterlimit="10" stroke-dasharray="" stroke-dashoffset="0" font-family="none" font-weight="none" font-size="none" text-anchor="none" style="mix-blend-mode: normal"><path d="M261.62529,179.99998l-31.61947,19.96789v-39.93579z" data-paper-data="{&quot;origRot&quot;:0,&quot;origPos&quot;:null,&quot;index&quot;:null}" fill="#824e00" stroke="#000000" stroke-width="0.8" stroke-linecap="butt"/><path d="M226.58998,155.81311l25.35577,9.4465l-25.35577,4.40027z" data-paper-data="{&quot;origPos&quot;:null,&quot;origRot&quot;:0,&quot;index&quot;:null}" fill="#ab6600" stroke="#000000" stroke-width="0.8" stroke-linecap="butt"/><path d="M226.58998,190.34011l25.35577,4.40027l-25.35577,9.44651z" data-paper-data="{&quot;origPos&quot;:null,&quot;origRot&quot;:0,&quot;index&quot;:null}" fill="#ab6600" stroke="#000000" stroke-width="0.8" stroke-linecap="butt"/><path d="M257.02629,195.87375c-16.35206,1.17833 -31.39832,-9.60409 -31.39832,-9.60409l-0.01226,-12.60583c0,0 16.77944,-11.37543 31.64322,-9.3578c14.86378,2.01763 19.12536,15.66937 19.12536,15.66937c0,0 -3.96329,14.67817 -19.35801,15.89834z" data-paper-data="{&quot;origRot&quot;:0,&quot;origPos&quot;:null,&quot;index&quot;:null}" fill="#ff9800" stroke="#000000" stroke-width="0.8" stroke-linecap="butt"/><path d="M242.2,180.1497c0,-7.06924 5.73076,-12.8 12.8,-12.8c7.06924,0 12.8,5.73076 12.8,12.8c0,7.06924 -5.73076,12.8 -12.8,12.8c-7.06924,0 -12.8,-5.73076 -12.8,-12.8z" data-paper-data="{&quot;origPos&quot;:null,&quot;index&quot;:null}" fill="#c47500" stroke="#000000" stroke-width="0.8" stroke-linecap="butt"/><g data-paper-data="{&quot;origPos&quot;:null,&quot;index&quot;:null}"><path d="M242.28288,179.41693c0,-3.474 1.092,-5.64 3.151,-7.785c1.174,0.548 0.1945,-0.008 1.0895,0.753c2.299,1.955 3.724,4.654 3.724,7.634c0,2.979 -1.487,5.732 -3.724,7.634c-0.835,0.71 -0.065,0.1645 -1.121,0.6865c-2.099,-2.1665 -3.1195,-4.9005 -3.1195,-8.9225z" data-paper-data="{&quot;origPos&quot;:null,&quot;origRot&quot;:0}" id="ID0.8960802308283746" fill="#995b00" stroke="#000000" stroke-width="0.8" stroke-linecap="round"/><path d="M260.01038,186.01093c-1.522,1.753 -3.627,2.84 -5.949,2.84c-2.322,0 -4.426,-1.087 -5.95,-2.84c-1.524,-1.754 -2.467,-4.176 -2.467,-6.848c0,-2.673 0.944,-5.095 2.467,-6.849c1.524,-1.753 3.628,-2.838 5.95,-2.838c2.322,0 4.427,1.085 5.949,2.838c1.524,1.754 2.467,4.176 2.467,6.849c0,2.672 -0.943,5.094 -2.467,6.848z" data-paper-data="{&quot;origPos&quot;:null,&quot;origRot&quot;:0}" id="ID0.3849619720131159_1_" fill="#ff9800" stroke="#000000" stroke-width="0.8" stroke-linecap="butt"/><path d="M258.68137,177.50693c-1.521,0.032 -3.287,-0.438 -4.419,-1.143c-1.131,-0.707 -1.832,-1.682 -1.832,-2.758c0,-1.075 0.892,-2.165 1.832,-2.756c1.226,-0.77 2.702,-1.028 4.114,-1.023c1.35,0.004 3.054,0.072 4.055,1.051c1.266,1.328 2.922,3.541 2.044,5.159c-0.925,1.7 -3.842,1.426 -5.794,1.47z" data-paper-data="{&quot;origPos&quot;:null,&quot;origRot&quot;:0}" id="ID0.257101490162313_3_" fill="#ffffff" stroke="#000000" stroke-width="0.8" stroke-linecap="butt"/><path d="M257.17237,173.61593c-0.283,0.245 -0.671,0.396 -1.101,0.396c-0.429,0 -0.819,-0.151 -1.1,-0.396c-0.281,-0.243 -0.456,-0.582 -0.456,-0.954c0,-0.372 0.173,-0.709 0.455,-0.954c0.282,-0.245 0.671,-0.396 1.1,-0.396c0.43,0 0.819,0.152 1.101,0.396c0.281,0.244 0.456,0.582 0.456,0.954c0,0.372 -0.175,0.711 -0.455,0.954z" data-paper-data="{&quot;origPos&quot;:null,&quot;origRot&quot;:0}" id="ID0.13991053588688374_3_" fill="#000000" stroke="none" stroke-width="1" stroke-linecap="butt"/><path d="M258.84537,183.64293c-1.744,0 -3.424,-0.463 -4.603,-1.211c-1.178,-0.746 -1.908,-1.779 -1.908,-2.918c0,-1.139 0.73,-2.171 1.908,-2.918c1.179,-0.749 3.012,-1.211 4.603,-1.211c1.885,0 4.593,-0.401 5.686,1.207c1.039,1.653 0.143,4.249 -1.083,5.84c-0.979,1.242 -2.858,1.211 -4.603,1.211z" data-paper-data="{&quot;origPos&quot;:null,&quot;origRot&quot;:0}" id="ID0.257101490162313_2_" fill="#ffffff" stroke="#000000" stroke-width="0.8" stroke-linecap="butt"/><path d="M257.21538,179.73693c-0.283,0.245 -0.671,0.396 -1.101,0.396c-0.429,0 -0.818,-0.152 -1.1,-0.396c-0.281,-0.244 -0.456,-0.582 -0.456,-0.954c0,-0.373 0.175,-0.71 0.456,-0.954c0.283,-0.245 0.671,-0.396 1.1,-0.396c0.43,0 0.819,0.152 1.101,0.396c0.281,0.244 0.456,0.581 0.456,0.954c0,0.372 -0.175,0.71 -0.456,0.954z" data-paper-data="{&quot;origPos&quot;:null,&quot;origRot&quot;:0}" id="ID0.13991053588688374_2_" fill="#000000" stroke="none" stroke-width="1" stroke-linecap="butt"/><path d="M250.13238,180.13793c-0.989,-1.462 -1.087,-1.457 -1.271,-2.318c-0.09,-0.441 0.477,-1.271 0.477,-1.271" data-paper-data="{&quot;origPos&quot;:null,&quot;origRot&quot;:0}" id="ID0.5298761413432658_1_" fill="none" stroke="#000000" stroke-width="0.8" stroke-linecap="round"/></g></g></g></svg>