<svg version="1.1" xmlns="http://www.w3.org/2000/svg" xmlns:xlink="http://www.w3.org/1999/xlink" width="46.90111" height="28.94965" viewBox="0,0,46.90111,28.94965"><g transform="translate(-212.99357,-142.25693)"><g data-paper-data="{&quot;isPaintingLayer&quot;:true}" fill-rule="nonzero" stroke-linejoin="miter" stroke-miterlimit="10" stroke-dasharray="" stroke-dashoffset="0" style="mix-blend-mode: normal"><path d="M229.26247,169.84751c-1.3802,0.48819 -2.80655,-5.02949 -1.32402,-6.15812c0.2375,-4.31464 -1.95571,-14.64037 5.97702,-17.75763c9.00369,-2.24684 14.64414,7.61491 15.8878,10.17452c2.43559,-0.65754 3.46799,6.60871 1.81823,6.18826c-1.56548,-0.39897 -5.05211,-0.36034 -11.69411,1.83365c-4.23986,1.40052 -8.38496,4.36378 -10.66492,5.71932z" fill="#000000" stroke="#000000" stroke-width="1.45293" stroke-linecap="butt"/><path d="M228.09239,164.13458c3.40944,-2.87924 8.07415,-5.19198 11.23353,-6.11469c3.26871,-0.95464 7.02021,-2.25218 11.18842,-1.43788" fill="none" stroke="#000000" stroke-width="1.45293" stroke-linecap="round"/><path d="M212.99358,160.16007l17.84149,-17.42018l29.05962,-0.48296l-21.24724,19.86537z" fill="#000000" stroke="#dc0000" stroke-width="0" stroke-linecap="butt"/><path d="M221.27972,171.15818c-0.71151,0.23717 -0.94868,-0.47434 -0.94868,-0.47434l-0.15328,-0.48887c-0.50199,-3.07076 2.11937,-3.22749 2.76191,-5.67909c0.51522,-1.96585 -1.24995,-3.82818 -1.27211,-5.81921c0,0 0,-0.75 0.75,-0.75c0.75,0 0.75,0.75 0.75,0.75c-0.03385,2.20157 1.79113,3.85137 1.22788,6.18079c-0.54338,2.24728 -3.14261,2.69741 -2.73809,5.07091l0.09672,0.26113c0,0 0.23717,0.71151 -0.47434,0.94868z" fill="#ffea00" stroke="none" stroke-width="0.5" stroke-linecap="butt"/></g></g></svg>