<svg version="1.1" xmlns="http://www.w3.org/2000/svg" xmlns:xlink="http://www.w3.org/1999/xlink" width="59.90385" height="49.667" viewBox="0,0,59.90385,49.667"><defs><radialGradient cx="238.3508" cy="182.7031" r="11.3754" gradientUnits="userSpaceOnUse" id="color-1"><stop offset="0" stop-color="#990000"/><stop offset="1" stop-color="#660000"/></radialGradient></defs><g transform="translate(-210.04808,-155.1665)"><g data-paper-data="{&quot;isPaintingLayer&quot;:true}" fill-rule="nonzero" stroke-linejoin="miter" stroke-miterlimit="10" stroke-dasharray="" stroke-dashoffset="0" style="mix-blend-mode: normal"><path d="M247.882,201.6325c0,1.547 -3.522,2.801 -7.866,2.801c-4.345,0 -7.867,-1.254 -7.867,-2.801c0,-1.547 3.522,-0.4 7.867,-0.4c4.344,0 7.866,-1.147 7.866,0.4z" fill="#faffc7" stroke="#000000" stroke-width="0.8" stroke-linecap="butt"/><path d="M269.371,189.5225c-7.057,8.017 -17.595,13.109 -29.371,13.109c-11.776,0 -22.314,-5.091 -29.371,-13.109c7.057,-5.518 17.595,-9.023 29.371,-9.023c11.777,0 22.315,3.505 29.371,9.023z" fill="#adbbc7" stroke="#000000" stroke-width="0.8" stroke-linecap="butt"/><path d="M240,180.5005c11.776,0 22.314,3.504 29.371,9.023c-0.174,0.197 -0.351,0.392 -0.529,0.586c-6.197,4.172 -16.799,6.924 -28.842,6.924c-12.043,0 -22.645,-2.752 -28.842,-6.924c-0.177,-0.194 -0.355,-0.389 -0.529,-0.586c7.057,-5.519 17.595,-9.023 29.371,-9.023z" fill="#cfe0ed" stroke="#000000" stroke-width="0.8" stroke-linecap="butt"/><path d="M253.533,182.6895c-0.004,1.945 -6.06,3.522 -13.533,3.522c-7.473,0 -13.571,-1.578 -13.533,-3.522c0.228,-11.801 -1.2,-27.123 13.533,-27.123c14.733,0 13.557,15.322 13.533,27.123z" fill="none" stroke="#000000" stroke-width="0.8" stroke-linecap="butt"/><path d="M254.733,183.9635c0,2.209 -6.597,4 -14.733,4c-8.136,0 -14.733,-1.791 -14.733,-4c0,-0.564 0.432,-1.099 1.206,-1.585c-0.002,0.104 -0.004,0.207 -0.006,0.311c-0.038,1.944 6.06,3.522 13.533,3.522c7.473,0 13.529,-1.577 13.533,-3.522c0,-0.102 0.001,-0.205 0.001,-0.307c0.771,0.485 1.2,1.02 1.199,1.581z" fill="#cfcfcf" stroke="#000000" stroke-width="0.8" stroke-linecap="butt"/><path d="M253.305,183.3325c-1.162,1.639 -6.675,2.88 -13.305,2.88c-6.63,0 -12.143,-1.241 -13.305,-2.88c2.313,-1.042 7.399,-1.766 13.305,-1.766c5.906,0 10.992,0.724 13.305,1.766z" fill="#737d85" stroke="#000000" stroke-width="0.8" stroke-linecap="butt"/><path d="M229.89,185.0295c0.522,-1.056 1.164,-2.036 1.874,-2.871c1.902,-2.237 4.655,-3.724 7.634,-3.724c2.98,0 5.679,1.425 7.634,3.724c0.761,0.895 1.455,1.978 2.003,3.152c-2.395,0.559 -5.561,0.901 -9.035,0.901c-4.022,0 -7.631,-0.458 -10.11,-1.182z" fill="url(#color-1)" stroke="#000000" stroke-width="0.8" stroke-linecap="round"/><path d="M240.254,166.2045c2.673,0 5.095,0.943 6.849,2.467c1.753,1.522 2.838,3.627 2.838,5.949c0,2.322 -1.085,4.426 -2.838,5.95c-1.754,1.523 -4.176,2.467 -6.849,2.467c-2.672,0 -5.094,-0.943 -6.848,-2.467c-1.753,-1.524 -2.84,-3.628 -2.84,-5.95c0,-2.322 1.087,-4.427 2.84,-5.949c1.754,-1.524 4.176,-2.467 6.848,-2.467z" fill="#ff0000" stroke="#000000" stroke-width="0.8" stroke-linecap="butt"/><path d="M243.38,164.2065c1.618,-0.878 3.831,0.778 5.159,2.044c0.979,1.001 1.047,2.705 1.051,4.055c0.005,1.412 -0.253,2.888 -1.023,4.114c-0.591,0.94 -1.681,1.832 -2.756,1.832c-1.076,0 -2.051,-0.701 -2.758,-1.832c-0.705,-1.132 -1.175,-2.898 -1.143,-4.419c0.044,-1.952 -0.23,-4.869 1.47,-5.794z" fill="#ffffff" stroke="#000000" stroke-width="0.8" stroke-linecap="butt"/><path d="M246.755,171.0545c0.372,0 0.71,0.175 0.954,0.456c0.244,0.282 0.396,0.671 0.396,1.101c0,0.429 -0.151,0.818 -0.396,1.1c-0.245,0.282 -0.582,0.455 -0.954,0.455c-0.372,0 -0.711,-0.175 -0.954,-0.456c-0.245,-0.281 -0.396,-0.671 -0.396,-1.1c0,-0.43 0.151,-0.818 0.396,-1.101c0.243,-0.28 0.582,-0.455 0.954,-0.455z" fill="#000000" stroke="none" stroke-width="1" stroke-linecap="butt"/><path d="M236.985,165.2335c1.591,-1.226 4.187,-2.122 5.84,-1.083c1.608,1.093 1.207,3.801 1.207,5.686c0,1.591 -0.462,3.424 -1.211,4.603c-0.747,1.178 -1.779,1.908 -2.918,1.908c-1.139,0 -2.172,-0.73 -2.918,-1.908c-0.748,-1.179 -1.211,-2.859 -1.211,-4.603c0,-1.745 -0.031,-3.624 1.211,-4.603z" fill="#ffffff" stroke="#000000" stroke-width="0.8" stroke-linecap="butt"/><path d="M240.634,171.0105c0.373,0 0.71,0.175 0.954,0.456c0.244,0.282 0.396,0.671 0.396,1.101c0,0.429 -0.151,0.817 -0.396,1.1c-0.244,0.281 -0.581,0.456 -0.954,0.456c-0.372,0 -0.71,-0.175 -0.954,-0.456c-0.244,-0.282 -0.396,-0.671 -0.396,-1.1c0,-0.43 0.151,-0.818 0.396,-1.101c0.244,-0.281 0.582,-0.456 0.954,-0.456z" fill="#000000" stroke="none" stroke-width="1" stroke-linecap="butt"/><path d="M232.9959,158.741c0.4688,-0.2515 0.9598,-0.3538 1.3761,-0.3161c0.4163,0.0377 0.757,0.2158 0.9225,0.5242c0.1654,0.3084 0.1255,0.6908 -0.0733,1.0584c-0.1988,0.3677 -0.5556,0.7203 -1.0243,0.9718c-0.4688,0.2515 -0.9598,0.3538 -1.3761,0.3161c-0.4163,-0.0376 -0.757,-0.2157 -0.9225,-0.5241c-0.1655,-0.3085 -0.1255,-0.6908 0.0733,-1.0585c0.1988,-0.3677 0.5555,-0.7202 1.0243,-0.9718z" fill="#ffffff" stroke="none" stroke-width="1.00003" stroke-linecap="butt"/><path d="M242.51214,179.07785c-0.62759,0 -1.13636,-0.26456 -1.13636,-0.59091c0,-0.32635 0.50876,-0.59091 1.13636,-0.59091c0.62759,0 1.13636,0.26456 1.13636,0.59091c0,0.32635 -0.50876,0.59091 -1.13636,0.59091z" fill="none" stroke="#000000" stroke-width="1.45293" stroke-linecap="butt"/></g></g></svg>