<svg version="1.1" xmlns="http://www.w3.org/2000/svg" xmlns:xlink="http://www.w3.org/1999/xlink" width="43.46642" height="32.61677" viewBox="0,0,43.46642,32.61677"><g transform="translate(-218.36003,-163.5522)"><g data-paper-data="{&quot;isPaintingLayer&quot;:true}" fill-rule="nonzero" stroke-linejoin="miter" stroke-miterlimit="10" stroke-dasharray="" stroke-dashoffset="0" style="mix-blend-mode: normal"><path d="M236.65018,164.17002c1.4838,-0.3052 2.9922,0.6128 4.4126,1.2315c1.2831,0.5575 4.1313,1.5686 3.5766,2.3841c-0.8271,1.266 -4.1765,1.2869 -6.3399,1.778c-0.5979,0.1358 -1.5035,0.6042 -1.8496,-0.0015c-0.5615,-0.9879 -0.0707,-2.1956 0.0162,-3.2574c-0.0201,-0.7393 -0.4208,-2.0094 0.1841,-2.1347z" fill="#ff0000" stroke="#000000" stroke-width="1.11468" stroke-linecap="round"/><path d="M246.17178,186.84252c1.0257,-0.0295 1.9788,0.7653 2.6902,2.0734c0.7111,1.3077 1.295,3.3297 1.2386,5.1515c-0.0619,0.9872 -0.8716,1.0476 -1.3899,1.1406c-1.4944,0.4364 -3.0575,0.4633 -4.5927,0.1322c-0.5227,0.0069 -1.3607,-0.1216 -1.4531,-1.0589c-0.159,-1.813 0.2916,-3.838 0.9404,-5.2142c0.6174,-1.3096 1.5408,-2.195 2.5665,-2.2246z" fill="#ff0000" stroke="#000000" stroke-width="1.20787" stroke-linecap="round"/><path d="M242.49668,167.81562c3.3374,0.1248 6.9879,0.6813 9.6393,2.5065c2.5697,1.7679 4.8128,4.5987 4.933,7.5196c0.1304,3.1511 -1.6205,6.5078 -4.188,8.6788c-2.5266,2.1382 -6.3041,2.9956 -9.7039,2.9332c-2.9871,0.0716 -5.8494,-1.3945 -8.2785,-2.9158c-2.2556,-1.3822 -3.4259,-3.9082 -5.6135,-5.3712c-0.5556,-0.3703 -0.8471,1.1356 -1.2474,0.5116c-2.4563,-11.0544 -0.9061,-5.763 -0.5103,-8.2358c0.1134,-0.7029 0.8097,2.0318 1.701,1.8927c1.4278,-0.2251 2.2511,-1.7587 3.4022,-2.6089c1.3665,-1.0108 2.6445,-2.2292 4.2526,-3.018c1.7169,-0.8666 3.5847,-1.9684 5.6135,-1.8927z" fill="#820000" stroke="#000000" stroke-width="1.07998" stroke-linecap="round"/><path d="M250.02138,168.65802c3.0563,0 5.8263,1.0788 7.8321,2.8209c2.005,1.7428 3.2465,4.1488 3.2465,6.8048c0,2.6559 -1.2415,5.062 -3.2465,6.8048c-2.0058,1.742 -4.7758,2.8208 -7.8321,2.8208c-3.0562,0 -5.8262,-1.0788 -7.832,-2.8208c-2.005,-1.7428 -3.2466,-4.1489 -3.2466,-6.8048c0,-2.656 1.2416,-5.062 3.2466,-6.8048c2.0058,-1.7421 4.7758,-2.8209 7.832,-2.8209z" fill="#ff0000" stroke="#000000" stroke-width="1.45293" stroke-linecap="butt"/><path d="M253.59698,166.37402c1.8491,-1.005 4.3801,0.8892 5.9005,2.3364c1.1191,1.1458 1.1966,3.0945 1.2007,4.6379c0.0055,1.6153 -0.2895,3.3023 -1.1698,4.7049c-0.6758,1.0754 -1.9225,2.0951 -3.1527,2.0951c-1.2301,0 -2.3451,-0.8014 -3.1526,-2.0951c-0.8076,-1.2945 -1.3448,-3.3142 -1.307,-5.0536c0.0494,-2.2318 -0.2635,-5.5683 1.6809,-6.6256z" fill="#ffffff" stroke="#000000" stroke-width="1.38359" stroke-linecap="butt"/><path d="M257.45568,174.20562c0.4257,0 0.8122,0.1998 1.0911,0.5216c0.2797,0.3225 0.4526,0.7671 0.4526,1.2582c0,0.4911 -0.1729,0.9357 -0.4526,1.2583c-0.2789,0.3218 -0.6654,0.5216 -1.0911,0.5216c-0.4257,0 -0.8122,-0.1998 -1.0912,-0.5216c-0.2797,-0.3226 -0.4526,-0.7672 -0.4526,-1.2583c0,-0.4911 0.1729,-0.9357 0.4526,-1.2582c0.279,-0.3218 0.6655,-0.5216 1.0912,-0.5216z" fill="#000000" stroke="none" stroke-width="0.72647" stroke-linecap="butt"/><path d="M245.83098,167.54772c1.8198,-1.4014 4.7881,-2.4264 6.6799,-1.2379c1.8401,1.2495 1.381,4.3471 1.3802,6.5018c-0.0007,1.8198 -0.5288,3.9157 -1.3839,5.264c-0.855,1.3476 -2.0355,2.1823 -3.3381,2.1823c-1.3025,0 -2.483,-0.8347 -3.3381,-2.1823c-0.855,-1.3483 -1.3839,-3.2698 -1.3839,-5.264c0,-1.9941 -0.0349,-4.143 1.3839,-5.2639z" fill="#ffffff" stroke="#000000" stroke-width="1.45293" stroke-linecap="butt"/><path d="M250.25568,174.15562c0.4257,0 0.8122,0.1998 1.0911,0.5216c0.2797,0.3225 0.4526,0.7671 0.4526,1.2582c0,0.4911 -0.1729,0.9357 -0.4526,1.2583c-0.2789,0.3218 -0.6654,0.5216 -1.0911,0.5216c-0.4257,0 -0.8122,-0.1998 -1.0912,-0.5216c-0.2797,-0.3226 -0.4526,-0.7672 -0.4526,-1.2583c0,-0.4911 0.1729,-0.9357 0.4526,-1.2582c0.279,-0.3218 0.6655,-0.5216 1.0912,-0.5216z" fill="#000000" stroke="none" stroke-width="0.72647" stroke-linecap="butt"/><path d="M240.00588,187.07042c0.9729,0.3263 1.5932,1.4011 1.8095,2.8743c0.2162,1.4728 0.0665,3.5721 -0.6151,5.2625c-0.3989,0.9052 -1.1796,0.6825 -1.6982,0.591c-1.5532,-0.1062 -3.0296,-0.6203 -4.3561,-1.4608c-0.493,-0.1739 -1.2353,-0.5837 -0.9986,-1.4953c0.4765,-1.7565 1.5982,-3.5017 2.682,-4.5694c1.0314,-1.0161 2.2036,-1.5285 3.1765,-1.2023z" fill="#ff0000" stroke="#000000" stroke-width="1.20787" stroke-linecap="round"/><path d="M227.52738,173.44252c1.1476,3.8202 1.117,6.2612 0.5103,8.2358c-0.8086,2.0717 -1.8428,4.2069 -3.4021,5.8827c-1.3087,1.4885 -3.2354,3.0293 -4.9898,3.3761c-0.6883,0.134 0.0159,-1.24 0.1134,-2.1484c0.3902,-3.6381 1.3121,-7.3007 1.2475,-10.9981c-0.1055,-3.6309 -1.2565,-7.1933 -1.7578,-10.8446c-0.1258,-0.9126 -0.7178,-2.305 0,-2.1485c1.963,0.4358 3.9283,2.0625 5.3867,3.6319c1.3722,1.3873 2.0458,3.3025 2.8918,5.0131z" fill="#ff0000" stroke="#000000" stroke-width="1.07998" stroke-linecap="round"/><path d="M252.23758,183.80339c-0.62759,0 -1.13636,-0.26456 -1.13636,-0.59091c0,-0.32635 0.50876,-0.59091 1.13636,-0.59091c0.62759,0 1.13636,0.26456 1.13636,0.59091c0,0.32635 -0.50876,0.59091 -1.13636,0.59091z" fill="none" stroke="#000000" stroke-width="1.45293" stroke-linecap="butt"/></g></g></svg>