<svg version="1.1" xmlns="http://www.w3.org/2000/svg" xmlns:xlink="http://www.w3.org/1999/xlink" width="23.61013" height="23.57434" viewBox="0,0,23.61013,23.57434"><g transform="translate(-228.37823,-162.22623)"><g data-paper-data="{&quot;isPaintingLayer&quot;:true}" fill="none" fill-rule="nonzero" stroke="none" stroke-width="none" stroke-linecap="none" stroke-linejoin="miter" stroke-miterlimit="10" stroke-dasharray="" stroke-dashoffset="0" font-family="none" font-weight="none" font-size="none" text-anchor="none" style="mix-blend-mode: normal"><path d="M240.1833,165.8228c3.0563,0 5.8263,1.0788 7.8321,2.8209c2.005,1.7428 3.2465,4.1488 3.2465,6.8048c0,2.6559 -1.2415,5.062 -3.2465,6.8048c-2.0058,1.742 -4.7758,2.8208 -7.8321,2.8208c-3.0562,0 -5.8262,-1.0788 -7.832,-2.8208c-2.005,-1.7428 -3.2466,-4.1489 -3.2466,-6.8048c0,-2.656 1.2416,-5.062 3.2466,-6.8048c2.0058,-1.7421 4.7758,-2.8209 7.832,-2.8209z" id="ID0.3849619720131159" fill="#ff0000" stroke="#000000" stroke-width="1.45293" stroke-linecap="butt"/><path d="M243.7589,163.5388c1.8491,-1.005 4.3801,0.8892 5.9005,2.3364c1.1191,1.1458 1.1966,3.0945 1.2007,4.6379c0.0055,1.6153 -0.2895,3.3023 -1.1698,4.7049c-0.6758,1.0754 -1.9225,2.0951 -3.1527,2.0951c-1.2301,0 -2.3451,-0.8014 -3.1526,-2.0951c-0.8076,-1.2945 -1.3448,-3.3142 -1.307,-5.0536c0.0494,-2.2318 -0.2635,-5.5683 1.6809,-6.6256z" id="ID0.257101490162313" fill="#ffffff" stroke="#000000" stroke-width="1.38359" stroke-linecap="butt"/><path d="M247.6176,171.3704c0.4257,0 0.8122,0.1998 1.0911,0.5216c0.2797,0.3225 0.4526,0.7671 0.4526,1.2582c0,0.4911 -0.1729,0.9357 -0.4526,1.2583c-0.2789,0.3218 -0.6654,0.5216 -1.0911,0.5216c-0.4257,0 -0.8122,-0.1998 -1.0912,-0.5216c-0.2797,-0.3226 -0.4526,-0.7672 -0.4526,-1.2583c0,-0.4911 0.1729,-0.9357 0.4526,-1.2582c0.279,-0.3218 0.6655,-0.5216 1.0912,-0.5216z" id="ID0.13991053588688374" fill="#000000" stroke="none" stroke-width="0.72647" stroke-linecap="butt"/><path d="M236.4429,164.7125c1.8198,-1.4014 4.7881,-2.4264 6.6799,-1.2379c1.8401,1.2495 1.381,4.3471 1.3802,6.5018c-0.0007,1.8198 -0.5288,3.9157 -1.3839,5.264c-0.855,1.3476 -2.0355,2.1823 -3.3381,2.1823c-1.3025,0 -2.483,-0.8347 -3.3381,-2.1823c-0.855,-1.3483 -1.3839,-3.2698 -1.3839,-5.264c0,-1.9941 -0.0349,-4.143 1.3839,-5.2639z" id="ID0.257101490162313" fill="#ffffff" stroke="#000000" stroke-width="1.45293" stroke-linecap="butt"/><path d="M240.6176,171.3204c0.4257,0 0.8122,0.1998 1.0911,0.5216c0.2797,0.3225 0.4526,0.7671 0.4526,1.2582c0,0.4911 -0.1729,0.9357 -0.4526,1.2583c-0.2789,0.3218 -0.6654,0.5216 -1.0911,0.5216c-0.4257,0 -0.8122,-0.1998 -1.0912,-0.5216c-0.2797,-0.3226 -0.4526,-0.7672 -0.4526,-1.2583c0,-0.4911 0.1729,-0.9357 0.4526,-1.2582c0.279,-0.3218 0.6655,-0.5216 1.0912,-0.5216z" id="ID0.13991053588688374" fill="#000000" stroke="none" stroke-width="0.72647" stroke-linecap="butt"/><path d="M243.1724,180.8508c0,0 -0.948,0.6473 -1.4529,0.5448c-0.9851,-0.2092 -0.9793,-0.3225 -2.6516,-1.4529" id="ID0.5298761413432658" fill="none" stroke="#000000" stroke-width="1.45293" stroke-linecap="round"/></g></g></svg>