<svg version="1.1" xmlns="http://www.w3.org/2000/svg" xmlns:xlink="http://www.w3.org/1999/xlink" width="55.55937" height="34.71372" viewBox="0,0,55.55937,34.71372"><g transform="translate(-212.47658,-162.64314)"><g data-paper-data="{&quot;isPaintingLayer&quot;:true}" fill-rule="nonzero" stroke-linejoin="miter" stroke-miterlimit="10" stroke-dasharray="" stroke-dashoffset="0" style="mix-blend-mode: normal"><path d="M238.02262,162.64551c2.459,-0.058 4.838,0.963 7.2,1.65c1.47,0.427 3.324,0.556 4.4,1.7c1.19,1.266 1.136,3.313 1.75,4.95c0.577,1.528 1.425,2.987 1.95,4.55c0.438,1.319 0.181,2.895 1,4c0.613,0.895 2.727,0.253 2.9,1.45c0.682,4.785 1.726,10.298 -0.7,14.5c-1.316,2.278 -5.364,0.744 -7.9,0.15c-1.907,-0.446 -3.912,-1.416 -5,-3.1c-1.987,-3.079 -1.887,-7.103 -3.6,-10.4c-0.648,-1.247 -1.76,-2.792 -3.2,-2.75c-1.435,0.044 -2.476,1.754 -3,3.1c-1.182,3.238 -0.441,7.066 -1.95,10.2c-0.796,1.653 -2.868,2.302 -4.45,3.25c-0.977,0.586 -1.919,1.41 -3.1,1.45c-2.213,0.074 -4.548,-0.203 -6.55,-1.15c-1.355,-0.643 -1.974,-2.212 -2.95,-3.3c-0.672,-0.743 -1.774,-1.262 -2,-2.2c-0.39,-1.619 -0.616,-3.547 0.25,-5c0.762,-1.35 2.912,-1.232 4.05,-2.4c0.578,-0.593 0.48,-1.592 0.65,-2.4c0.226,-1.072 0.332,-2.172 0.65,-3.25c0.617,-1.993 0.853,-4.237 2.15,-5.95c2.128,-2.797 4.763,-5.437 7.85,-7.05c2.893,-1.512 6.305,-1.922 9.6,-2z" fill="#000000" stroke="none" stroke-width="1" stroke-linecap="round"/><path d="M255.95712,194.11271c-0.8596,0.8707 -2.6223,0.2898 -3.6513,-0.4161c-0.6376,-0.439 -0.2897,-1.4949 -0.1615,-2.3203c0.5152,-3.2996 1.0972,-6.6953 2.1367,-9.7982c0.2601,-0.7756 1.0092,-0.7592 1.2884,-0.4064c0.647,0.8188 0.6101,1.9585 0.7128,2.9672c0.2351,1.6937 0.3651,3.4332 0.2978,5.1143c-0.0665,1.6299 0.4855,3.7332 -0.6229,4.8595z" fill="#6cb552" stroke="none" stroke-width="1" stroke-linecap="round"/><path d="M252.72262,178.74551c0.254,0.704 0.578,1.703 0.1,2.25c-1.028,1.172 -2.698,1.574 -4.05,2.35c-1.333,0.765 -2.545,1.897 -4.05,2.2c-0.892,0.234 -2.184,0.105 -2.65,-0.7c-0.56,-0.97 -0.549,-2.673 0.3,-3.35c2.645,-2.107 5.958,-3.408 9.2,-4.3c0.81,-0.223 0.928,0.956 1.15,1.55z" fill="#186d2e" stroke="none" stroke-width="1" stroke-linecap="round"/><path d="M252.71162,180.87501c0.2086,-0.0167 0.5309,-0.2542 0.1143,0.5286c-1.6683,3.1305 -3.0475,6.5092 -5.3059,9.2495c-0.584,0.7083 -2.0241,1.0636 -2.7826,0.5168c-1.0567,-0.8758 -1.776,-2.5269 -1.4885,-3.8635c0.3173,-1.4753 1.9164,-2.3763 3.12,-3.2856c1.3472,-1.0174 2.9193,-1.7817 4.4426,-2.5502c0.6187,-0.3078 1.2537,-0.5834 1.9001,-0.5956z" fill="#2bb14b" stroke="none" stroke-width="1" stroke-linecap="round"/><path d="M251.82262,175.49551c0.216,0.469 -0.106,1.127 -0.55,1.45c-1.303,0.944 -2.968,1.265 -4.4,2c-1.588,0.815 -3.003,2.194 -4.75,2.7c-0.548,0.158 -1.775,-0.307 -1.5,-0.8c0.831,-1.466 2.515,-2.503 4,-3.45c1.759,-1.087 3.587,-2.031 5.65,-2.6c0.555,-0.153 1.31,0.174 1.55,0.7z" fill="#189364" stroke="none" stroke-width="1" stroke-linecap="round"/><path d="M251.17262,173.24551c0.141,0.497 -0.106,1.127 -0.55,1.45c-1.303,0.944 -2.971,1.259 -4.4,2c-1.777,0.922 -3.324,2.324 -5.2,3.05c-0.471,0.15 -1.46,-0.098 -1.1,-0.7c1.438,-2.406 3.211,-4.732 5.35,-6.5c1.157,-0.956 2.755,-1.504 4.3,-1.35c0.861,0.087 1.363,1.216 1.6,2.05z" fill="#6cb552" stroke="none" stroke-width="1" stroke-linecap="round"/><path d="M253.82262,181.34551c0.492,0.228 0.446,0.905 0.4,1.55c-0.34,2.632 -0.734,5.28 -1.5,7.8c-0.287,0.945 -0.711,2.226 -1.65,2.5c-1.225,0.267 -3.123,-0.067 -3.55,-1.2c-0.657,-1.742 0.265,-3.79 1,-5.5c0.732,-1.7 2.024,-3.229 3.4,-4.55c0.458,-0.461 1.304,-0.873 1.9,-0.6z" fill="#186d2e" stroke="none" stroke-width="1" stroke-linecap="round"/><path d="M249.92262,169.94551c0.013,0.661 -0.746,1.105 -1.3,1.45c-0.769,0.474 -1.784,0.466 -2.55,0.95c-1.084,0.685 -2.136,1.523 -3,2.5c-1.153,1.376 -1.597,3.352 -3,4.5c-0.405,0.331 -1.245,-0.454 -1.25,-0.95c0.136,-1.821 0.926,-3.568 1.6,-5.2c0.955,-2.312 1.47,-5.104 3.4,-6.7c1.258,-1.039 3.48,-0.805 4.9,0c1.074,0.61 1.252,2.237 1.2,3.45z" fill="#2bb14b" stroke="none" stroke-width="1" stroke-linecap="round"/><path d="M241.67262,163.84551c1.01,0.233 2.48,0.923 2.4,1.95c-0.154,1.984 -2.164,3.418 -2.9,5.3c-0.972,2.355 -0.856,5.144 -2.2,7.35c-0.365,0.598 -1.845,0.155 -2,-0.65c-0.621,-3.218 -0.362,-6.547 -0.1,-9.8c0.103,-1.274 0.241,-2.805 1.2,-3.65c0.892,-0.783 2.421,-0.771 3.6,-0.5z" fill="#6cb552" stroke="none" stroke-width="1" stroke-linecap="round"/><path d="M235.02262,163.49551c0.951,-0.167 2.284,-0.167 2.75,0.65c0.49,0.869 -0.567,1.813 -0.7,2.7c-0.252,1.685 -0.384,3.389 -0.45,5c-0.074,1.83 0.338,3.7 0,5.5c-0.086,0.459 -0.97,1.297 -1.25,0.7c-1.014,-2.423 -1.232,-5.125 -1.75,-7.7c-0.345,-1.715 -1.113,-3.494 -0.75,-5.2c0.19,-0.869 1.262,-1.492 2.15,-1.65z" fill="#189364" stroke="none" stroke-width="1" stroke-linecap="round"/><path d="M233.27072,166.70321c0.6048,2.5894 1.0294,5.2841 1.3897,7.8009c0.1879,1.3194 1.0337,4.282 0.4214,3.9809c-0.8545,-0.4201 -2.4641,-3.7166 -3.7262,-5.5502c-1.2149,-1.7656 -3.2185,-3.2226 -3.8179,-5.3176c-0.2383,-0.8418 0.9846,-1.7017 1.808,-2.1363c0.9639,-0.5051 2.1813,-0.9824 3.1998,-0.6213c0.7087,0.2692 0.6225,1.2089 0.7252,1.8436z" fill="#2bb14b" stroke="none" stroke-width="1" stroke-linecap="round"/><path d="M227.32262,167.89551c1.388,0.624 2.143,2.12 2.95,3.35c1.536,2.335 4.514,6.733 4.05,7.3c-0.464,0.567 -4.447,-2.607 -6.5,-4.15c-1.296,-0.974 -2.805,-1.923 -3.6,-3.35c-0.353,-0.644 0.108,-1.637 0.65,-2.15c0.709,-0.654 1.646,-1.361 2.45,-1z" fill="#186d2e" stroke="none" stroke-width="1" stroke-linecap="round"/><path d="M227.12262,172.99551c2.362,1.763 6.61,4.91 6.75,5.65c0.14,0.739 -3.997,-1.223 -5.9,-1.9c-2.24,-0.796 -4.774,-1.138 -6.65,-2.6c-0.604,-0.502 -0.104,-1.738 0.4,-2.35c0.469,-0.565 1.368,-0.953 2.1,-0.8c1.286,0.268 2.306,1.208 3.3,2z" fill="#6cb552" stroke="none" stroke-width="1" stroke-linecap="round"/><path d="M234.07262,179.09551c0.58,0.345 -0.199,0.955 -0.75,0.9c-2.197,-0.223 -4.318,-0.976 -6.45,-1.55c-2.053,-0.553 -4.171,-0.987 -6.05,-1.95c-0.493,-0.223 -0.788,-0.894 -0.55,-1.35c0.257,-0.483 1.028,-0.628 1.55,-0.55c1.593,0.237 3.116,0.961 4.6,1.5c2.572,0.933 5.328,1.62 7.65,3z" fill="#189364" stroke="none" stroke-width="1" stroke-linecap="round"/><path d="M233.32262,180.49551c0.575,0.339 -0.429,1.637 -1.1,1.7c-2.198,0.207 -4.43,-0.403 -6.6,-0.85c-1.968,-0.405 -4.096,-0.522 -5.75,-1.6c-0.685,-0.475 -0.659,-1.724 -0.35,-2.45c0.215,-0.503 1.028,-0.628 1.55,-0.55c1.593,0.237 3.059,1.032 4.6,1.5c2.538,0.77 5.367,0.893 7.65,2.25z" fill="#186d2e" stroke="none" stroke-width="1" stroke-linecap="round"/><path d="M231.87262,182.74551c0.689,0.367 0.525,1.526 0.45,2.3c-0.109,0.985 0.009,2.826 -1,2.9c-2.345,0.036 -4.329,-1.894 -6.55,-2.65c-1.536,-0.523 -3.321,-0.443 -4.7,-1.3c-0.796,-0.495 -1.452,-1.565 -1.45,-2.55c0.06,-0.719 0.858,-1.533 1.6,-1.55c1.739,-0.041 3.406,0.979 5.15,1.4c2.136,0.529 4.508,0.391 6.5,1.45z" fill="#189364" stroke="none" stroke-width="1" stroke-linecap="round"/><path d="M231.45302,190.11621c-0.1366,0.8221 -0.4652,1.8266 -1.1848,2.3279c-0.5804,0.3551 -1.4951,0.3691 -2.0808,-0.1742c-2.3325,-2.1667 -5.7,-5.6413 -5.9839,-7.4596c-0.1646,-1.0588 3.394,0.8242 5.0402,1.3926c1.3048,0.4501 2.8126,0.6985 3.8068,1.6594c0.5466,0.5278 0.5264,1.5021 0.4025,2.2539z" fill="#2bb14b" stroke="none" stroke-width="1" stroke-linecap="round"/><path d="M228.65302,194.16621c-0.9346,0.5124 -2.4509,1.0204 -3.2296,0.2873c-1.8735,-1.883 -2.7198,-4.6286 -3.6605,-7.0826c-0.3053,-0.7972 -0.4219,-2.699 0.0415,-2.5629c0.6612,0.1958 1.5392,2.2984 2.4511,3.329c1.3621,1.5387 3.1883,2.7421 4.435,4.432c0.2945,0.4233 0.4283,1.3421 -0.0375,1.5972z" fill="#6cb552" stroke="none" stroke-width="1" stroke-linecap="round"/><path d="M221.62262,185.84551c0.047,0.368 0.08,0.564 0.25,1.1c0.674,2.11 2,4.045 2.15,6.3c0.053,0.799 -0.886,1.537 -1.65,1.75c-0.545,0.152 -1.336,-0.258 -1.5,-0.8c-0.476,-1.569 -0.37,-3.204 -0.25,-4.8c0.117,-1.562 0.545,-3.124 0.95,-4.55c0.107,-0.394 0,0.638 0.05,1z" fill="#189364" stroke="none" stroke-width="1" stroke-linecap="round"/><path d="M221.02262,184.54551c0.353,0.684 -0.14,1.565 -0.2,2.35c-0.173,1.247 -0.436,2.494 -0.5,3.75c-0.056,1.097 0.784,2.724 0,3.3c-0.791,0.573 -2.774,0.002 -3.2,-1.05c-0.637,-1.629 0.22,-3.541 0.7,-5.25c0.318,-1.105 0.905,-2.203 1.7,-3c0.353,-0.354 1.276,-0.533 1.5,-0.1z" fill="#186d2e" stroke="none" stroke-width="1" stroke-linecap="round"/><path d="M217.63302,188.01491c-0.4024,1.2655 -0.1125,3.0002 -1.1209,3.8038c-0.6611,0.5275 -1.8713,-0.3787 -2.3179,-1.0735c-0.5889,-0.9174 -0.7805,-2.1427 -0.5565,-3.228c0.1892,-0.9121 0.9846,-1.7017 1.808,-2.1363c0.9639,-0.5051 2.69,-1.2701 3.1998,-0.6213c0.5432,0.6952 -0.7036,2.17 -1.0125,3.2553z" fill="#2bb14b" stroke="none" stroke-width="1" stroke-linecap="round"/><path d="M258.82262,171.99551c0.714,0.01 1.468,1.383 1.55,2.3c0.128,2.561 -0.572,7.655 -0.95,7.65c-0.377,-0.004 -1.824,-5.007 -2.05,-7.6c0.007,-0.934 0.768,-2.359 1.45,-2.35z" fill="#866e93" stroke="#000000" stroke-width="1" stroke-linecap="round"/><path d="M265.22262,172.29551c0.597,0.254 0.683,1.64 0.35,2.35c-1.344,2.61 -4.869,7.269 -5.15,7.15c-0.28,-0.119 1.334,-5.64 2.6,-8.2c0.407,-0.752 1.575,-1.565 2.2,-1.3z" fill="#866e93" stroke="#000000" stroke-width="1" stroke-linecap="round"/><path d="M259.70742,181.64321c2.1562,0 4.1104,0.7611 5.5255,1.9902c1.4146,1.2295 2.2905,2.927 2.2905,4.8008c0,1.8738 -0.8759,3.5713 -2.2905,4.8008c-1.4151,1.2291 -3.3693,1.9902 -5.5255,1.9902c-2.1563,0 -4.1105,-0.7611 -5.5256,-1.9902c-1.4146,-1.2295 -2.2905,-2.927 -2.2905,-4.8008c0,-1.8738 0.8759,-3.5713 2.2905,-4.8008c1.4151,-1.2291 3.3693,-1.9902 5.5256,-1.9902z" fill="#ff0000" stroke="#000000" stroke-width="1.02506" stroke-linecap="butt"/><path d="M262.26622,180.10091c1.3045,-0.7091 3.0902,0.6273 4.1628,1.6483c0.7895,0.8084 0.8442,2.1832 0.8471,3.2721c0.0039,1.1396 -0.2042,2.3299 -0.8253,3.3194c-0.4768,0.7587 -1.3563,1.4781 -2.2242,1.4781c-0.8679,0 -1.6545,-0.5654 -2.2242,-1.4781c-0.5698,-0.9133 -0.9488,-2.3382 -0.9222,-3.5654c0.0349,-1.5745 -0.1858,-3.9285 1.186,-4.6744z" fill="#ffffff" stroke="#000000" stroke-width="0.97613" stroke-linecap="butt"/><path d="M264.96452,185.60091c0.3003,0 0.573,0.141 0.7698,0.368c0.1973,0.2276 0.3193,0.5413 0.3193,0.8877c0,0.3465 -0.122,0.6602 -0.3193,0.8877c-0.1968,0.2271 -0.4695,0.368 -0.7698,0.368c-0.3004,0 -0.5731,-0.1409 -0.7699,-0.368c-0.1973,-0.2275 -0.3193,-0.5412 -0.3193,-0.8877c0,-0.3464 0.122,-0.6601 0.3193,-0.8877c0.1968,-0.227 0.4695,-0.368 0.7699,-0.368z" fill="#000000" stroke="none" stroke-width="0.51253" stroke-linecap="butt"/><path d="M257.02472,180.88901c1.2839,-0.9887 3.3781,-1.7118 4.7127,-0.8734c1.2982,0.8816 0.9743,3.067 0.9738,4.5872c-0.0005,1.2839 -0.3731,2.7625 -0.9764,3.7137c-0.6032,0.9508 -1.4361,1.5397 -2.355,1.5397c-0.919,0 -1.7518,-0.5889 -2.3551,-1.5397c-0.6032,-0.9512 -0.9764,-2.3068 -0.9764,-3.7137c0,-1.4069 -0.0246,-2.923 0.9764,-3.7138z" fill="#ffffff" stroke="#000000" stroke-width="1.02506" stroke-linecap="butt"/><path d="M260.01452,185.55091c0.3003,0 0.573,0.141 0.7698,0.368c0.1973,0.2276 0.3193,0.5413 0.3193,0.8877c0,0.3465 -0.122,0.6602 -0.3193,0.8877c-0.1968,0.2271 -0.4695,0.368 -0.7698,0.368c-0.3004,0 -0.5731,-0.1409 -0.7699,-0.368c-0.1973,-0.2275 -0.3193,-0.5412 -0.3193,-0.8877c0,-0.3464 0.122,-0.6601 0.3193,-0.8877c0.1968,-0.227 0.4695,-0.368 0.7699,-0.368z" fill="#000000" stroke="none" stroke-width="0.51253" stroke-linecap="butt"/><path d="M245.22262,190.89551c0.219,0.27 -0.071,0.773 0.1,1.1c0.181,0.267 0.75,0.208 0.85,0.5c0.07,0.217 -0.166,0.529 -0.35,0.55c-0.494,0.038 -1.034,-0.119 -1.35,-0.4c-0.223,-0.208 -0.212,-0.596 -0.2,-0.9c0.011,-0.284 0.11,-0.595 0.322,-0.778c0.169,-0.145 0.495,-0.234 0.628,-0.072z" fill="#8c5340" stroke="none" stroke-width="1" stroke-linecap="round"/><path d="M248.12262,192.39551c0.219,0.27 -0.071,0.773 0.1,1.1c0.181,0.267 0.75,0.208 0.85,0.5c0.07,0.217 -0.166,0.529 -0.35,0.55c-0.494,0.038 -1.034,-0.119 -1.35,-0.4c-0.223,-0.208 -0.212,-0.596 -0.2,-0.9c0.011,-0.284 0.11,-0.595 0.322,-0.778c0.169,-0.145 0.495,-0.234 0.628,-0.072z" fill="#8c5340" stroke="none" stroke-width="1" stroke-linecap="round"/><path d="M251.07262,192.89551c0.219,0.27 -0.071,0.773 0.1,1.1c0.181,0.267 0.75,0.208 0.85,0.5c0.07,0.217 -0.166,0.529 -0.35,0.55c-0.494,0.038 -1.034,-0.119 -1.35,-0.4c-0.223,-0.208 -0.212,-0.596 -0.2,-0.9c0.011,-0.284 0.11,-0.595 0.322,-0.778c0.169,-0.145 0.495,-0.234 0.628,-0.072z" fill="#8c5340" stroke="none" stroke-width="1" stroke-linecap="round"/><path d="M254.12262,193.74551c0.219,0.27 -0.071,0.773 0.1,1.1c0.181,0.267 0.75,0.208 0.85,0.5c0.07,0.217 -0.166,0.529 -0.35,0.55c-0.494,0.038 -1.034,-0.119 -1.35,-0.4c-0.223,-0.208 -0.212,-0.596 -0.2,-0.9c0.011,-0.284 0.11,-0.595 0.322,-0.778c0.169,-0.145 0.495,-0.234 0.628,-0.072z" fill="#8c5340" stroke="none" stroke-width="1" stroke-linecap="round"/><path d="M223.57262,194.49551c0.219,0.27 -0.071,0.773 0.1,1.1c0.181,0.267 0.75,0.208 0.85,0.5c0.07,0.217 -0.166,0.529 -0.35,0.55c-0.494,0.038 -1.034,-0.119 -1.35,-0.4c-0.223,-0.208 -0.212,-0.596 -0.2,-0.9c0.011,-0.284 0.11,-0.595 0.322,-0.778c0.169,-0.145 0.495,-0.234 0.628,-0.072z" fill="#8c5340" stroke="none" stroke-width="1" stroke-linecap="round"/><path d="M219.27262,193.99551c0.219,0.27 -0.071,0.773 0.1,1.1c0.181,0.267 0.75,0.208 0.85,0.5c0.07,0.217 -0.166,0.529 -0.35,0.55c-0.494,0.038 -1.034,-0.119 -1.35,-0.4c-0.223,-0.208 -0.212,-0.596 -0.2,-0.9c0.011,-0.284 0.11,-0.595 0.322,-0.778c0.169,-0.145 0.495,-0.234 0.628,-0.072z" fill="#8c5340" stroke="none" stroke-width="1" stroke-linecap="round"/><path d="M261.19788,192.77656c-0.33471,0 -0.60606,-0.1411 -0.60606,-0.31515c0,-0.17405 0.27134,-0.31515 0.60606,-0.31515c0.33471,0 0.60606,0.1411 0.60606,0.31515c0,0.17405 -0.27134,0.31515 -0.60606,0.31515z" fill="#000000" stroke="#000000" stroke-width="1.45293" stroke-linecap="butt"/></g></g></svg>