<svg version="1.1" xmlns="http://www.w3.org/2000/svg" xmlns:xlink="http://www.w3.org/1999/xlink" width="1198.5" height="1027" viewBox="0,0,1198.5,1027"><defs><radialGradient cx="573" cy="-21" r="491" gradientUnits="userSpaceOnUse" id="color-1"><stop offset="0" stop-color="#ffffff"/><stop offset="1" stop-color="#ffffff" stop-opacity="0"/></radialGradient><radialGradient cx="398.60223" cy="290.9372" r="72.87599" gradientUnits="userSpaceOnUse" id="color-2"><stop offset="0" stop-color="#990000"/><stop offset="1" stop-color="#660000"/></radialGradient></defs><g transform="translate(134.5,512)"><g data-paper-data="{&quot;isPaintingLayer&quot;:true}" fill-rule="nonzero" stroke-linejoin="miter" stroke-miterlimit="10" stroke-dasharray="" stroke-dashoffset="0" style="mix-blend-mode: normal"><path d="M-134.5,515v-596h774v596z" fill="#000000" stroke="none" stroke-width="none" stroke-linecap="butt"/><path d="M82,-21c0,-271.17181 219.82819,-491 491,-491c271.17181,0 491,219.82819 491,491c0,271.17181 -219.82819,491 -491,491c-271.17181,0 -491,-219.82819 -491,-491z" fill="url(#color-1)" stroke="none" stroke-width="none" stroke-linecap="butt"/><text transform="translate(2.46004,73.76875) scale(0.5,0.5)" font-size="40" xml:space="preserve" fill="#9966ff" fill-rule="nonzero" stroke="none" stroke-width="1" stroke-linecap="butt" stroke-linejoin="miter" stroke-miterlimit="10" stroke-dasharray="" stroke-dashoffset="0" font-family="Sans Serif" font-weight="normal" text-anchor="start" style="mix-blend-mode: normal"><tspan x="0" dy="0">Connecting to Servers...</tspan></text><g><path d="M432.81535,274.29196c10.73353,12.62721 18.66811,31.34323 17.00274,48.25014c-1.02036,8.74354 -14.02997,10.16321 -22.18347,10.23838c-23.78683,3.4914 -48.17121,3.65864 -71.66819,0c-8.12249,-0.72675 -20.77366,-1.07157 -22.18347,-10.23838c-1.6959,-16.93086 6.50175,-35.89587 17.00274,-48.25014c10.50474,-12.35756 25.00872,-20.00557 41.01506,-20.00557c16.00587,0 30.80017,7.98907 41.01459,20.00557z" data-paper-data="{&quot;index&quot;:null}" fill="url(#color-2)" stroke="#000000" stroke-width="5" stroke-linecap="round"/><path d="M423.99618,201.82468c9.41908,8.18732 15.25187,19.49022 15.25187,31.96757c0,12.47688 -5.83279,23.78025 -15.25187,31.96757c-9.42284,8.18356 -22.43574,13.25155 -36.79315,13.25155c-14.35788,0 -27.37078,-5.06798 -36.79362,-13.25155c-9.41908,-8.18732 -15.2514,-19.49069 -15.2514,-31.96757c0,-12.47735 5.83232,-23.78025 15.2514,-31.96757c9.42284,-8.18403 22.43574,-13.25202 36.79362,-13.25202c14.35741,0 27.37031,5.06798 36.79315,13.25202z" data-paper-data="{&quot;index&quot;:null}" fill="#ff0000" stroke="#000000" stroke-width="5" stroke-linecap="butt"/><path d="M378.30211,208.96862c0.17758,8.17135 -2.34608,17.65949 -6.14002,23.74079c-3.79347,6.07754 -9.03152,9.84236 -14.81028,9.84236c-5.77923,0 -11.63597,-4.79034 -14.81075,-9.84236c-4.13547,-6.58913 -5.52132,-14.51431 -5.49548,-22.10267c0.01926,-7.25058 0.38334,-16.40518 5.64065,-21.78791c7.14253,-6.79865 19.03266,-15.69722 27.71935,-10.97593c9.1344,4.96698 7.66446,20.64118 7.89653,31.12573z" data-paper-data="{&quot;index&quot;:null}" fill="#ffffff" stroke="#000000" stroke-width="5" stroke-linecap="butt"/><path d="M357.40443,217.08453c1.31397,1.51504 2.12622,3.60368 2.12622,5.91077c0,2.30709 -0.81225,4.39573 -2.12622,5.91124c-1.31069,1.51175 -3.12638,2.45037 -5.12624,2.45037c-1.99985,0 -3.81555,-0.93862 -5.12577,-2.45037c-1.31397,-1.51551 -2.12622,-3.60415 -2.12622,-5.91124c0,-2.30709 0.81225,-4.39573 2.12622,-5.91077c1.31022,-1.51175 3.12591,-2.45037 5.12577,-2.45037c1.99985,0 3.81555,0.93862 5.12624,2.45037z" data-paper-data="{&quot;index&quot;:null}" fill="#000000" stroke="none" stroke-width="0.72647" stroke-linecap="butt"/><path d="M411.27595,208.08543c0,9.36835 -2.48467,18.39517 -6.50128,24.72921c-4.01709,6.33075 -9.56284,10.252 -15.68172,10.252c-6.11935,0 -11.6651,-3.92125 -15.68172,-10.252c-4.01709,-6.33404 -6.49799,-16.18015 -6.50128,-24.72921c-0.00376,-10.12234 -2.16052,-24.67424 6.4839,-30.54414c8.88729,-5.58333 22.83177,-0.76809 31.38082,5.8154c6.66523,5.26576 6.50128,15.36086 6.50128,24.72874z" data-paper-data="{&quot;index&quot;:null}" fill="#ffffff" stroke="#000000" stroke-width="5" stroke-linecap="butt"/><path d="M390.28901,216.84964c1.31397,1.51504 2.12622,3.60368 2.12622,5.91077c0,2.30709 -0.81225,4.39573 -2.12622,5.91124c-1.31069,1.51175 -3.12638,2.45037 -5.12624,2.45037c-1.99985,0 -3.81555,-0.93862 -5.12577,-2.45037c-1.31397,-1.51551 -2.12622,-3.60415 -2.12622,-5.91124c0,-2.30709 0.81225,-4.39573 2.12622,-5.91077c1.31022,-1.51175 3.12591,-2.45037 5.12577,-2.45037c1.99985,0 3.81555,0.93862 5.12624,2.45037z" data-paper-data="{&quot;index&quot;:null}" fill="#000000" stroke="none" stroke-width="0.72647" stroke-linecap="butt"/><path d="M392.44295,254.90509c-7.85613,5.31039 -7.82888,5.84265 -12.45668,6.82543c-2.37192,0.48152 -6.82543,-2.55936 -6.82543,-2.55936" data-paper-data="{&quot;index&quot;:null}" fill="none" stroke="#000000" stroke-width="6.5" stroke-linecap="round"/><path d="M377.58945,315.34226c5.49126,4.99235 9.55109,12.39138 8.69891,19.07588c-0.52193,3.45664 -7.17823,4.01803 -11.34941,4.04762c-12.17011,1.38021 -24.64605,1.44645 -36.66772,0c-4.15567,-0.28751 -10.6283,-0.42374 -11.34941,-4.04762c-0.86815,-6.69389 3.32604,-14.19158 8.69891,-19.07588c5.37428,-4.88571 12.79539,-7.90921 20.98412,-7.90921c8.1892,0 15.75829,3.1588 20.98459,7.90921z" data-paper-data="{&quot;index&quot;:null}" fill="#ff0000" stroke="#000000" stroke-width="5" stroke-linecap="round"/><path d="M433.02346,316.04693c5.49126,4.99235 9.55109,12.39138 8.69891,19.07588c-0.52193,3.45664 -7.17823,4.01803 -11.34941,4.04762c-12.17011,1.38021 -24.64605,1.44645 -36.66772,0c-4.15567,-0.28751 -10.6283,-0.42374 -11.34941,-4.04762c-0.86815,-6.69389 3.32604,-14.19158 8.69891,-19.07588c5.37428,-4.88571 12.79539,-7.90921 20.98412,-7.90921c8.1892,0 15.75829,3.1588 20.98459,7.90921z" data-paper-data="{&quot;index&quot;:null}" fill="#ff0000" stroke="#000000" stroke-width="5" stroke-linecap="round"/></g></g></g></svg>