<svg version="1.1" xmlns="http://www.w3.org/2000/svg" xmlns:xlink="http://www.w3.org/1999/xlink" width="64.67803" height="62.13063" viewBox="0,0,64.67803,62.13063"><g transform="translate(-207.71913,-148.87654)"><g data-paper-data="{&quot;isPaintingLayer&quot;:true}" fill-rule="nonzero" stroke-linejoin="miter" stroke-miterlimit="10" stroke-dasharray="" stroke-dashoffset="0" style="mix-blend-mode: normal"><g stroke="#000000" stroke-linecap="round"><path d="M241.05703,203.53311c-1.5991,-3.0457 -1.7368,-7.1591 -1.9246,-10.8103c-0.0706,-1.3721 0.6869,-2.6139 1.3014,-3.8028c0.5174,-1.0016 0.9691,-2.2255 1.9926,-2.4325c2.9688,-0.83 6.2787,-1.4366 9.1857,-0.4713c3.1068,1.031 6.7782,2.9484 7.4839,6.1213c1.3959,5.6092 1.4902,12.5537 -1.8805,17.2917c-1.9121,2.6874 -6.9374,0.6465 -9.8961,-0.4501c-2.5873,-0.9667 -4.8392,-2.7497 -6.2624,-5.446z" fill="#f6f6c6" stroke-width="0.49836"/><path d="M255.88873,158.52921c4.5699,-0.7297 12.3831,-2.2258 14.3636,2.1876c3.4911,7.7809 1.3659,17.743 -2.2489,25.4114c-1.924,4.3618 -7.7544,6.0681 -12.5186,6.661c-4.458,0.5556 -9.0452,-1.265 -13.0778,-3.3094c-1.4129,-0.591 -1.712,-2.481 -2.1693,-4.0699c-0.5433,-1.8861 -1.2771,-3.8894 -0.7826,-5.8428c1.3161,-5.1981 2.6926,-11.0755 5.8653,-14.9983c2.8197,-3.4707 6.5697,-5.3903 10.5683,-6.0396z" fill="#ffffcc" stroke-width="0.73093"/></g><g stroke="#000000" stroke-linecap="round"><path d="M217.38843,203.74701c-3.1468,-0.2317 -8.5659,-0.4629 -9.1887,-3.7017c-1.0978,-5.7101 1.873,-11.9879 5.4729,-16.5102c1.9601,-2.593 6.0962,-2.812 9.3506,-2.4591c3.0452,0.3296 5.804,2.2564 8.1597,4.2447c0.845,0.6135 0.7474,1.9145 0.802,3.0405c0.065,1.3367 0.2381,2.781 -0.396,3.9998c-1.6876,3.2431 -3.5217,6.9276 -6.2416,9.0337c-2.4147,1.8614 -5.2038,2.5477 -7.9589,2.3523z" fill="#f6f6c6" stroke-width="0.49836"/><path d="M237.73263,164.18991c1.2563,4.8863 0.0668,10.8044 -0.8955,16.0795c-0.3617,1.9823 -1.8613,3.4997 -3.1391,4.9896c-1.0761,1.2554 -2.1333,2.8502 -3.664,2.8009c-4.5175,0.1843 -9.4465,-0.0652 -13.2707,-2.4225c-4.0874,-2.5186 -8.6819,-6.4928 -8.6201,-11.2597c-0.1024,-8.4771 2.103,-18.4218 8.511,-24.0491c3.6349,-3.1918 10.1205,1.415 13.9743,3.9771c3.3675,2.2519 5.9811,5.5558 7.1041,9.8842z" fill="#ffffcc" stroke-width="0.73093"/></g><path d="M240.36173,178.94361c1.7178,0.4198 3.2762,3.304 3.3381,5.4324c0.097,3.2662 -1.895,6.1334 -3.1626,9.071c-0.7521,1.747 -1.4622,3.3951 -2.6898,4.6227c-1.1088,1.0947 -2.5444,2.2307 -4.0463,2.0712c-1.3522,-0.1432 -2.3763,-1.7028 -2.6738,-3.0535c-0.6544,-1.948 -0.5453,-4.103 0.0097,-6.1778c0.8112,-3.0443 1.8188,-6.1749 3.7572,-8.6857c1.3898,-1.8072 3.7496,-3.7001 5.4675,-3.2803z" fill="#cc0000" stroke="#000000" stroke-width="1.16573" stroke-linecap="round"/><path d="M243.90093,168.41431c3.0563,0 5.8263,1.0788 7.8321,2.8209c2.005,1.7428 3.2465,4.1488 3.2465,6.8048c0,2.6559 -1.2415,5.062 -3.2465,6.8048c-2.0058,1.742 -4.7758,2.8208 -7.8321,2.8208c-3.0562,0 -5.8262,-1.0788 -7.832,-2.8208c-2.005,-1.7428 -3.2466,-4.1489 -3.2466,-6.8048c0,-2.656 1.2416,-5.062 3.2466,-6.8048c2.0058,-1.7421 4.7758,-2.8209 7.832,-2.8209z" fill="#ff0000" stroke="#000000" stroke-width="1.45293" stroke-linecap="butt"/><path d="M247.47653,166.13031c1.8491,-1.005 4.3801,0.8892 5.9005,2.3364c1.1191,1.1458 1.1966,3.0945 1.2007,4.6379c0.0055,1.6153 -0.2895,3.3023 -1.1698,4.7049c-0.6758,1.0754 -1.9225,2.0951 -3.1527,2.0951c-1.2301,0 -2.3451,-0.8014 -3.1526,-2.0951c-0.8076,-1.2945 -1.3448,-3.3142 -1.307,-5.0536c0.0494,-2.2318 -0.2635,-5.5683 1.6809,-6.6256z" fill="#ffffff" stroke="#000000" stroke-width="1.38359" stroke-linecap="butt"/><path d="M251.33523,173.96191c0.4257,0 0.8122,0.1998 1.0911,0.5216c0.2797,0.3225 0.4526,0.7671 0.4526,1.2582c0,0.4911 -0.1729,0.9357 -0.4526,1.2583c-0.2789,0.3218 -0.6654,0.5216 -1.0911,0.5216c-0.4257,0 -0.8122,-0.1998 -1.0912,-0.5216c-0.2797,-0.3226 -0.4526,-0.7672 -0.4526,-1.2583c0,-0.4911 0.1729,-0.9357 0.4526,-1.2582c0.279,-0.3218 0.6655,-0.5216 1.0912,-0.5216z" fill="#000000" stroke="none" stroke-width="0.72647" stroke-linecap="butt"/><path d="M239.71053,167.30401c1.8198,-1.4014 4.7881,-2.4264 6.6799,-1.2379c1.8401,1.2495 1.381,4.3471 1.3802,6.5018c-0.0007,1.8198 -0.5288,3.9157 -1.3839,5.264c-0.855,1.3476 -2.0355,2.1823 -3.3381,2.1823c-1.3025,0 -2.483,-0.8347 -3.3381,-2.1823c-0.855,-1.3483 -1.3839,-3.2698 -1.3839,-5.264c0,-1.9941 -0.0349,-4.143 1.3839,-5.2639z" fill="#ffffff" stroke="#000000" stroke-width="1.45293" stroke-linecap="butt"/><path d="M244.13523,173.91191c0.4257,0 0.8122,0.1998 1.0911,0.5216c0.2797,0.3225 0.4526,0.7671 0.4526,1.2582c0,0.4911 -0.1729,0.9357 -0.4526,1.2583c-0.2789,0.3218 -0.6654,0.5216 -1.0911,0.5216c-0.4257,0 -0.8122,-0.1998 -1.0912,-0.5216c-0.2797,-0.3226 -0.4526,-0.7672 -0.4526,-1.2583c0,-0.4911 0.1729,-0.9357 0.4526,-1.2582c0.279,-0.3218 0.6655,-0.5216 1.0912,-0.5216z" fill="#000000" stroke="none" stroke-width="0.72647" stroke-linecap="butt"/><path d="M216.53143,190.54551c1.069,0.3382 1.8616,1.1999 2.2787,2.3192c0.4175,1.1195 0.4591,2.4965 0.0263,3.8643c-0.4328,1.3677 -1.2589,2.4702 -2.2444,3.1457c-0.9851,0.6756 -2.1291,0.9245 -3.1981,0.5862c-1.0689,-0.3382 -1.8615,-1.1999 -2.2786,-2.3192c-0.4176,-1.1195 -0.4592,-2.4965 -0.0264,-3.8642c0.4328,-1.3678 1.2589,-2.4702 2.2445,-3.1457c0.9851,-0.6757 2.1291,-0.9246 3.198,-0.5863z" fill="#cccc00" stroke="none" stroke-width="0.53624" stroke-linecap="butt"/><path d="M254.25983,197.75781c1.101,0.2119 1.9883,0.9756 2.5326,2.039c0.5447,1.0634 0.7459,2.4262 0.4749,3.835c-0.271,1.4088 -0.9635,2.5997 -1.8639,3.3851c-0.9,0.7854 -2.0074,1.1655 -3.1084,0.9537c-1.1009,-0.2118 -1.9883,-0.9756 -2.5326,-2.0389c-0.5447,-1.0635 -0.7459,-2.4263 -0.4749,-3.8351c0.271,-1.4087 0.9635,-2.5997 1.864,-3.385c0.8999,-0.7855 2.0073,-1.1656 3.1083,-0.9538z" fill="#cccc00" stroke="none" stroke-width="0.53624" stroke-linecap="butt"/><path d="M220.51763,153.46651c0.828,0 1.578,0.35 2.121,0.916c0.543,0.566 0.879,1.347 0.879,2.209c0,0.862 -0.336,1.643 -0.879,2.209c-0.543,0.566 -1.293,0.916 -2.121,0.916c-0.828,0 -1.578,-0.35 -2.121,-0.916c-0.543,-0.566 -0.879,-1.347 -0.879,-2.209c0,-0.862 0.336,-1.643 0.879,-2.209c0.543,-0.566 1.293,-0.916 2.121,-0.916z" fill="#cccc00" stroke="none" stroke-width="1" stroke-linecap="butt"/><path d="M264.47763,163.50651c0.7618,0 1.4518,0.322 1.9513,0.8427c0.4996,0.5207 0.8087,1.2393 0.8087,2.0323c0,0.793 -0.3091,1.5116 -0.8087,2.0323c-0.4995,0.5207 -1.1895,0.8427 -1.9513,0.8427c-0.7618,0 -1.4518,-0.322 -1.9513,-0.8427c-0.4996,-0.5207 -0.8087,-1.2393 -0.8087,-2.0323c0,-0.793 0.3091,-1.5116 0.8087,-2.0323c0.4995,-0.5207 1.1895,-0.8427 1.9513,-0.8427z" fill="#cccc00" stroke="none" stroke-width="0.92" stroke-linecap="butt"/><path d="M245.13986,183.87786c-0.62759,0 -1.13636,-0.26456 -1.13636,-0.59091c0,-0.32635 0.50876,-0.59091 1.13636,-0.59091c0.62759,0 1.13636,0.26456 1.13636,0.59091c0,0.32635 -0.50876,0.59091 -1.13636,0.59091z" fill="none" stroke="#000000" stroke-width="1.45293" stroke-linecap="butt"/></g></g></svg>