<svg version="1.1" xmlns="http://www.w3.org/2000/svg" xmlns:xlink="http://www.w3.org/1999/xlink" width="494.00001" height="344.743" viewBox="0,0,494.00001,344.743"><defs><linearGradient x1="351.50001" y1="142.21995" x2="351.50001" y2="361.99999" gradientUnits="userSpaceOnUse" id="color-1"><stop offset="0" stop-color="#757070"/><stop offset="1" stop-color="#564747"/></linearGradient><linearGradient x1="354.34236" y1="136.84884" x2="354.34236" y2="258.06093" gradientUnits="userSpaceOnUse" id="color-2"><stop offset="0" stop-color="#d11f00"/><stop offset="1" stop-color="#cf6100"/></linearGradient><linearGradient x1="174.00001" y1="100.3933" x2="174.00001" y2="361.99999" gradientUnits="userSpaceOnUse" id="color-3"><stop offset="0" stop-color="#474747"/><stop offset="1" stop-color="#695b5b"/></linearGradient><linearGradient x1="177.38329" y1="94" x2="177.38329" y2="238.28014" gradientUnits="userSpaceOnUse" id="color-4"><stop offset="0" stop-color="#ff2700"/><stop offset="1" stop-color="#ff7800"/></linearGradient></defs><g transform="translate(-2,-17.25699)"><g data-paper-data="{&quot;isPaintingLayer&quot;:true}" fill-rule="nonzero" stroke="none" stroke-width="0" stroke-linecap="butt" stroke-linejoin="miter" stroke-miterlimit="10" stroke-dasharray="" stroke-dashoffset="0" style="mix-blend-mode: normal"><path d="M207,359.85928l47.60692,-65.20456l19.88821,-73.62426l40.55404,-42.84304l16.49896,-35.96747h38.69456l25.86275,26.15332l29.15333,68.95018l28.90224,74.41221l41.839,50.26432z" data-paper-data="{&quot;origPos&quot;:null}" fill="url(#color-1)"/><path d="M371.66279,143.56976c0,12.88821 -2.59673,4.62122 2.3743,16.51217c3.88169,9.28519 20.29054,30.75483 14.34709,38.87627c-11.44256,15.63571 5.05617,19.91567 14.61143,36.77107c4.78548,8.44154 12.40614,8.22019 12.91955,17.91022c0.42584,8.03735 -15.71559,3.78142 -21.101,-2.20002c-8.58604,-9.53628 -11.44587,-43.73769 -16.96536,-32.15339c-2.57748,5.40964 -12.92081,15.146 -16.62775,10.43791c-6.1898,-7.8615 6.41325,-13.7986 7.55111,-23.73953c1.50303,-13.13126 6.0109,-30.00483 -6.24649,-34.94907c-2.99773,-1.20919 -8.15546,42.08565 -16.68863,40.98642c-6.86436,-0.88425 5.06248,-34.37467 1.49179,-33.81852c-3.4255,0.53354 7.21792,-27.91261 3.75113,-27.91261c-27.18414,0 -7.0821,31.39177 -19.71969,55.45978c-6.67617,12.71462 -19.58653,40.09071 -33.38504,36.11156c-18.38277,-5.30113 17.24988,-21.86426 23.66352,-39.88906c7.16612,-20.13958 8.85837,-37.02668 8.85837,-58.40321c0,-3.71187 9.21526,-6.72093 20.58285,-6.72093c11.36759,0 20.58284,3.00906 20.58284,6.72093z" data-paper-data="{&quot;origPos&quot;:null}" fill="url(#color-2)"/><path d="M2,359.45188l56.66706,-77.61374l23.67316,-87.63579l48.27193,-50.99657l19.63889,-42.81249h46.05858l30.78474,31.1306l34.70154,82.07219l34.40267,88.57371l49.80144,59.8302z" data-paper-data="{&quot;origPos&quot;:null}" fill="url(#color-3)"/><path d="M198,102c0,15.34098 -3.09092,5.50069 2.82615,19.65463c4.62042,11.05227 24.15206,36.60783 17.0775,46.27486c-13.62021,18.61136 6.01842,23.70585 17.39216,43.76902c5.69621,10.04806 14.76718,9.78459 15.37829,21.31875c0.50688,9.56695 -18.70644,4.50106 -25.11677,-2.61871c-10.22005,-11.35115 -13.62416,-52.06147 -20.19406,-38.27254c-3.06801,6.43915 -15.37979,18.02845 -19.7922,12.42435c-7.36778,-9.35764 7.63377,-16.42463 8.98817,-28.25743c1.78907,-15.63029 7.15484,-35.71509 -7.43528,-41.60028c-3.56823,-1.43931 -9.70754,50.09503 -19.86468,48.7866c-8.17072,-1.05254 6.02594,-40.91656 1.7757,-40.25457c-4.07741,0.63508 8.59157,-33.22469 4.465,-33.22469c-32.3576,0 -8.4299,37.36599 -23.47257,66.01441c-7.94672,15.13435 -23.31407,47.72043 -39.7386,42.98401c-21.88122,-6.30999 20.53273,-26.02528 28.16695,-47.48041c8.52991,-23.97236 10.54422,-44.07328 10.54422,-69.518c0,-4.41828 10.96902,-8 24.5,-8c13.53098,0 24.5,3.58172 24.5,8z" data-paper-data="{&quot;origPos&quot;:null}" fill="url(#color-4)"/><path d="M81.3003,23.65889c0,3.53567 -1.35769,6.4019 -3.03248,6.4019c-1.67479,0 -3.03248,-2.86623 -3.03248,-6.4019c0,-3.53567 1.35769,-6.4019 3.03248,-6.4019c1.67479,0 3.03248,2.86623 3.03248,6.4019z" fill="none"/></g></g></svg>