<svg version="1.1" xmlns="http://www.w3.org/2000/svg" xmlns:xlink="http://www.w3.org/1999/xlink" width="51.5853" height="49.52554" viewBox="0,0,51.5853,49.52554"><defs><radialGradient cx="234.97879" cy="178.93388" r="11.3754" gradientUnits="userSpaceOnUse" id="color-1"><stop offset="0" stop-color="#990000"/><stop offset="1" stop-color="#660000"/></radialGradient></defs><g transform="translate(-214.2155,-155.23723)"><g data-paper-data="{&quot;isPaintingLayer&quot;:true}" fill-rule="nonzero" stroke-linejoin="miter" stroke-miterlimit="10" stroke-dasharray="" stroke-dashoffset="0" style="mix-blend-mode: normal"><path d="M250.6253,179.99998l-31.61947,19.96789v-39.93579z" data-paper-data="{&quot;origRot&quot;:0}" fill="#820000" stroke="#000000" stroke-width="0.8" stroke-linecap="butt"/><path d="M215.58999,155.81311l25.35577,9.4465l-25.35577,4.40027z" data-paper-data="{&quot;origRot&quot;:0}" fill="#ab0000" stroke="#000000" stroke-width="0.8" stroke-linecap="butt"/><path d="M215.58999,190.34011l25.35577,4.40027l-25.35577,9.44651z" data-paper-data="{&quot;origRot&quot;:0}" fill="#ab0000" stroke="#000000" stroke-width="0.8" stroke-linecap="butt"/><path d="M246.02629,195.87375c-16.35206,1.17833 -31.39832,-9.60409 -31.39832,-9.60409l-0.01226,-12.60583c0,0 16.77944,-11.37543 31.64322,-9.3578c14.86378,2.01763 19.12536,15.66937 19.12536,15.66937c0,0 -3.96329,14.67817 -19.35801,15.89834z" data-paper-data="{&quot;origRot&quot;:0}" fill="#ff0000" stroke="#000000" stroke-width="0.8" stroke-linecap="butt"/><path d="M231.20001,180.1497c0,-7.06924 5.73076,-12.8 12.8,-12.8c7.06924,0 12.8,5.73076 12.8,12.8c0,7.06924 -5.73076,12.8 -12.8,12.8c-7.06924,0 -12.8,-5.73076 -12.8,-12.8z" fill="#c50000" stroke="#000000" stroke-width="0.8" stroke-linecap="butt"/><path d="M234.40239,171.66058c1.056,0.522 0.286,-0.0235 1.121,0.6865c2.237,1.902 3.724,4.655 3.724,7.634c0,2.98 -1.425,5.679 -3.724,7.634c-0.895,0.761 0.0845,0.205 -1.0895,0.753c-2.059,-2.145 -3.151,-4.311 -3.151,-7.785c0,-4.022 1.0205,-6.756 3.1195,-8.9225z" data-paper-data="{&quot;origRot&quot;:0}" fill="url(#color-1)" stroke="#000000" stroke-width="0.8" stroke-linecap="round"/><path d="M251.47739,180.83708c0,2.673 -0.943,5.095 -2.467,6.849c-1.522,1.753 -3.627,2.838 -5.949,2.838c-2.322,0 -4.426,-1.085 -5.95,-2.838c-1.523,-1.754 -2.467,-4.176 -2.467,-6.849c0,-2.672 0.943,-5.094 2.467,-6.848c1.524,-1.753 3.628,-2.84 5.95,-2.84c2.322,0 4.427,1.087 5.949,2.84c1.524,1.754 2.467,4.176 2.467,6.848z" data-paper-data="{&quot;origRot&quot;:0}" fill="#ff0000" stroke="#000000" stroke-width="0.8" stroke-linecap="butt"/><path d="M253.47538,183.96308c0.878,1.618 -0.778,3.831 -2.044,5.159c-1.001,0.979 -2.705,1.047 -4.055,1.051c-1.412,0.005 -2.888,-0.253 -4.114,-1.023c-0.94,-0.591 -1.832,-1.681 -1.832,-2.756c0,-1.076 0.701,-2.051 1.832,-2.758c1.132,-0.705 2.898,-1.175 4.419,-1.143c1.952,0.044 4.869,-0.23 5.794,1.47z" data-paper-data="{&quot;origRot&quot;:0}" fill="#ffffff" stroke="#000000" stroke-width="0.8" stroke-linecap="butt"/><path d="M246.62738,187.33808c0,0.372 -0.175,0.71 -0.456,0.954c-0.282,0.244 -0.671,0.396 -1.101,0.396c-0.429,0 -0.818,-0.151 -1.1,-0.396c-0.282,-0.245 -0.455,-0.582 -0.455,-0.954c0,-0.372 0.175,-0.711 0.456,-0.954c0.281,-0.245 0.671,-0.396 1.1,-0.396c0.43,0 0.818,0.151 1.101,0.396c0.28,0.243 0.455,0.582 0.455,0.954z" data-paper-data="{&quot;origRot&quot;:0}" fill="#000000" stroke="none" stroke-width="1" stroke-linecap="butt"/><path d="M252.44838,177.56808c1.226,1.591 2.122,4.187 1.083,5.84c-1.093,1.608 -3.801,1.207 -5.686,1.207c-1.591,0 -3.424,-0.462 -4.603,-1.211c-1.178,-0.747 -1.908,-1.779 -1.908,-2.918c0,-1.139 0.73,-2.172 1.908,-2.918c1.179,-0.748 2.859,-1.211 4.603,-1.211c1.745,0 3.624,-0.031 4.603,1.211z" data-paper-data="{&quot;origRot&quot;:0}" fill="#ffffff" stroke="#000000" stroke-width="0.8" stroke-linecap="butt"/><path d="M246.67139,181.21708c0,0.373 -0.175,0.71 -0.456,0.954c-0.282,0.244 -0.671,0.396 -1.101,0.396c-0.429,0 -0.817,-0.151 -1.1,-0.396c-0.281,-0.244 -0.456,-0.581 -0.456,-0.954c0,-0.372 0.175,-0.71 0.456,-0.954c0.282,-0.244 0.671,-0.396 1.1,-0.396c0.43,0 0.818,0.151 1.101,0.396c0.281,0.244 0.456,0.582 0.456,0.954z" data-paper-data="{&quot;origRot&quot;:0}" fill="#000000" stroke="none" stroke-width="1" stroke-linecap="butt"/><path d="M237.78494,182.43701c0.0693,-0.62375 0.38843,-1.10019 0.71278,-1.06416c0.32435,0.03604 0.53111,0.5709 0.46181,1.19466c-0.0693,0.62375 -0.38843,1.10019 -0.71278,1.06416c-0.32435,-0.03604 -0.53111,-0.5709 -0.46181,-1.19466z" fill="none" stroke="#000000" stroke-width="1.45293" stroke-linecap="butt"/></g></g></svg>