<svg version="1.1" xmlns="http://www.w3.org/2000/svg" xmlns:xlink="http://www.w3.org/1999/xlink" width="207.5" height="165.5" viewBox="0,0,207.5,165.5"><defs><radialGradient cx="240" cy="180" r="67" gradientUnits="userSpaceOnUse" id="color-1"><stop offset="0" stop-color="#ff0000"/><stop offset="1" stop-color="#ff0000" stop-opacity="0"/></radialGradient><radialGradient cx="240" cy="180" r="31.31522" gradientUnits="userSpaceOnUse" id="color-2"><stop offset="0" stop-color="#ffffff"/><stop offset="1" stop-color="#ffffff" stop-opacity="0"/></radialGradient><radialGradient cx="49.75" cy="40.75" r="0.00125" gradientUnits="userSpaceOnUse" id="color-3"><stop offset="0" stop-color="#ffd200"/><stop offset="1" stop-color="#ffd200" stop-opacity="0"/></radialGradient></defs><g transform="translate(-99.5,-81.5)"><g data-paper-data="{&quot;isPaintingLayer&quot;:true}" fill-rule="nonzero" stroke-width="0" stroke-linecap="butt" stroke-linejoin="miter" stroke-miterlimit="10" stroke-dasharray="" stroke-dashoffset="0" style="mix-blend-mode: normal"><path d="M173,180c0,-37.00308 29.99692,-67 67,-67c37.00308,0 67,29.99692 67,67c0,37.00308 -29.99692,67 -67,67c-37.00308,0 -67,-29.99692 -67,-67z" fill="url(#color-1)" stroke="#000000"/><path d="M208.68478,180c0,-17.29491 14.0203,-31.31522 31.31522,-31.31522c17.29491,0 31.31522,14.0203 31.31522,31.31522c0,17.29491 -14.0203,31.31522 -31.31522,31.31522c-17.29491,0 -31.31522,-14.0203 -31.31522,-31.31522z" fill="url(#color-2)" stroke="none"/><path d="M99.5,81.5v0z" fill="url(#color-3)" stroke="none"/></g></g></svg>