<svg version="1.1" xmlns="http://www.w3.org/2000/svg" xmlns:xlink="http://www.w3.org/1999/xlink" width="513.37432" height="293.62671" viewBox="0,0,513.37432,293.62671"><defs><linearGradient x1="396.5" y1="100.59773" x2="396.5" y2="357.6587" gradientUnits="userSpaceOnUse" id="color-1"><stop offset="0" stop-color="#dadada"/><stop offset="1" stop-color="#80cfe0"/></linearGradient><linearGradient x1="109" y1="69.59774" x2="109" y2="358.65871" gradientUnits="userSpaceOnUse" id="color-2"><stop offset="0" stop-color="#dadada"/><stop offset="1" stop-color="#80cfe0"/></linearGradient><linearGradient x1="72.28675" y1="207.29276" x2="72.28675" y2="236.07405" gradientUnits="userSpaceOnUse" id="color-3"><stop offset="0" stop-color="#96c5c0"/><stop offset="1" stop-color="#70b6d4"/></linearGradient><linearGradient x1="138.2794" y1="142.53669" x2="138.2794" y2="164.27336" gradientUnits="userSpaceOnUse" id="color-4"><stop offset="0" stop-color="#86cec4"/><stop offset="1" stop-color="#45ca8c"/></linearGradient><linearGradient x1="302" y1="201.59774" x2="302" y2="357.65871" gradientUnits="userSpaceOnUse" id="color-5"><stop offset="0" stop-color="#ededed"/><stop offset="1" stop-color="#86e2eb"/></linearGradient><linearGradient x1="252.77205" y1="236.29277" x2="252.77205" y2="266.21083" gradientUnits="userSpaceOnUse" id="color-6"><stop offset="0" stop-color="#6eeada"/><stop offset="1" stop-color="#45ca8c"/></linearGradient><linearGradient x1="310.99998" y1="213.53669" x2="310.99998" y2="243.9887" gradientUnits="userSpaceOnUse" id="color-7"><stop offset="0" stop-color="#bfe9e4"/><stop offset="1" stop-color="#8fd0ec"/></linearGradient><linearGradient x1="89.09558" y1="93.80498" x2="89.09558" y2="112.76859" gradientUnits="userSpaceOnUse" id="color-8"><stop offset="0" stop-color="#96c5c0"/><stop offset="1" stop-color="#70b6d4"/></linearGradient><linearGradient x1="123.28675" y1="237.29276" x2="123.28675" y2="275.4439" gradientUnits="userSpaceOnUse" id="color-9"><stop offset="0" stop-color="#86cec4"/><stop offset="1" stop-color="#45ca8c"/></linearGradient><linearGradient x1="367.27941" y1="180.53669" x2="367.27941" y2="202.27336" gradientUnits="userSpaceOnUse" id="color-10"><stop offset="0" stop-color="#96c5c0"/><stop offset="1" stop-color="#70b6d4"/></linearGradient><linearGradient x1="405.09558" y1="123.80498" x2="405.09558" y2="142.76859" gradientUnits="userSpaceOnUse" id="color-11"><stop offset="0" stop-color="#96c5c0"/><stop offset="1" stop-color="#70b6d4"/></linearGradient><linearGradient x1="424.28675" y1="219.29277" x2="424.28675" y2="248.07406" gradientUnits="userSpaceOnUse" id="color-12"><stop offset="0" stop-color="#86cec4"/><stop offset="1" stop-color="#45ca8c"/></linearGradient><linearGradient x1="321.6642" y1="275.47126" x2="319.80252" y2="318.58097" gradientUnits="userSpaceOnUse" id="color-13"><stop offset="0" stop-color="#3acab7"/><stop offset="1" stop-color="#24a367"/></linearGradient><linearGradient x1="117.60203" y1="256.55152" x2="117.60203" y2="298.69548" gradientUnits="userSpaceOnUse" id="color-14"><stop offset="0" stop-color="#3acab7"/><stop offset="1" stop-color="#24a367"/></linearGradient><linearGradient x1="244.14066" y1="277.95281" x2="244.14066" y2="356.95281" gradientUnits="userSpaceOnUse" id="color-15"><stop offset="0" stop-color="#ffffff"/><stop offset="1" stop-color="#bce1e3"/></linearGradient><linearGradient x1="243.81612" y1="275.39545" x2="243.81612" y2="445.39545" gradientUnits="userSpaceOnUse" id="color-16"><stop offset="0" stop-color="#5c6471" stop-opacity="0"/><stop offset="1" stop-color="#5c6471"/></linearGradient></defs><g transform="translate(13.1985,-69.58496)"><g data-paper-data="{&quot;isPaintingLayer&quot;:true}" fill-rule="nonzero" stroke="none" stroke-width="0" stroke-linecap="butt" stroke-linejoin="miter" stroke-miterlimit="10" stroke-dasharray="" stroke-dashoffset="0" style="mix-blend-mode: normal"><path d="M228.93903,356.6587c0,0 -12.43696,-120.63939 34.32438,-163.70404c36.7672,-33.86059 37.17589,-30.7162 64.39894,-47.64164c20.66719,-12.84945 22.77436,-44.71529 68.83765,-44.71529c50.53388,0 92.28226,257.06097 92.28226,257.06097z" data-paper-data="{&quot;origRot&quot;:0}" fill="url(#color-1)"/><path d="M-8.06097,358.65871c0,0 2.39867,-57.91723 18.76334,-114.04129c8.63186,-29.60369 26.36715,-31.49071 35.96835,-59.83339c19.75405,-58.31383 20.49315,-116.18629 62.32928,-115.18629c25.66838,0.61355 28.67831,16.49602 50.73898,56.67228c17.87921,32.56111 39.98838,36.98244 61.05147,117.33909c14.12532,53.88876 5.27052,115.0496 5.27052,115.0496z" data-paper-data="{&quot;origRot&quot;:0}" fill="url(#color-2)"/><g><path d="M69.58965,248.04887v-20.37805h4.79484v20.37805z" data-paper-data="{&quot;origPos&quot;:null}" fill="#6a87a6"/><path d="M84.57352,227.97049c0,8.77188 -5.50098,8.09128 -12.28677,8.09128c-6.78579,0 -12.28677,0.6806 -12.28677,-8.09128c0,-8.77188 5.50098,-20.67773 12.28677,-20.67773c6.78579,0 12.28677,11.90585 12.28677,20.67773z" data-paper-data="{&quot;origPos&quot;:null}" fill="url(#color-3)"/></g><g><path d="M136.24246,173.31717v-15.39024h3.62123v15.39024z" data-paper-data="{&quot;origPos&quot;:null}" fill="#6a87a6"/><path d="M147.55881,158.15326c0,6.62484 -4.15453,6.11083 -9.27941,6.11083c-5.12488,0 -9.27941,0.51401 -9.27941,-6.11083c0,-6.62484 4.15453,-15.61657 9.27941,-15.61657c5.12488,0 9.27941,8.99173 9.27941,15.61657z" data-paper-data="{&quot;origPos&quot;:null}" fill="url(#color-4)"/></g><path d="M84.93903,359.65871c0,0 5.79369,-25.00421 37.03605,-49.29198c16.76247,-13.03112 60.79049,-25.14387 70.47065,-34.67463c47.14476,-46.41714 59.13862,-74.09436 109.55427,-74.09436c80.06133,0 145.06097,156.06097 145.06097,156.06097z" data-paper-data="{&quot;origRot&quot;:0}" fill="url(#color-5)"/><g><path d="M249.96843,278.65862v-21.18293h4.98422v21.18293z" data-paper-data="{&quot;origPos&quot;:null}" fill="#6a87a6"/><path d="M265.54411,257.7872c0,9.11834 -5.71825,8.41087 -12.77206,8.41087c-7.05381,0 -12.77206,0.70748 -12.77206,-8.41087c0,-9.11834 5.71825,-21.49444 12.77206,-21.49444c7.05381,0 12.77206,12.3761 12.77206,21.49444z" data-paper-data="{&quot;origPos&quot;:null}" fill="url(#color-6)"/></g><g><path d="M308.14633,256.65864v-21.56097h5.07317v21.56097z" data-paper-data="{&quot;origPos&quot;:null}" fill="#6a87a6"/><path d="M323.99998,235.41474c0,9.28108 -5.82029,8.56097 -13,8.56097c-7.17971,0 -13,0.7201 -13,-8.56097c0,-9.28108 5.82029,-21.87805 13,-21.87805c7.17971,0 13,12.59697 13,21.87805z" data-paper-data="{&quot;origPos&quot;:null}" fill="url(#color-7)"/></g><g><path d="M87.3185,120.65864v-13.42683h3.15925v13.42683z" data-paper-data="{&quot;origPos&quot;:null}" fill="#6a87a6"/><path d="M97.19117,107.42926c0,5.77968 -3.62451,5.33124 -8.09559,5.33124c-4.47108,0 -8.09559,0.44843 -8.09559,-5.33124c0,-5.77968 3.62451,-13.62428 8.09559,-13.62428c4.47108,0 8.09559,7.84461 8.09559,13.62428z" data-paper-data="{&quot;origPos&quot;:null}" fill="url(#color-8)"/></g><g><path d="M119.71161,291.31716v-27.01219h6.35581v27.01219z" data-paper-data="{&quot;origPos&quot;:null}" fill="#6a87a6"/><path d="M139.57351,264.7022c0,11.6276 -7.29184,10.72542 -16.28677,10.72542c-8.99493,0 -16.28677,0.90217 -16.28677,-10.72542c0,-11.6276 7.29184,-27.40944 16.28677,-27.40944c8.99493,0 16.28677,15.78184 16.28677,27.40944z" data-paper-data="{&quot;origPos&quot;:null}" fill="url(#color-9)"/></g><g><path d="M365.24246,211.31717v-15.39024h3.62123v15.39024z" data-paper-data="{&quot;origPos&quot;:null}" fill="#6a87a6"/><path d="M376.55882,196.15326c0,6.62484 -4.15453,6.11083 -9.27942,6.11083c-5.12489,0 -9.27941,0.514 -9.27941,-6.11083c0,-6.62484 4.15453,-15.61657 9.27941,-15.61657c5.12489,0 9.27942,8.99173 9.27942,15.61657z" data-paper-data="{&quot;origPos&quot;:null}" fill="url(#color-10)"/></g><g><path d="M403.31849,150.65864v-13.42683h3.15926v13.42683z" data-paper-data="{&quot;origPos&quot;:null}" fill="#6a87a6"/><path d="M413.19116,137.42926c0,5.77967 -3.62451,5.33124 -8.09558,5.33124c-4.47108,0 -8.09559,0.44843 -8.09559,-5.33124c0,-5.77967 3.62451,-13.62428 8.09559,-13.62428c4.47107,0 8.09558,7.84461 8.09558,13.62428z" data-paper-data="{&quot;origPos&quot;:null}" fill="url(#color-11)"/></g><g><path d="M421.58966,260.04886v-20.37805h4.79483v20.37805z" data-paper-data="{&quot;origPos&quot;:null}" fill="#6a87a6"/><path d="M436.57352,239.9705c0,8.77188 -5.50097,8.09128 -12.28677,8.09128c-6.7858,0 -12.28677,0.6806 -12.28677,-8.09128c0,-8.77188 5.50097,-20.67773 12.28677,-20.67773c6.7858,0 12.28677,11.90585 12.28677,20.67773z" data-paper-data="{&quot;origPos&quot;:null}" fill="url(#color-12)"/></g><path d="M305.10315,311.93795c0,0 -15.92897,-16.84194 -3.14817,-25.64321c8.05172,-5.54467 23.46109,0.07493 23.46109,0.07493c0,0 10.77416,-13.38677 25.38365,-11.11787c14.60949,2.26891 12.97887,16.38197 12.97887,16.38197c0,0 14.25413,-6.71855 22.73165,-2.68409c9.80635,4.66685 -5.297,22.21957 -5.297,22.21957z" data-paper-data="{&quot;origPos&quot;:null,&quot;index&quot;:null,&quot;origRot&quot;:0}" fill="url(#color-13)"/><path d="M60.38647,292.22592c0,0 -18.41718,-16.90968 -8.3832,-21.60809c8.67432,-4.06174 23.68071,3.39464 23.68071,3.39464c0,0 -2.02979,-14.86127 12.71604,-17.27938c14.74583,-2.4181 24.96849,10.53011 24.96849,10.53011c0,0 5.5696,-10.61926 17.43689,-9.98402c11.86729,0.63524 12.88781,12.07481 12.88781,12.07481c0,0 4.63935,-11.71323 17.12828,-10.42327c9.24735,0.95514 6.79776,10.78214 6.79776,10.78214c0,0 8.93642,-4.18243 16.51252,-2.2141c4.60488,1.19639 -1.68582,19.45566 -1.68582,19.45566z" data-paper-data="{&quot;origPos&quot;:null}" fill="url(#color-14)"/><path d="M-13.19849,359.83795l10.82364,-58.44257c0,0 84.44483,-23.44258 141.89313,-23.44258c63.83803,0 112.14709,11.11825 175.1187,21.53781c71.94856,11.90492 165.86075,-0.2591 165.86075,-0.2591l19.47478,59.88515z" fill="url(#color-15)"/><path d="M-12.04061,358.18256l13.70879,-81.34454l471.27385,0.72129c0,0 29.89906,85.66447 27.04126,85.65237c-29.6606,-0.12561 -512.02389,-5.02911 -512.02389,-5.02911z" fill="url(#color-16)"/></g></g></svg>