<svg version="1.1" xmlns="http://www.w3.org/2000/svg" xmlns:xlink="http://www.w3.org/1999/xlink" width="65.08336" height="67.23944" viewBox="0,0,65.08336,67.23944"><defs><radialGradient cx="186.49735" cy="161.62351" r="10.1971" gradientUnits="userSpaceOnUse" id="color-1"><stop offset="0" stop-color="#990000"/><stop offset="1" stop-color="#660000"/></radialGradient></defs><g transform="translate(-165.12962,-139.92362)"><g data-paper-data="{&quot;isPaintingLayer&quot;:true}" fill-rule="nonzero" stroke-linejoin="miter" stroke-miterlimit="10" stroke-dasharray="" stroke-dashoffset="0" style="mix-blend-mode: normal"><path d="M180.74789,161.15284l7.16224,-6.81704l34.03177,26.25269l-18.47083,15.65831z" fill="#ff0000" stroke="#000000" stroke-width="3" stroke-linecap="butt"/><path d="M167.1107,141.75711l56.95419,9.04687c0,0 -19.18928,6.64702 -29.29954,16.75728c-10.69236,10.69236 -13.87873,31.76687 -13.87873,31.76687z" fill="#ff0000" stroke="#000000" stroke-width="3" stroke-linecap="butt"/><g><path d="M183.35299,157.46196c1.5106,-1.65355 3.66949,-2.43011 5.93748,-2.34908c2.2673,0.08112 5.00014,1.02407 6.58915,2.79712c0.81393,1.01076 -0.34439,2.35024 -1.03588,3.25793c-1.83957,2.77266 -4.15811,5.27592 -6.76368,7.40374c-0.77725,0.83521 -2.15169,2.0452 -3.15125,1.32544c-1.90376,-1.42355 -3.0884,-4.00955 -3.37989,-6.31008c-0.27739,-2.18926 0.29351,-4.47157 1.80405,-6.12507z" fill="url(#color-1)" stroke="#000000" stroke-width="1.45293" stroke-linecap="round"/><path d="M176.99829,150.78526c1.35503,-1.48326 3.10667,-2.34927 4.8414,-2.55034c1.73472,-0.20037 3.4528,0.26383 4.74179,1.44137c1.28893,1.1775 1.90621,2.84677 1.86309,4.5925c-0.04387,1.74576 -0.7484,3.56836 -2.10343,5.05161c-1.35498,1.48321 -3.10662,2.34923 -4.84131,2.55033c-1.73472,0.20037 -3.45289,-0.26383 -4.74183,-1.44133c-1.28899,-1.17754 -1.90617,-2.84682 -1.86304,-4.59254c0.04382,-1.7458 0.74836,-3.5684 2.10334,-5.0516z" fill="#ff0000" stroke="#000000" stroke-width="1.45293" stroke-linecap="butt"/><path d="M177.4751,148.03736c0.33207,-1.34296 2.37348,-1.73147 3.74988,-1.82772c1.05223,-0.03512 2.0323,0.79123 2.78315,1.47352c0.78636,0.71348 1.47428,1.60458 1.76469,2.65366c0.22228,0.80475 0.16442,1.86187 -0.38098,2.45891c-0.54537,0.59698 -1.42863,0.7828 -2.41449,0.60111c-0.98628,-0.18198 -2.20463,-0.81672 -3.03202,-1.60624c-1.06121,-1.01346 -2.81917,-2.34085 -2.47023,-3.75324z" fill="#ffffff" stroke="#000000" stroke-width="1.38359" stroke-linecap="butt"/><path d="M182.98662,149.63687c0.18874,-0.2066 0.45706,-0.30559 0.73689,-0.29827c0.28051,0.00725 0.57294,0.12045 0.81128,0.33818c0.23833,0.21773 0.37745,0.49876 0.41,0.77752c0.03252,0.27802 -0.04187,0.55418 -0.23061,0.76078c-0.18874,0.2066 -0.45706,0.30559 -0.73693,0.29832c-0.28057,-0.00728 -0.57299,-0.12049 -0.81132,-0.33822c-0.23833,-0.21773 -0.37745,-0.49876 -0.40995,-0.77748c-0.03248,-0.27807 0.04192,-0.55423 0.23065,-0.76083z" fill="#000000" stroke="none" stroke-width="0.72647" stroke-linecap="butt"/><path d="M174.80113,152.10826c0.1267,-1.50449 0.94527,-3.39947 2.36079,-3.79064c1.42221,-0.33905 2.72196,1.25709 3.76731,2.21277c0.88286,0.80715 1.66588,1.99267 1.94111,3.00543c0.27494,1.0124 0.15665,1.95537 -0.42087,2.58755c-0.57747,0.63212 -1.50594,0.83496 -2.53905,0.65248c-1.03341,-0.18283 -2.20043,-0.77806 -3.16823,-1.6622c-0.96776,-0.8841 -2.02611,-1.81988 -1.94107,-3.00539z" fill="#ffffff" stroke="#000000" stroke-width="1.45293" stroke-linecap="butt"/><path d="M179.85888,153.01187c0.18874,-0.2066 0.45706,-0.30559 0.73689,-0.29827c0.28051,0.00725 0.57294,0.12045 0.81128,0.33818c0.23833,0.21773 0.37745,0.49876 0.41,0.77752c0.03252,0.27802 -0.04187,0.55418 -0.23061,0.76078c-0.18874,0.2066 -0.45706,0.30559 -0.73693,0.29832c-0.28057,-0.00728 -0.57299,-0.12049 -0.81132,-0.33822c-0.23833,-0.21773 -0.37745,-0.49876 -0.40995,-0.77748c-0.03248,-0.27807 0.04192,-0.55423 0.23065,-0.76083z" fill="#000000" stroke="none" stroke-width="0.72647" stroke-linecap="butt"/><path d="M185.61676,155.99734c0,0 -0.10616,0.74706 -0.37975,0.94665c-0.53827,0.38533 -0.59069,0.33228 -1.88071,0.6427" fill="none" stroke="#000000" stroke-width="1.45293" stroke-linecap="round"/><path d="M192.16496,158.84172c0.77281,-0.84594 1.78553,-1.32725 2.79744,-1.42135c1.01164,-0.09409 2.18202,0.18021 2.79161,0.90164c0.30632,0.4165 -0.29047,1.09802 -0.65296,1.55445c-0.98512,1.37842 -2.16938,2.66101 -3.46051,3.78799c-0.39671,0.42811 -1.08289,1.06277 -1.48924,0.79047c-0.77097,-0.54281 -1.15219,-1.6605 -1.1497,-2.69893c0.00249,-0.98822 0.39049,-2.06827 1.16335,-2.91426z" fill="#ff0000" stroke="#000000" stroke-width="1.32856" stroke-linecap="round"/><path d="M187.00618,164.63488c0.77281,-0.84594 1.78553,-1.32725 2.79744,-1.42135c1.01164,-0.09409 2.18202,0.18021 2.79161,0.90164c0.30632,0.4165 -0.29047,1.09802 -0.65296,1.55445c-0.98512,1.37842 -2.16938,2.66101 -3.46051,3.78799c-0.39671,0.42811 -1.08289,1.06277 -1.48924,0.79047c-0.77097,-0.54281 -1.15219,-1.6605 -1.1497,-2.69893c0.00249,-0.98822 0.39049,-2.06827 1.16335,-2.91426z" fill="#ff0000" stroke="#000000" stroke-width="1.32856" stroke-linecap="round"/></g></g></g></svg>