<svg version="1.1" xmlns="http://www.w3.org/2000/svg" xmlns:xlink="http://www.w3.org/1999/xlink" width="81.37055" height="49.52553" viewBox="0,0,81.37055,49.52553"><g transform="translate(-195.43025,-155.23724)"><g data-paper-data="{&quot;isPaintingLayer&quot;:true}" fill="none" fill-rule="nonzero" stroke="none" stroke-width="none" stroke-linecap="none" stroke-linejoin="miter" stroke-miterlimit="10" stroke-dasharray="" stroke-dashoffset="0" font-family="none" font-weight="none" font-size="none" text-anchor="none" style="mix-blend-mode: normal"><g data-paper-data="{&quot;origPos&quot;:null}" id="ID0.5483849048614502" stroke="none" stroke-linecap="round"><path d="M228.93815,174.04696v12.3137l-33.5079,-6.1569z" id="ID0.20042628794908524" fill="#ff0000" stroke-width="2.17982"/><path d="M228.83625,175.66656v9.0349l-18.935,-4.5174z" id="ID0.20042628794908524" fill="#ffff00" stroke-width="1.32603"/><path d="M229.01135,177.66556v4.7416l-9.9373,-2.3708z" id="ID0.20042628794908524" fill="#99b2ff" stroke-width="0.69592"/></g><path d="M261.62529,179.99999l-31.61947,19.96789v-39.93579z" data-paper-data="{&quot;origRot&quot;:0,&quot;origPos&quot;:null}" fill="#824e00" stroke="#000000" stroke-width="0.8" stroke-linecap="butt"/><path d="M226.58998,155.81312l25.35577,9.4465l-25.35577,4.40027z" data-paper-data="{&quot;origPos&quot;:null,&quot;origRot&quot;:0}" fill="#ab6600" stroke="#000000" stroke-width="0.8" stroke-linecap="butt"/><path d="M226.58998,190.34011l25.35577,4.40027l-25.35577,9.44651z" data-paper-data="{&quot;origPos&quot;:null,&quot;origRot&quot;:0}" fill="#ab6600" stroke="#000000" stroke-width="0.8" stroke-linecap="butt"/><path d="M257.02629,195.87375c-16.35206,1.17833 -31.39832,-9.60409 -31.39832,-9.60409l-0.01226,-12.60583c0,0 16.77944,-11.37543 31.64322,-9.3578c14.86378,2.01763 19.12536,15.66937 19.12536,15.66937c0,0 -3.96329,14.67817 -19.35801,15.89834z" data-paper-data="{&quot;origRot&quot;:0,&quot;origPos&quot;:null}" fill="#ff9800" stroke="#000000" stroke-width="0.8" stroke-linecap="butt"/><path d="M242.2,180.1497c0,-7.06924 5.73075,-12.8 12.8,-12.8c7.06925,0 12.8,5.73076 12.8,12.8c0,7.06924 -5.73075,12.8 -12.8,12.8c-7.06924,0 -12.8,-5.73075 -12.8,-12.8z" data-paper-data="{&quot;origPos&quot;:null}" fill="#c47500" stroke="#000000" stroke-width="0.8" stroke-linecap="butt"/><g data-paper-data="{&quot;origPos&quot;:null}"><path d="M245.40238,171.66058c1.056,0.522 0.286,-0.0235 1.121,0.6865c2.237,1.902 3.724,4.655 3.724,7.634c0,2.98 -1.425,5.679 -3.724,7.634c-0.895,0.761 0.0845,0.205 -1.0895,0.753c-2.059,-2.145 -3.151,-4.311 -3.151,-7.785c0,-4.022 1.0205,-6.756 3.1195,-8.9225z" data-paper-data="{&quot;origPos&quot;:null,&quot;origRot&quot;:0}" id="ID0.8960802308283746" fill="#995b00" stroke="#000000" stroke-width="0.8" stroke-linecap="round"/><path d="M262.47738,180.83708c0,2.673 -0.943,5.095 -2.467,6.849c-1.522,1.753 -3.627,2.838 -5.949,2.838c-2.322,0 -4.426,-1.085 -5.95,-2.838c-1.523,-1.754 -2.467,-4.176 -2.467,-6.849c0,-2.672 0.943,-5.094 2.467,-6.848c1.524,-1.753 3.628,-2.84 5.95,-2.84c2.322,0 4.427,1.087 5.949,2.84c1.524,1.754 2.467,4.176 2.467,6.848z" data-paper-data="{&quot;origPos&quot;:null,&quot;origRot&quot;:0}" id="ID0.3849619720131159_1_" fill="#ff9800" stroke="#000000" stroke-width="0.8" stroke-linecap="butt"/><path d="M264.47537,183.96308c0.878,1.618 -0.778,3.831 -2.044,5.159c-1.001,0.979 -2.705,1.047 -4.055,1.051c-1.412,0.005 -2.888,-0.253 -4.114,-1.023c-0.94,-0.591 -1.832,-1.681 -1.832,-2.756c0,-1.076 0.701,-2.051 1.832,-2.758c1.132,-0.705 2.898,-1.175 4.419,-1.143c1.952,0.044 4.869,-0.23 5.794,1.47z" data-paper-data="{&quot;origPos&quot;:null,&quot;origRot&quot;:0}" id="ID0.257101490162313_3_" fill="#ffffff" stroke="#000000" stroke-width="0.8" stroke-linecap="butt"/><path d="M257.62737,187.33808c0,0.372 -0.175,0.71 -0.456,0.954c-0.282,0.244 -0.671,0.396 -1.101,0.396c-0.429,0 -0.818,-0.151 -1.1,-0.396c-0.282,-0.245 -0.455,-0.582 -0.455,-0.954c0,-0.372 0.175,-0.711 0.456,-0.954c0.281,-0.245 0.671,-0.396 1.1,-0.396c0.43,0 0.818,0.151 1.101,0.396c0.28,0.243 0.455,0.582 0.455,0.954z" data-paper-data="{&quot;origPos&quot;:null,&quot;origRot&quot;:0}" id="ID0.13991053588688374_3_" fill="#000000" stroke="none" stroke-width="1" stroke-linecap="butt"/><path d="M263.44837,177.56808c1.226,1.591 2.122,4.187 1.083,5.84c-1.093,1.608 -3.801,1.207 -5.686,1.207c-1.591,0 -3.424,-0.462 -4.603,-1.211c-1.178,-0.747 -1.908,-1.779 -1.908,-2.918c0,-1.139 0.73,-2.172 1.908,-2.918c1.179,-0.748 2.859,-1.211 4.603,-1.211c1.745,0 3.624,-0.031 4.603,1.211z" data-paper-data="{&quot;origPos&quot;:null,&quot;origRot&quot;:0}" id="ID0.257101490162313_2_" fill="#ffffff" stroke="#000000" stroke-width="0.8" stroke-linecap="butt"/><path d="M257.67138,181.21708c0,0.373 -0.175,0.71 -0.456,0.954c-0.282,0.244 -0.671,0.396 -1.101,0.396c-0.429,0 -0.817,-0.151 -1.1,-0.396c-0.281,-0.244 -0.456,-0.581 -0.456,-0.954c0,-0.372 0.175,-0.71 0.456,-0.954c0.282,-0.244 0.671,-0.396 1.1,-0.396c0.43,0 0.818,0.151 1.101,0.396c0.281,0.244 0.456,0.582 0.456,0.954z" data-paper-data="{&quot;origPos&quot;:null,&quot;origRot&quot;:0}" id="ID0.13991053588688374_2_" fill="#000000" stroke="none" stroke-width="1" stroke-linecap="butt"/><path d="M249.33838,183.45108c0,0 -0.567,-0.83 -0.477,-1.271c0.184,-0.861 0.282,-0.856 1.271,-2.318" data-paper-data="{&quot;origPos&quot;:null,&quot;origRot&quot;:0}" id="ID0.5298761413432658_1_" fill="none" stroke="#000000" stroke-width="0.8" stroke-linecap="round"/></g></g></g></svg>