<svg version="1.1" xmlns="http://www.w3.org/2000/svg" xmlns:xlink="http://www.w3.org/1999/xlink" width="28.5185" height="35.30103" viewBox="0,0,28.5185,35.30103"><g transform="translate(-226.26578,-157.69845)"><g data-paper-data="{&quot;isPaintingLayer&quot;:true}" fill-rule="nonzero" stroke-linecap="butt" stroke-linejoin="miter" stroke-miterlimit="10" stroke-dasharray="" stroke-dashoffset="0" style="mix-blend-mode: normal"><path d="M251.79883,177.76506c1.8501,2.76762 2.89499,5.31532 2.33381,5.69046c-0.56117,0.37513 -2.51591,-1.56434 -4.36601,-4.33196c-1.8501,-2.76762 -3.98142,-5.95257 -3.42025,-6.3277c0.56117,-0.37513 3.60233,2.20161 5.45244,4.96922z" fill="#000000" stroke="#000000" stroke-width="1"/><path d="M226.99307,184.13626c-0.61008,-0.28887 0.05028,-2.96217 1.47496,-5.97096c1.42468,-3.00879 3.81838,-5.68041 4.42845,-5.39152c0.61008,0.28887 -0.79448,3.42882 -2.21916,6.43762c-1.42467,3.00879 -3.07417,5.21374 -3.68425,4.92486z" data-paper-data="{&quot;index&quot;:null}" fill="#000000" stroke="#000000" stroke-width="1"/><path d="M244.09835,189.56371c0,-0.75405 1.65555,-1.36533 3.69777,-1.36533c2.04222,0 4.83555,1.63528 4.83555,2.38933c0,0.20997 -0.26388,0.50174 -0.63293,0.80309c-0.80419,0.65664 -2.10775,1.35869 -2.26839,1.35869c-2.04222,0 -5.632,-2.43172 -5.632,-3.18578z" data-paper-data="{&quot;index&quot;:null}" fill="#ff8200" stroke="#000000" stroke-width="0.5"/><path d="M230.45683,191.52568c-0.23437,0 -2.90133,-1.49426 -2.90133,-2.16178c0,-0.75406 2.79333,-2.38934 4.83555,-2.38934c2.04223,0 3.69778,0.61129 3.69778,1.36534c0,0.75406 -3.58978,3.18578 -5.632,3.18578z" fill="#ff8200" stroke="#000000" stroke-width="0.5"/><path d="M229.48349,181.80799c1.22421,-12.72985 4.92889,-15.75547 10.86174,-15.75547c5.93285,0 9.36903,3.21768 10.62301,15.75547c1.1911,11.90917 -22.73872,13.03938 -21.48474,0z" fill="#000000" stroke="#000000" stroke-width="1"/><path d="M241.50575,158.98585c1.63223,-0.88713 3.86638,0.78491 5.20846,2.06238c0.98784,1.01141 1.05625,2.73156 1.05987,4.09395c0.00486,1.42585 -0.25554,2.915 -1.0326,4.15309c-0.59654,0.94928 -1.69702,1.84938 -2.78294,1.84938c-1.08583,0 -2.07005,-0.70741 -2.78285,-1.84938c-0.71288,-1.14267 -1.18707,-2.9255 -1.15371,-4.4609c0.04361,-1.97004 -0.2326,-4.91522 1.48376,-5.84852z" fill="#ffffff" stroke="#000000" stroke-width="1.25"/><path d="M244.91188,165.89896c0.37577,0 0.71694,0.17636 0.96313,0.46042c0.24689,0.28467 0.39952,0.67713 0.39952,1.11064c0,0.4335 -0.15263,0.82596 -0.39952,1.11072c-0.24619,0.28406 -0.58736,0.46042 -0.96313,0.46042c-0.37577,0 -0.71694,-0.17636 -0.96322,-0.46042c-0.24689,-0.28476 -0.39952,-0.67722 -0.39952,-1.11072c0,-0.4335 0.15262,-0.82596 0.39952,-1.11064c0.24628,-0.28406 0.58745,-0.46042 0.96322,-0.46042z" fill="#000000" stroke="none" stroke-width="0.72647"/><path d="M234.31566,159.93263c1.60636,-1.23704 4.22654,-2.21325 5.89646,-1.16414c1.62428,1.10296 1.21902,3.83725 1.21832,5.73924c-0.00062,1.60637 -0.46678,3.45645 -1.22159,4.64662c-0.75472,1.18955 -1.79677,1.92635 -2.9466,1.92635c-1.14974,0 -2.19178,-0.7368 -2.94659,-1.92635c-0.75472,-1.19017 -1.22159,-2.88631 -1.22159,-4.64662c0,-1.76022 -0.0308,-3.58567 1.22159,-4.5751z" fill="#ffffff" stroke="#000000" stroke-width="1.25"/><path d="M238.73287,165.85482c0.37577,0 0.71694,0.17637 0.96313,0.46043c0.24689,0.28467 0.39952,0.67713 0.39952,1.11064c0,0.4335 -0.15262,0.82595 -0.39952,1.11072c-0.24619,0.28406 -0.58736,0.46043 -0.96313,0.46043c-0.37577,0 -0.71694,-0.17637 -0.96322,-0.46043c-0.24689,-0.28476 -0.39952,-0.67722 -0.39952,-1.11072c0,-0.4335 0.15263,-0.82596 0.39952,-1.11064c0.24628,-0.28406 0.58745,-0.46043 0.96322,-0.46043z" fill="#000000" stroke="none" stroke-width="0.72647"/><path d="M248.01481,172.28661c0,0.69064 -3.38796,1.17695 -5.48019,1.17695c-2.09224,0 -2.46425,0.10217 -2.46425,-0.58847c0,-0.69064 0.37201,-1.91255 2.46425,-1.91255c2.09224,0 5.48019,0.63344 5.48019,1.32408z" fill="#ff8200" stroke="none" stroke-width="NaN"/><path d="M242.40827,172.08895l0.06835,0.00221c0.16865,0.02345 0.33729,0.0469 0.50594,0.07036c0.37288,0.04593 0.76942,0.07979 1.17763,0.10145c1.22189,0.06483 2.54832,0.02039 3.65785,-0.13649c0,0 0.44214,-0.06651 0.4742,0.15195c0.03206,0.21846 -0.41007,0.28497 -0.41007,0.28497c-1.52758,0.20922 -3.42379,0.22033 -4.95981,0.03558c-0.16996,-0.02363 -0.33992,-0.04725 -0.50988,-0.07088l-0.00421,0.00222c0,0 -0.22674,0 -0.22674,-0.22067c0,-0.22068 0.22674,-0.22068 0.22674,-0.22068z" data-paper-data="{&quot;index&quot;:null}" fill="#000000" stroke="none" stroke-width="0.5"/><path d="M242.33168,188.74949c-3.03757,0 -5.5,-2.96844 -5.5,-7.47241c0,-4.50397 2.5383,-7.01724 5.57586,-7.01724c3.03756,0 5.42414,2.51327 5.42414,7.01724c0,4.50397 -2.46244,7.47241 -5.5,7.47241z" fill="#ffffff" stroke="#000000" stroke-width="0"/></g></g></svg>