<svg version="1.1" xmlns="http://www.w3.org/2000/svg" xmlns:xlink="http://www.w3.org/1999/xlink" width="73.63659" height="69.57164" viewBox="0,0,73.63659,69.57164"><g transform="translate(-203.2415,-145.15604)"><g data-paper-data="{&quot;isPaintingLayer&quot;:true}" fill-rule="nonzero" stroke-linejoin="miter" stroke-miterlimit="10" stroke-dasharray="" stroke-dashoffset="0" style="mix-blend-mode: normal"><g><path d="M242.23268,198.95144c-1.4614,-3.1141 -1.4151,-7.2296 -1.4395,-10.8855c-0.0092,-1.3738 0.803,-2.5806 1.47,-3.7408c0.5617,-0.9775 1.0677,-2.18 2.0994,-2.3411c3.0029,-0.6965 6.3366,-1.1545 9.1975,-0.0603c3.0577,1.1688 6.3497,3.3461 7.2029,6.4497c1.382,5.0572 -0.9459,10.4297 -1.0956,15.6521c-0.0993,3.557 1.1808,9.1333 0.126,10.3147c-0.7264,1.0308 -2.1233,-3.9893 -3.9583,-5.5545c-2.1888,-1.8635 -5.3586,-2.5253 -7.5895,-4.1138c-2.2522,-1.6017 -4.7116,-2.9633 -6.0129,-5.7205z" fill="#99b2ff" stroke="#000000" stroke-width="0.49836" stroke-linecap="round"/><path d="M258.98848,154.62864c5.7921,-0.4428 16.0639,-1.8675 17.2999,3.7094c1.6507,8.3527 -6.1766,17.0177 -11.5265,24.1498c-2.5218,3.3639 -7.0319,5.1101 -11.2061,5.5126c-3.2546,0.4833 -6.6084,-1.1856 -9.4187,-3.0546c-1.2787,-0.8487 -1.5994,-2.5549 -1.9852,-4.1628c-0.4585,-1.9084 -1.102,-3.9425 -0.5207,-5.8719c1.5471,-5.1341 3.1848,-10.9441 6.5297,-14.7212c2.9719,-3.3412 6.7866,-5.2525 10.8276,-5.5613z" fill="#99ffff" stroke="#000000" stroke-width="0.73093" stroke-linecap="round"/><path d="M258.22368,191.81744c0.3778,0.6969 0.5324,1.5977 0.3745,2.5363c-0.1578,0.9387 -0.5987,1.7393 -1.1837,2.2742c-0.5848,0.535 -1.3134,0.8042 -2.0469,0.6808c-0.7336,-0.1234 -1.334,-0.6162 -1.7115,-1.313c-0.3778,-0.6969 -0.5324,-1.5977 -0.3745,-2.5363c0.1579,-0.9387 0.5987,-1.7393 1.1838,-2.2742c0.5847,-0.535 1.3133,-0.8042 2.0468,-0.6808c0.7336,0.1234 1.334,0.6162 1.7115,1.313z" fill="#ffff00" stroke="none" stroke-width="0.35577" stroke-linecap="butt"/><path d="M269.84178,160.27064c0.2254,0.7513 0.1686,1.5996 -0.2242,2.3669c-0.3927,0.7673 -1.0477,1.3094 -1.789,1.5658c-0.7412,0.2564 -1.5683,0.2262 -2.3054,-0.1511c-0.737,-0.3773 -1.2451,-1.0306 -1.4706,-1.7818c-0.2254,-0.7513 -0.1686,-1.5996 0.2241,-2.3669c0.3928,-0.7673 1.0478,-1.3094 1.7891,-1.5658c0.7412,-0.2564 1.5683,-0.2262 2.3054,0.1511c0.737,0.3773 1.2451,1.0306 1.4706,1.7818z" fill="#ffff00" stroke="none" stroke-width="1" stroke-linecap="butt"/><path d="M257.06458,199.97554c0.2409,0.4444 0.3395,1.0188 0.2388,1.6173c-0.1007,0.5986 -0.3818,1.1091 -0.7549,1.4502c-0.3729,0.3412 -0.8375,0.5129 -1.3052,0.4342c-0.4678,-0.0787 -0.8507,-0.393 -1.0914,-0.8373c-0.2409,-0.4444 -0.3395,-1.0189 -0.2388,-1.6174c0.1006,-0.5985 0.3818,-1.1091 0.7548,-1.4502c0.3729,-0.3411 0.8375,-0.5128 1.3053,-0.4341c0.4678,0.0786 0.8506,0.3929 1.0914,0.8373z" fill="#ffff00" stroke="none" stroke-width="0.22687" stroke-linecap="butt"/></g><g><path d="M222.37808,201.11164c-2.7097,0.3975 -5.9362,-0.7945 -8.6304,0.2036c-3.7931,1.407 -10.0135,7.3856 -10.257,6.2576c-0.1734,-0.8808 6.5166,-7.7226 9.0148,-12.2411c2.5297,-4.5709 2.6222,-10.56 6.1568,-14.432c2.1737,-2.3739 6.0962,-2.812 9.3506,-2.4591c3.0452,0.3296 5.804,2.2564 8.1597,4.2447c0.845,0.6135 0.7474,1.9145 0.802,3.0405c0.065,1.3367 0.2381,2.781 -0.396,3.9998c-1.6876,3.2431 -3.5217,6.9276 -6.2416,9.0337c-2.4147,1.8614 -5.2244,1.9528 -7.9589,2.3523z" fill="#99b2ff" stroke="#000000" stroke-width="0.49836" stroke-linecap="round"/><path d="M242.72228,161.55454c1.2563,4.8863 0.0668,10.8044 -0.8955,16.0795c-0.3617,1.9823 -1.8613,3.4997 -3.1391,4.9896c-1.0761,1.2554 -2.1391,2.628 -3.664,2.8009c-3.3532,0.3831 -7.0991,0.3405 -9.776,-1.5727c-3.5322,-2.2604 -6.7512,-5.8699 -7.4631,-10.0134c-1.5124,-8.7863 -4.5316,-20.0662 0.7439,-26.7491c3.6413,-4.4011 12.1357,1.5476 17.0897,4.581c3.4564,2.1162 5.9811,5.5558 7.1041,9.8842z" fill="#99ffff" stroke="#000000" stroke-width="0.73093" stroke-linecap="round"/><path d="M221.47508,184.73354c0.7092,0.2244 1.2351,0.7961 1.5118,1.5387c0.2771,0.7428 0.3047,1.6563 0.0175,2.5638c-0.2871,0.9075 -0.8352,1.6389 -1.4891,2.0871c-0.6536,0.4482 -1.4126,0.6133 -2.1218,0.3889c-0.7092,-0.2244 -1.2351,-0.7961 -1.5118,-1.5387c-0.277,-0.7427 -0.3046,-1.6563 -0.0175,-2.5638c0.2872,-0.9074 0.8353,-1.6389 1.4891,-2.087c0.6536,-0.4483 1.4126,-0.6134 2.1218,-0.389z" fill="#ffff00" stroke="none" stroke-width="0.35577" stroke-linecap="butt"/><path d="M225.50728,150.83114c0.828,0 1.578,0.35 2.121,0.916c0.543,0.566 0.879,1.347 0.879,2.209c0,0.862 -0.336,1.643 -0.879,2.209c-0.543,0.566 -1.293,0.916 -2.121,0.916c-0.828,0 -1.578,-0.35 -2.121,-0.916c-0.543,-0.566 -0.879,-1.347 -0.879,-2.209c0,-0.862 0.336,-1.643 0.879,-2.209c0.543,-0.566 1.293,-0.916 2.121,-0.916z" fill="#ffff00" stroke="none" stroke-width="1" stroke-linecap="butt"/><path d="M218.02078,192.66454c0.4523,0.1431 0.7876,0.5077 0.9641,0.9812c0.1767,0.4737 0.1942,1.0562 0.0111,1.6349c-0.1831,0.5787 -0.5326,1.0451 -0.9495,1.3309c-0.4168,0.2858 -0.9008,0.3911 -1.3531,0.248c-0.4522,-0.1431 -0.7875,-0.5076 -0.964,-0.9812c-0.1767,-0.4736 -0.1943,-1.0562 -0.0112,-1.6349c0.1831,-0.5786 0.5327,-1.0451 0.9496,-1.3308c0.4168,-0.2859 0.9008,-0.3912 1.353,-0.2481z" fill="#ffff00" stroke="none" stroke-width="0.22687" stroke-linecap="butt"/></g><path d="M245.35138,176.30824c1.7178,0.4198 3.2762,3.304 3.3381,5.4324c0.097,3.2662 -1.895,6.1334 -3.1626,9.071c-0.7521,1.747 -1.4622,3.3951 -2.6898,4.6227c-1.1088,1.0947 -2.5444,2.2307 -4.0463,2.0712c-1.3522,-0.1432 -2.3763,-1.7028 -2.6738,-3.0535c-0.6544,-1.948 -0.5453,-4.103 0.0097,-6.1778c0.8112,-3.0443 1.8188,-6.1749 3.7572,-8.6857c1.3898,-1.8072 3.7496,-3.7001 5.4675,-3.2803z" fill="#0033cc" stroke="#000000" stroke-width="1.16573" stroke-linecap="round"/><path d="M248.89058,165.77894c3.0563,0 5.8263,1.0788 7.8321,2.8209c2.005,1.7428 3.2465,4.1488 3.2465,6.8048c0,2.6559 -1.2415,5.062 -3.2465,6.8048c-2.0058,1.742 -4.7758,2.8208 -7.8321,2.8208c-3.0562,0 -5.8262,-1.0788 -7.832,-2.8208c-2.005,-1.7428 -3.2466,-4.1489 -3.2466,-6.8048c0,-2.656 1.2416,-5.062 3.2466,-6.8048c2.0058,-1.7421 4.7758,-2.8209 7.832,-2.8209z" fill="#003fff" stroke="#000000" stroke-width="1.45293" stroke-linecap="butt"/><path d="M252.46618,163.49494c1.8491,-1.005 4.3801,0.8892 5.9005,2.3364c1.1191,1.1458 1.1966,3.0945 1.2007,4.6379c0.0055,1.6153 -0.2895,3.3023 -1.1698,4.7049c-0.6758,1.0754 -1.9225,2.0951 -3.1527,2.0951c-1.2301,0 -2.3451,-0.8014 -3.1526,-2.0951c-0.8076,-1.2945 -1.3448,-3.3142 -1.307,-5.0536c0.0494,-2.2318 -0.2635,-5.5683 1.6809,-6.6256z" fill="#ffffff" stroke="#000000" stroke-width="1.38359" stroke-linecap="butt"/><path d="M256.32488,171.32654c0.4257,0 0.8122,0.1998 1.0911,0.5216c0.2797,0.3225 0.4526,0.7671 0.4526,1.2582c0,0.4911 -0.1729,0.9357 -0.4526,1.2583c-0.2789,0.3218 -0.6654,0.5216 -1.0911,0.5216c-0.4257,0 -0.8122,-0.1998 -1.0912,-0.5216c-0.2797,-0.3226 -0.4526,-0.7672 -0.4526,-1.2583c0,-0.4911 0.1729,-0.9357 0.4526,-1.2582c0.279,-0.3218 0.6655,-0.5216 1.0912,-0.5216z" fill="#000000" stroke="none" stroke-width="0.72647" stroke-linecap="butt"/><path d="M244.70018,164.66864c1.8198,-1.4014 4.7881,-2.4264 6.6799,-1.2379c1.8401,1.2495 1.381,4.3471 1.3802,6.5018c-0.0007,1.8198 -0.5288,3.9157 -1.3839,5.264c-0.855,1.3476 -2.0355,2.1823 -3.3381,2.1823c-1.3025,0 -2.483,-0.8347 -3.3381,-2.1823c-0.855,-1.3483 -1.3839,-3.2698 -1.3839,-5.264c0,-1.9941 -0.0349,-4.143 1.3839,-5.2639z" fill="#ffffff" stroke="#000000" stroke-width="1.45293" stroke-linecap="butt"/><path d="M249.12488,171.27654c0.4257,0 0.8122,0.1998 1.0911,0.5216c0.2797,0.3225 0.4526,0.7671 0.4526,1.2582c0,0.4911 -0.1729,0.9357 -0.4526,1.2583c-0.2789,0.3218 -0.6654,0.5216 -1.0911,0.5216c-0.4257,0 -0.8122,-0.1998 -1.0912,-0.5216c-0.2797,-0.3226 -0.4526,-0.7672 -0.4526,-1.2583c0,-0.4911 0.1729,-0.9357 0.4526,-1.2582c0.279,-0.3218 0.6655,-0.5216 1.0912,-0.5216z" fill="#000000" stroke="none" stroke-width="0.72647" stroke-linecap="butt"/><path d="M250.31133,181.06067c-0.62759,0 -1.13636,-0.26456 -1.13636,-0.59091c0,-0.32635 0.50876,-0.59091 1.13636,-0.59091c0.62759,0 1.13636,0.26456 1.13636,0.59091c0,0.32635 -0.50876,0.59091 -1.13636,0.59091z" fill="none" stroke="#000000" stroke-width="1.45293" stroke-linecap="butt"/></g></g></svg>