<svg version="1.1" xmlns="http://www.w3.org/2000/svg" xmlns:xlink="http://www.w3.org/1999/xlink" width="482.30127" height="338.28981" viewBox="0,0,482.30127,338.28981"><defs><linearGradient x1="240.29761" y1="212.63501" x2="240.29761" y2="307.63503" gradientUnits="userSpaceOnUse" id="color-1"><stop offset="0" stop-color="#29cdff"/><stop offset="1" stop-color="#295eff"/></linearGradient><linearGradient x1="365.52849" y1="150.24156" x2="365.52849" y2="307.79378" gradientUnits="userSpaceOnUse" id="color-2"><stop offset="0" stop-color="#27f6bc"/><stop offset="1" stop-color="#23dba6"/></linearGradient><linearGradient x1="117.13213" y1="70.57408" x2="117.13213" y2="312.63505" gradientUnits="userSpaceOnUse" id="color-3"><stop offset="0" stop-color="#24e2ac"/><stop offset="1" stop-color="#1fc395"/></linearGradient><linearGradient x1="75.85303" y1="208.26911" x2="75.85303" y2="245.24905" gradientUnits="userSpaceOnUse" id="color-4"><stop offset="0" stop-color="#4cbd35"/><stop offset="1" stop-color="#449933"/></linearGradient><linearGradient x1="144.17527" y1="107.51304" x2="144.17527" y2="137.96506" gradientUnits="userSpaceOnUse" id="color-5"><stop offset="0" stop-color="#4cbd35"/><stop offset="1" stop-color="#449933"/></linearGradient><linearGradient x1="397.80054" y1="225.51302" x2="397.80054" y2="246.07847" gradientUnits="userSpaceOnUse" id="color-6"><stop offset="0" stop-color="#4cbd35"/><stop offset="1" stop-color="#449933"/></linearGradient><linearGradient x1="321.7803" y1="270.31671" x2="319.9208" y2="316.16054" gradientUnits="userSpaceOnUse" id="color-7"><stop offset="0" stop-color="#3ccf7b"/><stop offset="1" stop-color="#209268"/></linearGradient><linearGradient x1="117.95955" y1="250.19704" x2="117.95955" y2="295.01387" gradientUnits="userSpaceOnUse" id="color-8"><stop offset="0" stop-color="#3ccf7b"/><stop offset="1" stop-color="#209268"/></linearGradient><linearGradient x1="239.96882" y1="272.53719" x2="239.96882" y2="453.31901" gradientUnits="userSpaceOnUse" id="color-9"><stop offset="0" stop-color="#000000" stop-opacity="0"/><stop offset="1" stop-color="#000000"/></linearGradient></defs><g transform="translate(1.15064,-29.9554)"><g data-paper-data="{&quot;isPaintingLayer&quot;:true}" fill-rule="nonzero" stroke="none" stroke-width="0" stroke-linecap="butt" stroke-linejoin="miter" stroke-miterlimit="10" stroke-dasharray="" stroke-dashoffset="0" style="mix-blend-mode: normal"><g><path d="M-0.05486,307.63503v-95h480.70492v95z" data-paper-data="{&quot;origPos&quot;:null}" fill="url(#color-1)"/><path d="M275.3236,307.79378c0,0 40.41946,-157.55219 90.2049,-157.55219c49.78544,0 90.2049,157.55219 90.2049,157.55219z" data-paper-data="{&quot;origPos&quot;:null,&quot;origRot&quot;:0}" fill="url(#color-2)"/><path d="M-0.11592,312.63505c0,0 52.53709,-242.06097 117.24805,-242.06097c64.71096,0 117.24805,242.06097 117.24805,242.06097z" data-paper-data="{&quot;origPos&quot;:null,&quot;origRot&quot;:0}" fill="url(#color-3)"/><g data-paper-data="{&quot;origPos&quot;:null}"><path d="M72.3821,260.63498v-26.18293h6.17054v26.18293z" data-paper-data="{&quot;origPos&quot;:null}" fill="#818f45"/><path d="M91.66502,234.83708c0,11.27063 -7.07928,10.39616 -15.812,10.39616c-8.73272,0 -15.812,0.87447 -15.812,-10.39616c0,-11.27063 7.07928,-26.56797 15.812,-26.56797c8.73272,0 15.812,15.29734 15.812,26.56797z" data-paper-data="{&quot;origPos&quot;:null}" fill="url(#color-4)"/></g><g data-paper-data="{&quot;origPos&quot;:null}"><path d="M141.31704,150.63498v-21.56097h5.08128v21.56097z" data-paper-data="{&quot;origPos&quot;:null}" fill="#818f45"/><path d="M157.19605,129.39108c0,9.28108 -5.82959,8.56097 -13.02078,8.56097c-7.19118,0 -13.02078,0.7201 -13.02078,-8.56097c0,-9.28108 5.82959,-21.87805 13.02078,-21.87805c7.19118,0 13.02078,12.59697 13.02078,21.87805z" data-paper-data="{&quot;origPos&quot;:null}" fill="url(#color-5)"/></g><g data-paper-data="{&quot;origPos&quot;:null}"><path d="M395.87027,254.63497v-14.56097h3.43159v14.56097z" data-paper-data="{&quot;origPos&quot;:null}" fill="#818f45"/><path d="M406.59399,240.28813c0,6.26788 -3.93695,5.78156 -8.79344,5.78156c-4.85649,0 -8.79344,0.48632 -8.79344,-5.78156c0,-6.26788 3.93695,-14.77511 8.79344,-14.77511c4.85649,0 8.79344,8.50723 8.79344,14.77511z" data-paper-data="{&quot;origPos&quot;:null}" fill="url(#color-6)"/></g></g><g><path d="M305.23883,309.0962c0,0 -15.91012,-17.9101 -3.14444,-27.26956c8.04219,-5.89633 23.43333,0.07968 23.43333,0.07968c0,0 10.76141,-14.23579 25.35361,-11.82299c14.5922,2.41281 12.96351,17.42095 12.96351,17.42095c0,0 14.23727,-7.14466 22.70476,-2.85432c9.79474,4.96283 -5.29074,23.62879 -5.29074,23.62879z" data-paper-data="{&quot;index&quot;:null,&quot;origRot&quot;:0}" fill="url(#color-7)"/><path d="M60.81168,288.13399c0,0 -18.39539,-17.98213 -8.37328,-22.97853c8.66405,-4.31935 23.65269,3.60994 23.65269,3.60994c0,0 -2.02739,-15.80381 12.70099,-18.37528c14.72839,-2.57146 24.93894,11.19796 24.93894,11.19796c0,0 5.56302,-11.29276 17.41626,-10.61723c11.85324,0.67553 12.87256,12.84062 12.87256,12.84062c0,0 4.63386,-12.45611 17.10801,-11.08434c9.23641,1.01572 6.78973,11.46597 6.78973,11.46597c0,0 8.92584,-4.44769 16.49298,-2.35452c4.59944,1.27227 -1.68382,20.68959 -1.68382,20.68959z" fill="url(#color-8)"/><path d="M-1.15064,360.80119v-60.61508c0,0 79.2717,-23.39529 136.65203,-23.39529c63.7625,0 112.0144,11.8234 174.91151,22.90379c71.86343,12.65996 170.73773,0.4915 170.73773,0.4915v60.61508z" fill="#3ac860"/><path d="M-1.15064,368.24521v-95.70802h482.2389v95.70802z" fill="url(#color-9)"/></g><path d="M237.83733,32.28683c-0.06726,0 -0.12178,-0.05452 -0.12178,-0.12178c0,-0.06726 0.05452,-0.12178 0.12178,-0.12178c0.06726,0 0.12178,0.05452 0.12178,0.12178c0,0.06726 -0.05452,0.12178 -0.12178,0.12178z" fill="none"/><path d="M234.84589,31.8981c0,-1.07293 1.11354,-1.9427 2.48716,-1.9427c1.37362,0 2.48716,0.86978 2.48716,1.9427c0,1.07293 -1.11354,1.9427 -2.48716,1.9427c-1.37362,0 -2.48716,-0.86978 -2.48716,-1.9427z" fill="none"/></g></g></svg>