<svg version="1.1" xmlns="http://www.w3.org/2000/svg" xmlns:xlink="http://www.w3.org/1999/xlink" width="580" height="660" viewBox="0,0,580,660"><defs><linearGradient x1="240" y1="-127.25001" x2="240" y2="532.24999" gradientUnits="userSpaceOnUse" id="color-1"><stop offset="0" stop-color="#3c4b92" stop-opacity="0.5"/><stop offset="0.2" stop-color="#414c86" stop-opacity="0.8"/><stop offset="0.3" stop-color="#444d7e" stop-opacity="0.9"/><stop offset="0.4" stop-color="#464e7c"/><stop offset="0.5" stop-color="#393d5b"/><stop offset="0.7" stop-color="#2d2c3b"/><stop offset="0.9" stop-color="#252227"/><stop offset="1" stop-color="#231f20"/></linearGradient></defs><g transform="translate(49.90001,127.75001)"><g data-paper-data="{&quot;isPaintingLayer&quot;:true}" fill-rule="nonzero" stroke-width="1" stroke-linecap="butt" stroke-linejoin="miter" stroke-miterlimit="10" stroke-dasharray="" stroke-dashoffset="0" style="mix-blend-mode: normal"><path d="M522,-127.25001c3,0 5.6,0.1 7.9,0.2v659.3h-579.2v-659.3c21.5,1.9 21.4,2.9 45.3,2.9c23.9,0 23.9,-3.1 47.8,-3.1c23.9,0 23.9,3.1 47.8,3.1c23.9,0 23.9,-3.1 47.8,-3.1c23.9,0 23.9,3.1 47.8,3.1c23.9,0 23.9,-3.1 47.8,-3.1c23.9,0 23.9,3.1 47.8,3.1c23.9,0 23.9,-3.1 47.8,-3.1c23.9,0 23.9,3.1 47.8,3.1c23.9,0 23.9,-3.1 47.8,-3.1c23.9,0 23.9,3.1 47.8,3.1c23.9,0 23.9,-3.1 47.8,-3.1z" fill="url(#color-1)" stroke="none"/><path d="M529.6,-126.05001c-2.3,-0.1 -4.9,-0.2 -7.9,-0.2c-23.9,0 -23.9,3.1 -47.8,3.1c-23.9,0 -23.9,-3.1 -47.8,-3.1c-23.9,0 -23.9,3.1 -47.8,3.1c-23.9,0 -23.9,-3.1 -47.8,-3.1c-23.9,0 -23.9,3.1 -47.8,3.1c-23.9,0 -23.9,-3.1 -47.8,-3.1c-23.9,0 -23.9,3.1 -47.8,3.1c-23.9,0 -23.9,-3.1 -47.8,-3.1c-23.9,0 -23.9,3.1 -47.8,3.1c-23.9,0 -23.9,-3.1 -47.8,-3.1c-23.9,0 -23.9,3.1 -47.8,3.1c-23.9,0 -23.8,-1 -45.3,-2.9" fill="none" stroke="#bfc6db" opacity="0.1"/><path d="M529.6,-127.05001c-2.3,-0.1 -4.9,-0.2 -7.9,-0.2c-23.9,0 -23.9,3.1 -47.8,3.1c-23.9,0 -23.9,-3.1 -47.8,-3.1c-23.9,0 -23.9,3.1 -47.8,3.1c-23.9,0 -23.9,-3.1 -47.8,-3.1c-23.9,0 -23.9,3.1 -47.8,3.1c-23.9,0 -23.9,-3.1 -47.8,-3.1c-23.9,0 -23.9,3.1 -47.8,3.1c-23.9,0 -23.9,-3.1 -47.8,-3.1c-23.9,0 -23.9,3.1 -47.8,3.1c-23.9,0 -23.9,-3.1 -47.8,-3.1c-23.9,0 -23.9,3.1 -47.8,3.1c-23.9,0 -23.8,-1 -45.3,-2.9" fill="none" stroke="#dadfef" opacity="0.3"/></g></g></svg>