<svg version="1.1" xmlns="http://www.w3.org/2000/svg" xmlns:xlink="http://www.w3.org/1999/xlink" width="61.38626" height="34.15005" viewBox="0,0,61.38626,34.15005"><g transform="translate(-209.41578,-162.7986)"><g data-paper-data="{&quot;isPaintingLayer&quot;:true}" fill-rule="nonzero" stroke-linejoin="miter" stroke-miterlimit="10" stroke-dasharray="" stroke-dashoffset="0" style="mix-blend-mode: normal"><path d="M236.95483,187.62221c1.0257,-0.0295 1.9788,0.7653 2.6902,2.0734c0.7111,1.3077 1.295,3.3297 1.2386,5.1515c-0.0619,0.9872 -0.8716,1.0476 -1.3899,1.1406c-1.4944,0.4364 -3.0575,0.4633 -4.5927,0.1322c-0.5227,0.0069 -1.3607,-0.1216 -1.4531,-1.0589c-0.159,-1.813 0.2916,-3.838 0.9404,-5.2142c0.6174,-1.3096 1.5408,-2.195 2.5665,-2.2246z" fill="#182bb1" stroke="#000000" stroke-width="1.20787" stroke-linecap="round"/><path d="M247.07403,176.11911c3.0664,-0.224 6.6001,-0.5576 9.2235,0.6139c3.0301,1.3535 5.1031,3.77 6.0482,6.1384c1.2882,3.2299 4.7191,7.667 1.4364,10.0262c-4.4726,2.84 -12.3988,1.5428 -18.069,1.1254c-3.6168,-0.2671 -6.6288,-2.1393 -9.9039,-3.1204c-4.2201,-1.2645 -8.729,-2.1802 -12.7768,-3.6319c-1.01,-0.4481 -0.8951,-0.9812 -0.9828,-1.5347c-0.2208,-1.4149 -0.375,-2.6866 0,-3.99c0.183,-0.623 0.5897,-1.2266 1.3608,-1.4834c2.8744,-0.9556 6.0346,-1.5817 9.1479,-2.1485c4.7297,-0.8604 9.5864,-1.7546 14.5157,-1.995z" fill="#0144d8" stroke="#000000" stroke-width="1.29093" stroke-linecap="round"/><path d="M257.52113,192.23991l-12.25,-0.6l-10.25,-3.6l-10.75,-2.95l7.75,1.35l8.75,1.15l9.65,0.85z" fill="none" stroke="#01248d" stroke-width="4" stroke-linecap="round"/><path d="M260.37733,175.23771c2.6872,0 5.1227,1.0788 6.8862,2.8209c1.7629,1.7428 2.8545,4.1488 2.8545,6.8048c0,2.6559 -1.0916,5.062 -2.8545,6.8048c-1.7635,1.742 -4.199,2.8208 -6.8862,2.8208c-2.6871,0 -5.1226,-1.0788 -6.8862,-2.8208c-1.7629,-1.7428 -2.8545,-4.1489 -2.8545,-6.8048c0,-2.656 1.0916,-5.062 2.8545,-6.8048c1.7636,-1.7421 4.1991,-2.8209 6.8862,-2.8209z" fill="#4170ff" stroke="#000000" stroke-width="1.36802" stroke-linecap="butt"/><path d="M263.29753,174.83671c1.6096,-0.6632 3.7221,0.3362 5.1115,1.3949c1.0312,0.8 1.3489,2.4124 1.3722,3.6964c0.0295,1.6153 -0.2895,3.3023 -1.1698,4.7049c-0.6758,1.0754 -1.9225,2.0951 -3.1527,2.0951c-1.2301,0 -2.3451,-0.8014 -3.1526,-2.0951c-0.8076,-1.2945 -1.4902,-3.3233 -1.307,-5.0536c0.1825,-1.7283 0.7355,-3.9733 2.2984,-4.7426z" fill="#ffffff" stroke="#000000" stroke-width="1.38359" stroke-linecap="butt"/><path d="M266.43873,180.83531c0.4257,0 0.8122,0.1998 1.0911,0.5216c0.2797,0.3225 0.4526,0.7671 0.4526,1.2582c0,0.4911 -0.1729,0.9357 -0.4526,1.2583c-0.2789,0.3218 -0.6654,0.5216 -1.0911,0.5216c-0.4257,0 -0.8122,-0.1998 -1.0912,-0.5216c-0.2797,-0.3226 -0.4526,-0.7672 -0.4526,-1.2583c0,-0.4911 0.1729,-0.9357 0.4526,-1.2582c0.279,-0.3218 0.6655,-0.5216 1.0912,-0.5216z" fill="#000000" stroke="none" stroke-width="0.72647" stroke-linecap="butt"/><path d="M254.93733,175.64111c1.9687,-1.0672 4.6377,-1.8162 6.6108,-0.8718c1.45,0.7606 1.1762,3.1652 1.126,4.722c-0.0588,1.8118 -0.5288,3.9157 -1.3839,5.264c-0.855,1.3476 -2.0355,2.1823 -3.3381,2.1823c-1.3025,0 -2.483,-0.8347 -3.3381,-2.1823c-0.855,-1.3483 -1.4449,-3.4471 -1.3839,-5.264c0.0494,-1.4878 0.4686,-3.1971 1.7072,-3.8502z" fill="#ffffff" stroke="#000000" stroke-width="1.45293" stroke-linecap="butt"/><path d="M259.03873,180.83531c0.4257,0 0.8122,0.1998 1.0911,0.5216c0.2797,0.3225 0.4526,0.7671 0.4526,1.2582c0,0.4911 -0.1729,0.9357 -0.4526,1.2583c-0.2789,0.3218 -0.6654,0.5216 -1.0911,0.5216c-0.4257,0 -0.8122,-0.1998 -1.0912,-0.5216c-0.2797,-0.3226 -0.4526,-0.7672 -0.4526,-1.2583c0,-0.4911 0.1729,-0.9357 0.4526,-1.2582c0.279,-0.3218 0.6655,-0.5216 1.0912,-0.5216z" fill="#000000" stroke="none" stroke-width="0.72647" stroke-linecap="butt"/><path d="M235.76843,187.83801c0.8643,0.5532 1.2045,1.7467 1.0558,3.2282c-0.1486,1.4811 -0.8046,3.4809 -1.8769,4.9547c-0.6071,0.781 -1.3102,0.375 -1.7909,0.1601c-1.4807,-0.4809 -2.7877,-1.3387 -3.8699,-2.4768c-0.4359,-0.2885 -1.0561,-0.8666 -0.6047,-1.6933c0.8894,-1.5878 2.402,-3.0075 3.7131,-3.7795c1.2476,-0.7347 2.5093,-0.9465 3.3735,-0.3934z" fill="#4170ff" stroke="#000000" stroke-width="1.20787" stroke-linecap="round"/><path d="M221.58613,176.97221c1.0395,3.8202 1.0118,6.2612 0.4622,8.2358c-0.7323,2.0717 -1.6855,4.1649 -3.0813,5.8827c-1.3897,1.7105 -3.1194,3.195 -5.0843,4.1434c-1.1555,0.5617 -3.4953,0.9812 -3.9544,0.2558c-0.3872,-0.7581 1.7636,-2.0533 2.2597,-3.2227c1.667,-3.8754 3.9616,-7.7027 4.3139,-11.9188c0.2814,-3.3721 -1.7133,-6.5743 -2.4138,-9.8727c-0.1746,-0.8246 -0.6501,-2.305 0,-2.1485c1.778,0.4358 3.558,2.0625 4.8789,3.6319c1.2428,1.3873 1.8529,3.3025 2.6191,5.0131z" fill="#4170ff" stroke="#000000" stroke-width="1.0251" stroke-linecap="round"/><path d="M214.78513,165.73571c-0.8885,-0.9726 -0.4966,-2.2928 1.0621,-2.212c6.2353,0.3231 12.682,1.0918 19.3404,3.3604c5.5502,1.8172 11.3649,4.9879 16.4642,8.6227c1.2749,0.9088 -0.5012,1.5178 -0.9121,2.1643c-0.6433,1.0106 -1.1587,2.3045 -2.4429,2.7496c-2.4701,0.8628 -5.4853,0.746 -8.3682,0.8695c-3.3087,0.144 -6.4224,1.7267 -10.1353,-0.2877c-3.0216,-1.6411 -2.8423,-5.7771 -5.2877,-8.3409c-2.7864,-2.7581 -7.0976,-4.0547 -9.7205,-6.9259z" fill="#7a9bff" stroke="#000000" stroke-width="1.44314" stroke-linecap="round"/><path d="M260.97518,190.56035c-0.62759,0 -1.13636,-0.26456 -1.13636,-0.59091c0,-0.32635 0.50876,-0.59091 1.13636,-0.59091c0.62759,0 1.13636,0.26456 1.13636,0.59091c0,0.32635 -0.50876,0.59091 -1.13636,0.59091z" fill="none" stroke="#000000" stroke-width="1.45293" stroke-linecap="butt"/></g></g></svg>