<svg version="1.1" xmlns="http://www.w3.org/2000/svg" xmlns:xlink="http://www.w3.org/1999/xlink" width="30.09411" height="26.20092" viewBox="0,0,30.09411,26.20092"><g transform="translate(-225.37314,-166.89954)"><g data-paper-data="{&quot;isPaintingLayer&quot;:true}" fill-rule="nonzero" stroke-linecap="butt" stroke-linejoin="miter" stroke-miterlimit="10" stroke-dasharray="" stroke-dashoffset="0" style="mix-blend-mode: normal"><path d="M254.21725,179.00987c0,4.52987 -0.59187,7.9562 -4.71246,9.83781c-3.91467,1.78758 -5.22311,3.32782 -9.5094,2.9434c-4.94258,-0.44328 -4.03019,0.52529 -7.90044,-3.37787c-5.38924,-5.43506 -5.47181,-3.16663 -5.47181,-6.85449c0,-2.69406 -1.94218,-5.82674 0.07848,-7.60856c1.51564,-1.33649 1.3114,-3.121 3.17605,-3.89974c3.73109,-1.55823 6.66536,-1.90088 10.70875,-1.90088c0,0 4.00014,1.08959 6.90191,1.92226c5.58894,1.60377 6.72892,3.06249 6.72892,8.93808z" fill="#978e80" stroke="#716659" stroke-width="2.5"/><path d="M249.54708,178.88412c0,3.07718 -0.40207,5.40471 -3.20122,6.68291c-2.65927,1.21432 -3.54811,2.26062 -6.45982,1.99948c-3.35753,-0.30112 -2.73774,0.35683 -5.36684,-2.29461c-3.66096,-3.69209 -3.71705,-2.15112 -3.71705,-4.65632c0,-1.8301 -1.31934,-3.95816 0.05331,-5.16856c1.02959,-0.90789 0.89084,-2.12012 2.15752,-2.64913c2.53456,-1.05852 4.52783,-1.29129 7.27455,-1.29129c0,0 2.71733,0.74017 4.68853,1.30581c3.79662,1.08945 4.57102,2.08037 4.57102,6.07172z" fill="#898173" stroke="none" stroke-width="0"/></g></g></svg>